# 
# ?? Sweet Home 3D ?? - ??? ?? 12 08:06:52 CST 2015
# http://www.sweethome3d.com/
# 
mtllib userGuideExample.mtl
g ground_1
usemtl ground_1
v -317.06357 0.0 -342.00003
v -317.06357 0.0 412.91672
v -285.66675 0.0 392.9167
v -285.66675 0.0 -114.8425
v -258.5301 0.0 -114.8425
v -258.5301 0.0 -118.567505
v -258.5301 0.0 -122.3425
v -285.67438 0.0 -122.3425
v -286.5251 0.0 -256.9167
v -285.07208 0.0 -256.9167
v -285.07208 0.0 -260.6917
v -223.46136 0.0 -260.6917
v -223.46136 0.0 -256.9167
v -215.58344 0.0 -256.9167
v -215.58344 0.0 -322.00003
v -47.676025 0.0 -322.00003
v -47.676025 0.0 -122.3425
v -177.9701 0.0 -122.3425
v -177.9701 0.0 -118.567505
v -177.9701 0.0 -114.8425
v -44.666748 0.0 -114.8425
v -44.666748 0.0 -114.84248
v 44.916626 0.0 -114.84248
v 44.916626 0.0 -86.92999
v 52.416626 0.0 -86.92999
v 52.416626 0.0 -114.84248
v 58.803223 0.0 -114.84248
v 58.803223 0.0 -118.56749
v 58.803223 0.0 -122.34248
v -41.06488 0.0 -122.34248
v -41.06488 0.0 -322.00003
v 180.90738 0.0 -322.00003
v 180.90738 0.0 -122.34248
v 139.36325 0.0 -122.34248
v 139.36325 0.0 -118.56749
v 139.36325 0.0 -114.84248
v 196.6666 0.0 -114.84248
v 196.6666 0.0 -114.88582
v 227.55542 0.0 -114.88582
v 228.05542 0.0 -105.75003
v 237.55542 0.0 -105.75003
v 237.55542 0.0 -7.7500305
v 227.55542 0.0 -7.7500305
v 227.55542 0.0 -1.7500305
v 188.61105 0.0 -1.7500305
v 188.61105 0.0 56.47235
v 52.416626 0.0 56.47235
v 52.416626 0.0 -6.369995
v 44.916626 0.0 -6.369995
v 44.916626 0.0 63.97235
v 188.61105 0.0 63.97235
v 188.61105 0.0 392.9167
v 247.55557 0.0 412.91672
v 247.55557 0.0 -342.00003
vn 0.0 1.0 0.0
vn 0.0 0.0 0.0
f 3//1 2//1 53//1
f 52//1 3//1 53//1
f 51//1 52//1 53//1
f 48//1 49//1 50//1
f 47//1 48//1 50//1
f 47//1 50//1 51//1
f 46//1 47//1 51//1
f 46//1 51//1 53//1
f 45//1 46//1 53//1
f 44//1 45//1 53//1
f 43//1 44//1 53//1
f 42//1 43//1 53//1
f 42//1 53//1 54//1
f 41//1 42//1 54//1
f 40//1 41//1 54//1
f 39//1 40//1 54//1
f 38//1 39//1 54//1
f 36//1 37//1 38//1
f 35//1 36//1 38//1
f 34//1 35//1 38//1
f 33//1 34//1 38//1
f 33//1 38//1 54//1
f 32//1 33//1 54//1
f 32//1 54//1 1//1
f 31//1 32//1 1//1
f 28//1 29//1 30//1
f 27//1 28//1 30//1
f 26//1 27//1 30//1
f 24//1 25//1 26//1
f 23//1 24//1 26//1
f 23//1 26//1 30//1
f 22//1 23//1 30//1
f 22//1 30//1 31//1
f 21//1 22//1 31//1
f 19//1 20//1 21//1
f 18//1 19//1 21//1
f 17//1 18//1 21//1
f 17//1 21//1 31//1
f 16//1 17//1 31//1
f 16//1 31//1 1//1
f 15//1 16//1 1//1
f 14//1 15//1 1//1
f 12//1 13//1 14//1
f 12//1 14//1 1//1
f 11//1 12//1 1//1
f 10//1 11//1 1//1
f 9//1 10//1 1//1
f 9//1 1//1 2//1
f 9//1 2//1 3//1
f 9//1 3//1 4//1
f 8//1 9//1 4//1
f 8//1 4//1 5//1
f 8//1 5//1 6//1
f 8//1 6//1 7//1
