################################
# OBJ generated by split_obj.py
################################
# Faces:    256
# Vertices: 130
# Normals:  34
# UVs:      0
################################

# vertices

v 1492.357200 44.000000 949.455800
v 1475.751800 44.000000 947.017100
v 1479.410400 44.000000 964.642760
v 1521.068800 44.000000 958.777160
v 1507.648800 44.000000 953.436340
v 1497.146500 44.000000 970.400300
v 1540.253000 44.000000 972.727660
v 1532.060800 44.000000 965.297900
v 1508.997200 44.000000 979.017760
v 1546.989700 44.000000 989.183000
v 1545.273000 44.000000 980.795700
v 1513.158400 44.000000 989.183000
v 1540.253000 44.000000 1005.638240
v 1545.273000 44.000000 997.570200
v 1508.997200 44.000000 999.347700
v 1521.068800 44.000000 1019.588300
v 1532.060800 44.000000 1013.068050
v 1497.146500 44.000000 1007.965150
v 1492.357200 44.000000 1028.909700
v 1507.648800 44.000000 1024.929200
v 1479.410400 44.000000 1013.723140
v 1458.490000 44.000000 1032.182700
v 1475.751800 44.000000 1031.348800
v 1458.490000 44.000000 1015.745200
v 1424.622300 44.000000 1028.909700
v 1441.227700 44.000000 1031.348800
v 1437.569100 44.000000 1013.723140
v 1395.910600 44.000000 1019.588300
v 1409.331300 44.000000 1024.929200
v 1419.833500 44.000000 1007.965150
v 1376.726400 44.000000 1005.638240
v 1384.918700 44.000000 1013.068050
v 1407.982900 44.000000 999.347700
v 1369.989700 44.000000 989.183000
v 1371.706500 44.000000 997.570200
v 1403.821000 44.000000 989.183000
v 1376.726400 44.000000 972.727660
v 1371.706500 44.000000 980.795700
v 1407.982900 44.000000 979.017760
v 1395.910600 44.000000 958.777160
v 1384.918700 44.000000 965.297900
v 1419.833500 44.000000 970.400300
v 1424.622300 44.000000 949.455800
v 1409.331300 44.000000 953.436340
v 1437.569100 44.000000 964.642760
v 1458.490000 44.000000 946.182740
v 1441.227700 44.000000 947.017100
v 1458.490000 44.000000 962.620800
v 1458.490000 38.344730 946.182740
v 1458.490000 41.172363 946.182740
v 1475.751800 41.172363 947.017100
v 1492.357200 38.344730 949.455800
v 1492.357200 41.172363 949.455800
v 1507.648800 41.172363 953.436340
v 1521.068800 38.344730 958.777160
v 1521.068800 41.172363 958.777160
v 1532.060800 41.172363 965.297900
v 1540.253000 38.344730 972.727660
v 1540.253000 41.172363 972.727660
v 1545.273000 41.172363 980.795700
v 1546.989700 38.344730 989.183000
v 1546.989700 41.172363 989.183000
v 1545.273000 41.172363 997.570200
v 1540.253000 38.344730 1005.638240
v 1540.253000 41.172363 1005.638240
v 1532.060800 41.172363 1013.068050
v 1521.068800 38.344730 1019.588300
v 1521.068800 41.172363 1019.588300
v 1507.648800 41.172363 1024.929200
v 1492.357200 38.344730 1028.909700
v 1492.357200 41.172363 1028.909700
v 1475.751800 41.172363 1031.348800
v 1458.490000 38.344730 1032.182700
v 1458.490000 41.172363 1032.182700
v 1441.227700 41.172363 1031.348800
v 1424.622300 38.344730 1028.909700
v 1424.622300 41.172363 1028.909700
v 1409.331300 41.172363 1024.929200
v 1395.910600 38.344730 1019.588300
v 1395.910600 41.172363 1019.588300
v 1384.918700 41.172363 1013.068050
v 1376.726400 38.344730 1005.638240
v 1376.726400 41.172363 1005.638240
v 1371.706500 41.172363 997.570200
v 1369.989700 38.344730 989.183000
v 1369.989700 41.172363 989.183000
v 1371.706500 41.172363 980.795700
v 1376.726400 38.344730 972.727660
v 1376.726400 41.172363 972.727660
v 1384.918700 41.172363 965.297900
v 1395.910600 38.344730 958.777160
v 1395.910600 41.172363 958.777160
v 1409.331300 41.172363 953.436340
v 1424.622300 38.344730 949.455800
v 1424.622300 41.172363 949.455800
v 1441.227700 41.172363 947.017100
v 1475.751800 38.344730 947.017100
v 1507.648800 38.344730 953.436340
v 1532.060800 38.344730 965.297900
v 1545.273000 38.344730 980.795700
v 1545.273000 38.344730 997.570200
v 1532.060800 38.344730 1013.068050
v 1507.648800 38.344730 1024.929200
v 1475.751800 38.344730 1031.348800
v 1441.227700 38.344730 1031.348800
v 1409.331300 38.344730 1024.929200
v 1384.918700 38.344730 1013.068050
v 1371.706500 38.344730 997.570200
v 1371.706500 38.344730 980.795700
v 1384.918700 38.344730 965.297900
v 1409.331300 38.344730 953.436340
v 1441.227700 38.344730 947.017100
v 1458.490000 38.344730 989.183000
v 1458.490000 38.344730 962.620800
v 1479.410400 38.344730 964.642760
v 1497.146500 38.344730 970.400300
v 1508.997200 38.344730 979.017760
v 1513.158400 38.344730 989.183000
v 1508.997200 38.344730 999.347700
v 1497.146500 38.344730 1007.965150
v 1479.410400 38.344730 1013.723140
v 1458.490000 38.344730 1015.745200
v 1437.569100 38.344730 1013.723140
v 1419.833500 38.344730 1007.965150
v 1407.982900 38.344730 999.347700
v 1403.821000 38.344730 989.183000
v 1407.982900 38.344730 979.017760
v 1419.833500 38.344730 970.400300
v 1437.569100 38.344730 964.642760
v 1458.490000 44.000000 989.183000

# normals

vn 0 1 0
vn 0 -1 0
vn 1 0 0
vn 0 0 -1
vn 0 0 1
vn -1 0 0
vn 0.16662 0 -0.98602
vn 0.33211 0 -0.94324
vn 0.49406 0 -0.86943
vn 0.64837 0 -0.76132
vn 0.7871 0 -0.61682
vn 0.89986 0 -0.43619
vn 0.97402 0 -0.22646
vn 0.97402 0 0.22646
vn 0.89986 0 0.43619
vn 0.7871 0 0.61682
vn 0.64837 0 0.76132
vn 0.49406 0 0.86943
vn 0.33211 0 0.94324
vn 0.16662 0 0.98602
vn -0.16662 -0 0.98602
vn -0.33211 0 0.94324
vn -0.49406 -0 0.86943
vn -0.64837 -0 0.76132
vn -0.7871 -0 0.61682
vn -0.89986 -0 0.43619
vn -0.97402 -0 0.22646
vn -0.97402 0 -0.22646
vn -0.89986 0 -0.43619
vn -0.7871 0 -0.61682
vn -0.64837 0 -0.76132
vn -0.49406 0 -0.86943
vn -0.33211 0 -0.94324
vn -0.16662 0 -0.98602

# uvs



# faces

f 1//1 2//1 3//1
f 4//1 5//1 6//1
f 7//1 8//1 9//1
f 10//1 11//1 12//1
f 13//1 14//1 15//1
f 16//1 17//1 18//1
f 19//1 20//1 21//1
f 22//1 23//1 24//1
f 25//1 26//1 27//1
f 28//1 29//1 30//1
f 31//1 32//1 33//1
f 34//1 35//1 36//1
f 37//1 38//1 39//1
f 40//1 41//1 42//1
f 43//1 44//1 45//1
f 46//1 47//1 48//1
f 49//4 50//4 51//7
f 52//8 53//8 54//9
f 55//10 56//10 57//11
f 58//12 59//12 60//13
f 61//3 62//3 63//14
f 64//15 65//15 66//16
f 67//17 68//17 69//18
f 70//19 71//19 72//20
f 73//5 74//5 75//21
f 76//22 77//22 78//23
f 79//24 80//24 81//25
f 82//26 83//26 84//27
f 85//6 86//6 87//28
f 88//29 89//29 90//30
f 91//31 92//31 93//32
f 94//33 95//33 96//34
f 49//4 51//7 97//7
f 52//8 54//9 98//9
f 55//10 57//11 99//11
f 58//12 60//13 100//13
f 61//3 63//14 101//14
f 64//15 66//16 102//16
f 67//17 69//18 103//18
f 70//19 72//20 104//20
f 73//5 75//21 105//21
f 76//22 78//23 106//23
f 79//24 81//25 107//25
f 82//26 84//27 108//27
f 85//6 87//28 109//28
f 88//29 90//30 110//30
f 91//31 93//32 111//32
f 94//33 96//34 112//34
f 113//2 114//2 115//2
f 113//2 115//2 116//2
f 113//2 116//2 117//2
f 113//2 117//2 118//2
f 113//2 118//2 119//2
f 113//2 119//2 120//2
f 113//2 120//2 121//2
f 113//2 121//2 122//2
f 113//2 122//2 123//2
f 113//2 123//2 124//2
f 113//2 124//2 125//2
f 113//2 125//2 126//2
f 113//2 126//2 127//2
f 113//2 127//2 128//2
f 113//2 128//2 129//2
f 113//2 129//2 114//2
f 46//1 48//1 2//1
f 130//1 3//1 48//1
f 2//1 48//1 3//1
f 1//1 3//1 5//1
f 130//1 6//1 3//1
f 5//1 3//1 6//1
f 4//1 6//1 8//1
f 130//1 9//1 6//1
f 8//1 6//1 9//1
f 7//1 9//1 11//1
f 130//1 12//1 9//1
f 11//1 9//1 12//1
f 10//1 12//1 14//1
f 130//1 15//1 12//1
f 14//1 12//1 15//1
f 13//1 15//1 17//1
f 130//1 18//1 15//1
f 17//1 15//1 18//1
f 16//1 18//1 20//1
f 130//1 21//1 18//1
f 20//1 18//1 21//1
f 19//1 21//1 23//1
f 130//1 24//1 21//1
f 23//1 21//1 24//1
f 22//1 24//1 26//1
f 130//1 27//1 24//1
f 26//1 24//1 27//1
f 25//1 27//1 29//1
f 130//1 30//1 27//1
f 29//1 27//1 30//1
f 28//1 30//1 32//1
f 130//1 33//1 30//1
f 32//1 30//1 33//1
f 31//1 33//1 35//1
f 130//1 36//1 33//1
f 35//1 33//1 36//1
f 34//1 36//1 38//1
f 130//1 39//1 36//1
f 38//1 36//1 39//1
f 37//1 39//1 41//1
f 130//1 42//1 39//1
f 41//1 39//1 42//1
f 40//1 42//1 44//1
f 130//1 45//1 42//1
f 44//1 42//1 45//1
f 43//1 45//1 47//1
f 130//1 48//1 45//1
f 47//1 45//1 48//1
f 46//4 2//7 50//4
f 1//8 51//7 2//7
f 50//4 2//7 51//7
f 1//8 5//9 53//8
f 4//10 54//9 5//9
f 53//8 5//9 54//9
f 4//10 8//11 56//10
f 7//12 57//11 8//11
f 56//10 8//11 57//11
f 7//12 11//13 59//12
f 10//3 60//13 11//13
f 59//12 11//13 60//13
f 10//3 14//14 62//3
f 13//15 63//14 14//14
f 62//3 14//14 63//14
f 13//15 17//16 65//15
f 16//17 66//16 17//16
f 65//15 17//16 66//16
f 16//17 20//18 68//17
f 19//19 69//18 20//18
f 68//17 20//18 69//18
f 19//19 23//20 71//19
f 22//5 72//20 23//20
f 71//19 23//20 72//20
f 22//5 26//21 74//5
f 25//22 75//21 26//21
f 74//5 26//21 75//21
f 25//22 29//23 77//22
f 28//24 78//23 29//23
f 77//22 29//23 78//23
f 28//24 32//25 80//24
f 31//26 81//25 32//25
f 80//24 32//25 81//25
f 31//26 35//27 83//26
f 34//6 84//27 35//27
f 83//26 35//27 84//27
f 34//6 38//28 86//6
f 37//29 87//28 38//28
f 86//6 38//28 87//28
f 37//29 41//30 89//29
f 40//31 90//30 41//30
f 89//29 41//30 90//30
f 40//31 44//32 92//31
f 43//33 93//32 44//32
f 92//31 44//32 93//32
f 43//33 47//34 95//33
f 46//4 96//34 47//34
f 95//33 47//34 96//34
f 1//8 53//8 51//7
f 52//8 97//7 53//8
f 51//7 53//8 97//7
f 4//10 56//10 54//9
f 55//10 98//9 56//10
f 54//9 56//10 98//9
f 7//12 59//12 57//11
f 58//12 99//11 59//12
f 57//11 59//12 99//11
f 10//3 62//3 60//13
f 61//3 100//13 62//3
f 60//13 62//3 100//13
f 13//15 65//15 63//14
f 64//15 101//14 65//15
f 63//14 65//15 101//14
f 16//17 68//17 66//16
f 67//17 102//16 68//17
f 66//16 68//17 102//16
f 19//19 71//19 69//18
f 70//19 103//18 71//19
f 69//18 71//19 103//18
f 22//5 74//5 72//20
f 73//5 104//20 74//5
f 72//20 74//5 104//20
f 25//22 77//22 75//21
f 76//22 105//21 77//22
f 75//21 77//22 105//21
f 28//24 80//24 78//23
f 79//24 106//23 80//24
f 78//23 80//24 106//23
f 31//26 83//26 81//25
f 82//26 107//25 83//26
f 81//25 83//26 107//25
f 34//6 86//6 84//27
f 85//6 108//27 86//6
f 84//27 86//6 108//27
f 37//29 89//29 87//28
f 88//29 109//28 89//29
f 87//28 89//29 109//28
f 40//31 92//31 90//30
f 91//31 110//30 92//31
f 90//30 92//31 110//30
f 43//33 95//33 93//32
f 94//33 111//32 95//33
f 93//32 95//33 111//32
f 46//4 50//4 96//34
f 49//4 112//34 50//4
f 96//34 50//4 112//34
f 49//2 97//2 114//2
f 52//2 115//2 97//2
f 114//2 97//2 115//2
f 52//2 98//2 115//2
f 55//2 116//2 98//2
f 115//2 98//2 116//2
f 55//2 99//2 116//2
f 58//2 117//2 99//2
f 116//2 99//2 117//2
f 58//2 100//2 117//2
f 61//2 118//2 100//2
f 117//2 100//2 118//2
f 61//2 101//2 118//2
f 64//2 119//2 101//2
f 118//2 101//2 119//2
f 64//2 102//2 119//2
f 67//2 120//2 102//2
f 119//2 102//2 120//2
f 67//2 103//2 120//2
f 70//2 121//2 103//2
f 120//2 103//2 121//2
f 70//2 104//2 121//2
f 73//2 122//2 104//2
f 121//2 104//2 122//2
f 73//2 105//2 122//2
f 76//2 123//2 105//2
f 122//2 105//2 123//2
f 76//2 106//2 123//2
f 79//2 124//2 106//2
f 123//2 106//2 124//2
f 79//2 107//2 124//2
f 82//2 125//2 107//2
f 124//2 107//2 125//2
f 82//2 108//2 125//2
f 85//2 126//2 108//2
f 125//2 108//2 126//2
f 85//2 109//2 126//2
f 88//2 127//2 109//2
f 126//2 109//2 127//2
f 88//2 110//2 127//2
f 91//2 128//2 110//2
f 127//2 110//2 128//2
f 91//2 111//2 128//2
f 94//2 129//2 111//2
f 128//2 111//2 129//2
f 94//2 112//2 129//2
f 49//2 114//2 112//2
f 129//2 112//2 114//2
