################################
# OBJ generated by split_obj.py
################################
# Faces:    12
# Vertices: 8
# Normals:  6
# UVs:      4
################################

# vertices

v 1478.020300 19.998890 861.425540
v 1478.020300 42.497643 861.425540
v 1511.520300 42.497643 861.425540
v 1511.520300 19.998890 861.425540
v 1478.020300 19.998890 861.925500
v 1511.520300 19.998890 861.925500
v 1511.520300 42.497643 861.925500
v 1478.020300 42.497643 861.925500

# normals

vn 0 1 0
vn 0 -1 0
vn 1 0 0
vn 0 0 -1
vn 0 0 1
vn -1 0 0

# uvs

vt 1 0
vt 0 0
vt 0 1
vt 1 1

# faces

f 1/1/4 2/4/4 3/3/4
f 1/1/4 3/3/4 4/2/4
f 5/2/5 6/1/5 7/4/5
f 5/2/5 7/4/5 8/3/5
f 1/2/2 4/1/2 6/4/2
f 1/2/2 6/4/2 5/3/2
f 4/2/3 3/1/3 7/4/3
f 4/2/3 7/4/3 6/3/3
f 3/2/1 2/1/1 8/4/1
f 3/2/1 8/4/1 7/3/1
f 2/2/6 1/1/6 5/4/6
f 2/2/6 5/4/6 8/3/6
