################################
# OBJ generated by split_obj.py
################################
# Faces:    72
# Vertices: 25
# Normals:  47
# UVs:      0
################################

# vertices

v 1569.076700 168.226460 832.956500
v 1576.079500 168.226460 831.082200
v 1574.203100 168.226460 827.835750
v 1576.079500 168.226460 834.830800
v 1574.203100 168.226460 838.077200
v 1570.953100 168.226460 839.951540
v 1567.200300 168.226460 839.951540
v 1563.950200 168.226460 838.077200
v 1562.073900 168.226460 834.830800
v 1562.073900 168.226460 831.082200
v 1563.950200 168.226460 827.835750
v 1567.200300 168.226460 825.961400
v 1570.953100 168.226460 825.961400
v 1580.156500 176.536220 829.990970
v 1577.187600 176.536220 824.854500
v 1580.156500 176.536220 835.922060
v 1577.187600 176.536220 841.058500
v 1572.045500 176.536220 844.024050
v 1566.107800 176.536220 844.024050
v 1560.965700 176.536220 841.058500
v 1557.996800 176.536220 835.922060
v 1557.996800 176.536220 829.990970
v 1560.965700 176.536220 824.854500
v 1566.107800 176.536220 821.889000
v 1572.045500 176.536220 821.889000

# normals

vn 0 1 0
vn 0 -1 0
vn 0.44929 -0.44036 0.77732
vn 0.44928 -0.44036 0.77732
vn 0.44928 -0.44036 -0.77732
vn 0 -0.44046 0.89777
vn 0 -0.44046 0.89777
vn 0.77783 -0.44017 -0.44859
vn -0.44928 -0.44036 0.77732
vn -0.44928 -0.44036 0.77732
vn -0.77783 -0.44017 0.44858
vn -0.77783 -0.44017 0.44858
vn -0.89796 -0.44007 -0
vn 0.89796 -0.44007 0
vn 0.44928 -0.44036 -0.77732
vn -0.89796 -0.44007 -0
vn -0.77783 -0.44017 -0.44858
vn 0.77783 -0.44017 0.44859
vn -0.77783 -0.44017 -0.44858
vn -0.44928 -0.44036 -0.77732
vn -0.44928 -0.44036 -0.77732
vn 0.77783 -0.44017 0.44859
vn 0 -0.44046 -0.89777
vn -3.4e-06 -0.44046 -0.89777
vn 0.77783 -0.44017 -0.44859
vn -0.77783 0.44017 0.44859
vn -0.77783 0.44017 0.44859
vn -0.89796 0.44007 0
vn -0.77783 0.44017 -0.44859
vn -0.77783 0.44017 -0.44859
vn -0.44928 0.44036 -0.77732
vn -0.44929 0.44036 -0.77732
vn 0 0.44046 -0.89777
vn 0.44928 0.44036 -0.77732
vn 0.44928 0.44036 -0.77732
vn 0.77783 0.44017 -0.44858
vn 0.77783 0.44017 -0.44858
vn 0.89796 0.44007 0
vn 0.89796 0.44007 0
vn 0.77783 0.44017 0.44858
vn 0.77783 0.44017 0.44858
vn 0.44928 0.44036 0.77732
vn 0.44928 0.44036 0.77732
vn 3.4e-06 0.44046 0.89777
vn 0 0.44046 0.89777
vn -0.44928 0.44036 0.77732
vn -0.44928 0.44036 0.77732

# uvs



# faces

f 1//1 2//1 3//1
f 1//1 4//1 2//1
f 1//1 5//1 4//1
f 1//1 6//1 5//1
f 1//1 7//1 6//1
f 1//1 8//1 7//1
f 1//1 9//1 8//1
f 1//1 10//1 9//1
f 1//1 11//1 10//1
f 1//1 12//1 11//1
f 1//1 13//1 12//1
f 13//1 1//1 3//1
f 2//26 14//26 15//26
f 2//27 15//27 3//27
f 4//28 16//28 14//28
f 4//28 14//28 2//28
f 5//29 17//29 16//29
f 5//30 16//30 4//30
f 6//31 18//31 17//31
f 6//32 17//32 5//32
f 7//33 19//33 18//33
f 7//33 18//33 6//33
f 8//34 20//34 19//34
f 8//35 19//35 7//35
f 9//36 21//36 20//36
f 9//37 20//37 8//37
f 10//38 22//38 21//38
f 10//39 21//39 9//39
f 11//40 23//40 22//40
f 11//41 22//41 10//41
f 12//42 24//42 23//42
f 12//43 23//43 11//43
f 13//44 25//44 24//44
f 13//45 24//45 12//45
f 3//46 15//46 25//46
f 3//47 25//47 13//47
f 1//2 3//2 2//2
f 1//2 2//2 4//2
f 1//2 4//2 5//2
f 1//2 5//2 6//2
f 1//2 6//2 7//2
f 1//2 7//2 8//2
f 1//2 8//2 9//2
f 1//2 9//2 10//2
f 1//2 10//2 11//2
f 1//2 11//2 12//2
f 1//2 12//2 13//2
f 3//2 1//2 13//2
f 2//25 3//25 15//25
f 2//8 15//8 14//8
f 4//14 2//14 14//14
f 4//14 14//14 16//14
f 5//22 4//22 16//22
f 5//18 16//18 17//18
f 6//3 5//3 17//3
f 6//4 17//4 18//4
f 7//6 6//6 18//6
f 7//7 18//7 19//7
f 8//9 7//9 19//9
f 8//10 19//10 20//10
f 9//11 8//11 20//11
f 9//12 20//12 21//12
f 10//13 9//13 21//13
f 10//16 21//16 22//16
f 11//17 10//17 22//17
f 11//19 22//19 23//19
f 12//20 11//20 23//20
f 12//21 23//21 24//21
f 13//23 12//23 24//23
f 13//24 24//24 25//24
f 3//15 13//15 25//15
f 3//5 25//5 15//5
