################################
# OBJ generated by split_obj.py
################################
# Faces:    192
# Vertices: 128
# Normals:  164
# UVs:      0
################################

# vertices

v 193.414220 81.375990 811.862700
v 193.414220 81.077890 811.476260
v 193.414220 80.737790 811.189200
v 193.414220 80.368774 811.012450
v 193.414220 79.985030 810.952700
v 193.414220 79.601250 811.012450
v 193.414220 79.232230 811.189200
v 193.414220 78.892180 811.476260
v 193.414220 78.594080 811.862700
v 193.414220 78.349434 812.333440
v 193.414220 78.167670 812.870600
v 193.414220 78.055750 813.453400
v 193.414220 78.017950 814.059500
v 193.414220 78.055750 814.665600
v 193.414220 78.167670 815.248350
v 193.414220 78.349434 815.785500
v 193.414220 78.594080 816.256350
v 193.414220 78.892180 816.642700
v 193.414220 79.232230 816.929800
v 193.414220 79.601250 817.106570
v 193.414220 79.985030 817.166260
v 193.414220 80.368774 817.106570
v 193.414220 80.737790 816.929800
v 193.414220 81.077890 816.642700
v 193.414220 81.375990 816.256350
v 193.414220 81.620636 815.785500
v 193.414220 81.802400 815.248500
v 193.414220 81.914320 814.665650
v 193.414220 81.952120 814.059500
v 193.414220 81.914320 813.453400
v 193.414220 81.802400 812.870600
v 193.414220 81.620636 812.333440
v 178.993770 81.077890 811.476260
v 178.993770 81.375990 811.862700
v 178.993770 80.737790 811.189200
v 178.993770 80.368774 811.012450
v 178.993770 79.985030 810.952700
v 178.993770 79.601295 811.012450
v 178.993770 79.232280 811.189200
v 178.993770 78.892180 811.476260
v 178.993770 78.594080 811.862700
v 178.993770 78.349434 812.333440
v 178.993770 78.167670 812.870600
v 178.993770 78.055750 813.453400
v 178.993770 78.017950 814.059500
v 178.993770 78.055750 814.665600
v 178.993770 78.167670 815.248350
v 178.993770 78.349434 815.785500
v 178.993770 78.594080 816.256350
v 178.993770 78.892180 816.642700
v 178.993770 79.232280 816.929800
v 178.993770 79.601295 817.106570
v 178.993770 79.985030 817.166260
v 178.993770 80.368820 817.106570
v 178.993770 80.737840 816.929800
v 178.993770 81.077890 816.642700
v 178.993770 81.375990 816.256350
v 178.993770 81.620636 815.785500
v 178.993770 81.802400 815.248350
v 178.993770 81.914320 814.665600
v 178.993770 81.952120 814.059500
v 178.993770 81.914320 813.453370
v 178.993770 81.802400 812.870540
v 178.993770 81.620636 812.333440
v 178.849720 80.966500 811.739560
v 178.849720 81.234215 812.086550
v 193.558270 81.234215 812.086550
v 193.558270 80.966500 811.739560
v 178.849720 80.661080 811.481750
v 193.558270 80.661080 811.481750
v 178.849720 80.329680 811.323060
v 193.558270 80.329680 811.323060
v 178.849720 79.985030 811.269400
v 193.558270 79.985030 811.269400
v 178.849720 79.640380 811.323060
v 193.558270 79.640380 811.323060
v 178.849720 79.308990 811.481750
v 193.558270 79.308990 811.481750
v 178.849720 79.003560 811.739560
v 193.558270 79.003560 811.739560
v 178.849720 78.735855 812.086550
v 193.558270 78.735855 812.086550
v 178.849720 78.516160 812.509400
v 193.558270 78.516160 812.509400
v 178.849720 78.352910 812.991760
v 193.558270 78.352910 812.991760
v 178.849720 78.252420 813.515140
v 193.558270 78.252420 813.515140
v 178.849720 78.218450 814.059500
v 193.558270 78.218450 814.059500
v 178.849720 78.252420 814.603800
v 193.558270 78.252420 814.603800
v 178.849720 78.352910 815.127200
v 193.558270 78.352910 815.127200
v 178.849720 78.516160 815.609600
v 193.558270 78.516160 815.609600
v 178.849720 78.735855 816.032400
v 193.558270 78.735855 816.032400
v 178.849720 79.003560 816.379400
v 193.558270 79.003560 816.379400
v 178.849720 79.308990 816.637200
v 193.558270 79.308990 816.637200
v 178.849720 79.640380 816.795960
v 193.558270 79.640380 816.795960
v 178.849720 79.985030 816.849600
v 193.558270 79.985030 816.849600
v 178.849720 80.329680 816.795960
v 193.558270 80.329680 816.795960
v 178.849720 80.661080 816.637200
v 193.558270 80.661080 816.637200
v 178.849720 80.966500 816.379400
v 193.558270 80.966500 816.379400
v 178.849720 81.234215 816.032400
v 193.558270 81.234170 816.032400
v 178.849720 81.453910 815.609600
v 193.558270 81.453865 815.609600
v 178.849720 81.617160 815.127200
v 193.558270 81.617160 815.127200
v 178.849720 81.717650 814.603800
v 193.558270 81.717650 814.603800
v 178.849720 81.751620 814.059500
v 193.558270 81.751620 814.059500
v 178.849720 81.717650 813.515140
v 193.558270 81.717650 813.515140
v 178.849720 81.617160 812.991760
v 193.558270 81.617160 812.991760
v 178.849720 81.453910 812.509400
v 193.558270 81.453910 812.509400

# normals

vn 0 0 -1
vn 0 0 1
vn 0 -0.53495 0.84488
vn -0.84952 0.218 -0.48041
vn -0.84418 0.19634 -0.49881
vn -0.86112 0.25929 -0.43732
vn -0.86725 0.27887 -0.41243
vn 0.86111 0.25929 -0.43732
vn 0.86725 0.27887 -0.41243
vn 0.84952 0.218 -0.48041
vn 0.84418 0.19634 -0.49881
vn -0.83488 0.15181 -0.52909
vn -0.83099 0.1289 -0.54114
vn 0.83488 0.1518 -0.52909
vn 0.83099 0.1289 -0.54114
vn -0.82504 0.08255 -0.55901
vn -0.82301 0.05902 -0.56496
vn 0.82504 0.082554 -0.55901
vn 0.82301 0.059025 -0.56495
vn -0.82096 0.011872 -0.57087
vn -0.82096 -0.011867 -0.57086
vn 0.82096 0.011867 -0.57086
vn 0.82096 -0.01187 -0.57086
vn -0.82301 -0.059025 -0.56495
vn -0.82504 -0.082554 -0.55901
vn 0.82301 -0.059017 -0.56495
vn 0.82505 -0.082545 -0.55899
vn -0.83099 -0.1289 -0.54114
vn -0.83488 -0.1518 -0.52909
vn 0.83101 -0.12889 -0.54111
vn 0.83489 -0.15181 -0.52906
vn -0.84418 -0.19634 -0.49881
vn -0.84952 -0.218 -0.48041
vn 0.84419 -0.19634 -0.49879
vn 0.84952 -0.21801 -0.48041
vn -0.86111 -0.25929 -0.43732
vn -0.86725 -0.27887 -0.41243
vn 0.86112 -0.25929 -0.43732
vn 0.86725 -0.27887 -0.41243
vn -0.87961 -0.31495 -0.3565
vn -0.88565 -0.33134 -0.32533
vn 0.87961 -0.31495 -0.35651
vn 0.88565 -0.33134 -0.32533
vn -0.89677 -0.35983 -0.25754
vn -0.90166 -0.37177 -0.2209
vn 0.89677 -0.35983 -0.25753
vn 0.90166 -0.37177 -0.22089
vn -0.90946 -0.39016 -0.14372
vn -0.91221 -0.39648 -0.10332
vn 0.90946 -0.39016 -0.14373
vn 0.91221 -0.39648 -0.10333
vn -0.91502 -0.40286 -0.020898
vn -0.91502 -0.40286 0.02089
vn 0.91502 -0.40286 -0.02089
vn 0.91502 -0.40286 0.020898
vn -0.91221 -0.39648 0.10333
vn -0.90946 -0.39016 0.14373
vn 0.91221 -0.39648 0.10332
vn 0.90946 -0.39016 0.14372
vn -0.90166 -0.37177 0.22089
vn -0.89677 -0.35983 0.25753
vn 0.90166 -0.37177 0.2209
vn 0.89677 -0.35983 0.25754
vn -0.88565 -0.33134 0.32533
vn -0.87961 -0.31495 0.35651
vn 0.88565 -0.33134 0.32533
vn 0.87961 -0.31495 0.3565
vn -0.86725 -0.27887 0.41243
vn -0.86112 -0.25929 0.43732
vn 0.86725 -0.27887 0.41243
vn 0.86111 -0.25929 0.43732
vn -0.84952 -0.218 0.48041
vn -0.84418 -0.19634 0.49881
vn 0.84952 -0.218 0.48041
vn 0.84419 -0.19634 0.49879
vn -0.83488 -0.15181 0.52909
vn -0.83099 -0.1289 0.54114
vn 0.83489 -0.1518 0.52907
vn 0.83101 -0.1289 0.54111
vn -0.82504 -0.08255 0.55901
vn -0.82301 -0.05902 0.56496
vn 0.82505 -0.082551 0.55899
vn 0.82302 -0.059021 0.56494
vn -0.82096 -0.011873 0.57087
vn -0.82096 0.011866 0.57086
vn 0.82096 -0.011866 0.57086
vn 0.82096 0.011873 0.57087
vn -0.82302 0.059021 0.56494
vn -0.82505 0.082551 0.55899
vn 0.82301 0.05902 0.56496
vn 0.82504 0.08255 0.55901
vn -0.83101 0.1289 0.54111
vn -0.83489 0.1518 0.52907
vn 0.83099 0.1289 0.54114
vn 0.83488 0.15181 0.52909
vn -0.84419 0.19634 0.49879
vn -0.84952 0.218 0.48041
vn 0.84418 0.19635 0.4988
vn 0.84953 0.218 0.48039
vn -0.86111 0.25929 0.43732
vn -0.86725 0.27887 0.41243
vn 0.86114 0.25928 0.43728
vn 0.86729 0.27884 0.41238
vn -0.87961 0.31495 0.3565
vn -0.88565 0.33134 0.32533
vn 0.87964 0.3149 0.35647
vn 0.88567 0.33129 0.32532
vn -0.89677 0.35983 0.25754
vn -0.90166 0.37177 0.2209
vn 0.89679 0.35979 0.25753
vn 0.90167 0.37174 0.22089
vn -0.90946 0.39016 0.14372
vn -0.91221 0.39648 0.10332
vn 0.90947 0.39014 0.14372
vn 0.91222 0.39647 0.10332
vn -0.91502 0.40286 0.020901
vn -0.91502 0.40286 -0.020887
vn 0.91502 0.40286 0.020887
vn 0.91502 0.40286 -0.020901
vn -0.91222 0.39647 -0.10332
vn -0.90947 0.39014 -0.14372
vn 0.91221 0.39648 -0.10332
vn 0.90946 0.39016 -0.14372
vn -0.90167 0.37174 -0.22089
vn -0.89678 0.35982 -0.25753
vn 0.90166 0.37177 -0.2209
vn 0.89677 0.35983 -0.25754
vn -0.88565 0.33133 -0.32533
vn -0.87961 0.31495 -0.35651
vn 0.88565 0.33134 -0.32533
vn 0.87961 0.31495 -0.3565
vn 0 -0.68785 0.72585
vn 0 -0.83687 0.5474
vn 0 -0.95404 0.29969
vn 0 -0.95404 -0.29969
vn 0 -0.83687 -0.5474
vn -1.3e-06 -0.81316 -0.58204
vn -2.3e-06 -0.71352 -0.70064
vn -3.2e-06 -0.66205 -0.74946
vn -2.7e-06 -0.56013 -0.8284
vn -1.7e-06 -0.51002 -0.86016
vn -7e-07 -0.41325 -0.91062
vn 0 -0.38964 -0.92097
vn 0 -0.25365 -0.9673
vn 0 -0.12495 -0.99216
vn 0 0.12495 -0.99216
vn 0 0.25365 -0.9673
vn 0 0.38961 -0.92098
vn 0 0.53495 -0.84488
vn 0 0.68785 -0.72585
vn 0 0.83687 -0.5474
vn 0 0.95404 -0.29969
vn 0 0.95404 0.29969
vn 0 0.83687 0.5474
vn 0 0.68785 0.72585
vn 0 0.53495 0.84488
vn 0 0.38961 0.92098
vn 0 0.25365 0.9673
vn 0 0.12495 0.99216
vn 0 -0.12495 0.99216
vn 0 -0.25365 0.9673
vn 0 -0.38961 0.92098
vn 0 1 0
vn -0 -1 0

# uvs



# faces

f 33//4 65//5 66//6
f 33//4 66//6 34//7
f 1//8 67//9 68//10
f 1//8 68//10 2//11
f 35//12 69//13 65//5
f 35//12 65//5 33//4
f 2//11 68//10 70//14
f 2//11 70//14 3//15
f 36//16 71//17 69//13
f 36//16 69//13 35//12
f 3//15 70//14 72//18
f 3//15 72//18 4//19
f 37//20 73//21 71//17
f 37//20 71//17 36//16
f 4//19 72//18 74//22
f 4//19 74//22 5//23
f 38//24 75//25 73//21
f 38//24 73//21 37//20
f 5//23 74//22 76//26
f 5//23 76//26 6//27
f 39//28 77//29 75//25
f 39//28 75//25 38//24
f 6//27 76//26 78//30
f 6//27 78//30 7//31
f 40//32 79//33 77//29
f 40//32 77//29 39//28
f 7//31 78//30 80//34
f 7//31 80//34 8//35
f 41//36 81//37 79//33
f 41//36 79//33 40//32
f 8//35 80//34 82//38
f 8//35 82//38 9//39
f 42//40 83//41 81//37
f 42//40 81//37 41//36
f 9//39 82//38 84//42
f 9//39 84//42 10//43
f 43//44 85//45 83//41
f 43//44 83//41 42//40
f 10//43 84//42 86//46
f 10//43 86//46 11//47
f 44//48 87//49 85//45
f 44//48 85//45 43//44
f 11//47 86//46 88//50
f 11//47 88//50 12//51
f 45//52 89//53 87//49
f 45//52 87//49 44//48
f 12//51 88//50 90//54
f 12//51 90//54 13//55
f 46//56 91//57 89//53
f 46//56 89//53 45//52
f 13//55 90//54 92//58
f 13//55 92//58 14//59
f 47//60 93//61 91//57
f 47//60 91//57 46//56
f 14//59 92//58 94//62
f 14//59 94//62 15//63
f 48//64 95//65 93//61
f 48//64 93//61 47//60
f 15//63 94//62 96//66
f 15//63 96//66 16//67
f 49//68 97//69 95//65
f 49//68 95//65 48//64
f 16//67 96//66 98//70
f 16//67 98//70 17//71
f 50//72 99//73 97//69
f 50//72 97//69 49//68
f 17//71 98//70 100//74
f 17//71 100//74 18//75
f 51//76 101//77 99//73
f 51//76 99//73 50//72
f 18//75 100//74 102//78
f 18//75 102//78 19//79
f 52//80 103//81 101//77
f 52//80 101//77 51//76
f 19//79 102//78 104//82
f 19//79 104//82 20//83
f 53//84 105//85 103//81
f 53//84 103//81 52//80
f 20//83 104//82 106//86
f 20//83 106//86 21//87
f 54//88 107//89 105//85
f 54//88 105//85 53//84
f 21//87 106//86 108//90
f 21//87 108//90 22//91
f 55//92 109//93 107//89
f 55//92 107//89 54//88
f 22//91 108//90 110//94
f 22//91 110//94 23//95
f 56//96 111//97 109//93
f 56//96 109//93 55//92
f 23//95 110//94 112//98
f 23//95 112//98 24//99
f 57//100 113//101 111//97
f 57//100 111//97 56//96
f 24//99 112//98 114//102
f 24//99 114//102 25//103
f 58//104 115//105 113//101
f 58//104 113//101 57//100
f 25//103 114//102 116//106
f 25//103 116//106 26//107
f 59//108 117//109 115//105
f 59//108 115//105 58//104
f 26//107 116//106 118//110
f 26//107 118//110 27//111
f 60//112 119//113 117//109
f 60//112 117//109 59//108
f 27//111 118//110 120//114
f 27//111 120//114 28//115
f 61//116 121//117 119//113
f 61//116 119//113 60//112
f 28//115 120//114 122//118
f 28//115 122//118 29//119
f 62//120 123//121 121//117
f 62//120 121//117 61//116
f 29//119 122//118 124//122
f 29//119 124//122 30//123
f 63//124 125//125 123//121
f 63//124 123//121 62//120
f 30//123 124//122 126//126
f 30//123 126//126 31//127
f 64//128 127//129 125//125
f 64//128 125//125 63//124
f 31//127 126//126 128//130
f 31//127 128//130 32//131
f 34//7 66//6 127//129
f 34//7 127//129 64//128
f 32//131 128//130 67//9
f 32//131 67//9 1//8
f 67//3 128//132 127//132
f 67//3 127//132 66//3
f 125//133 127//132 128//132
f 125//133 128//132 126//133
f 123//134 125//133 126//133
f 123//134 126//133 124//134
f 121//164 123//134 124//134
f 121//164 124//134 122//164
f 119//135 121//164 122//164
f 119//135 122//164 120//135
f 117//136 119//135 120//135
f 117//136 120//135 118//137
f 115//138 117//136 118//137
f 115//138 118//137 116//139
f 113//140 115//138 116//139
f 113//140 116//139 114//141
f 111//142 113//140 114//141
f 111//142 114//141 112//143
f 109//144 111//142 112//143
f 109//144 112//143 110//144
f 107//145 109//144 110//144
f 107//145 110//144 108//145
f 105//1 107//145 108//145
f 105//1 108//145 106//1
f 103//146 105//1 106//1
f 103//146 106//1 104//146
f 101//147 103//146 104//146
f 101//147 104//146 102//147
f 99//148 101//147 102//147
f 99//148 102//147 100//148
f 97//149 99//148 100//148
f 97//149 100//148 98//149
f 95//150 97//149 98//149
f 95//150 98//149 96//150
f 93//151 95//150 96//150
f 93//151 96//150 94//151
f 91//152 93//151 94//151
f 91//152 94//151 92//152
f 89//163 91//152 92//152
f 89//163 92//152 90//163
f 87//153 89//163 90//163
f 87//153 90//163 88//153
f 85//154 87//153 88//153
f 85//154 88//153 86//154
f 83//155 85//154 86//154
f 83//155 86//154 84//155
f 81//156 83//155 84//155
f 81//156 84//155 82//156
f 79//157 81//156 82//156
f 79//157 82//156 80//157
f 77//158 79//157 80//157
f 77//158 80//157 78//158
f 75//159 77//158 78//158
f 75//159 78//158 76//159
f 73//2 75//159 76//159
f 73//2 76//159 74//2
f 71//160 73//2 74//2
f 71//160 74//2 72//160
f 69//161 71//160 72//160
f 69//161 72//160 70//161
f 65//162 69//161 70//161
f 65//162 70//161 68//162
f 66//3 65//162 68//162
f 66//3 68//162 67//3
