################################
# OBJ generated by split_obj.py
################################
# Faces:    24
# Vertices: 48
# Normals:  5
# UVs:      4
################################

# vertices

v 1119.500000 250.000000 115.109116
v -1.504990 0.000000 119.278580
v 78.495010 0.000000 119.278580
v 78.495010 250.000000 119.278580
v -1.504990 250.000000 119.278580
v 1571.500000 0.000000 117.809220
v 1651.500000 0.000000 117.809220
v 1651.500000 250.000000 117.809220
v 1571.500000 250.000000 117.809220
v 80.500015 0.000000 1165.309300
v 0.500016 0.000000 1165.309300
v 0.500016 250.000000 1165.309300
v 80.500015 250.000000 1165.309300
v 1653.606600 0.000000 1165.309200
v 1573.606600 0.000000 1165.309200
v 1573.606600 250.000000 1165.309200
v 1653.606600 250.000000 1165.309200
v 1736.250900 0.000000 281.301570
v 1656.250900 0.000000 281.301570
v 1656.250900 250.000000 281.301570
v 1736.250900 250.000000 281.301570
v -81.514510 0.000000 279.006300
v -81.241780 0.000000 199.006740
v -81.241780 250.000000 199.006740
v -81.514510 250.000000 279.006300
v -84.257800 0.000000 1003.836400
v -4.257800 0.000000 1003.836400
v -4.257800 250.000000 1003.836400
v -84.257800 250.000000 1003.836400
v 1733.530300 0.000000 1085.309200
v 1653.530300 0.000000 1085.309200
v 1653.530300 250.000000 1085.309200
v 1733.530300 250.000000 1085.309200
v 1198.500000 0.000000 1165.309200
v 1118.500000 0.000000 1165.309200
v 1118.500000 250.000000 1165.309200
v 1198.500000 250.000000 1165.309200
v 519.500000 0.000000 1165.309300
v 439.500000 0.000000 1165.309300
v 439.500000 250.000000 1165.309300
v 519.500000 250.000000 1165.309300
v 442.500000 0.000000 117.809220
v 522.500000 0.000000 117.809220
v 522.500000 250.000000 117.809220
v 442.500000 250.000000 117.809220
v 1119.500000 0.000000 115.109116
v 1199.500000 0.000000 115.109116
v 1199.500000 250.000000 115.109116

# normals

vn 0 0 1
vn -2e-07 0 -1
vn -0.99999 0 -0.0034091
vn 3e-07 0 1
vn 1e-07 0 -1

# uvs

vt 0 25
vt 2.6667 25
vt 0 0
vt 2.6667 0

# faces

f 34/4/4 37/2/4 36/1/4
f 34/4/4 36/1/4 35/3/4
f 38/4/4 41/2/4 40/1/4
f 38/4/4 40/1/4 39/3/4
f 42/4/5 45/2/5 44/1/5
f 42/4/5 44/1/5 43/3/5
f 46/4/5 1/2/5 48/1/5
f 46/4/5 48/1/5 47/3/5
f 2/4/5 5/2/5 4/1/5
f 2/4/5 4/1/5 3/3/5
f 6/4/5 9/2/5 8/1/5
f 6/4/5 8/1/5 7/3/5
f 10/4/4 13/2/4 12/1/4
f 10/4/4 12/1/4 11/3/4
f 14/4/4 17/2/4 16/1/4
f 14/4/4 16/1/4 15/3/4
f 18/4/1 21/2/1 20/1/1
f 18/4/1 20/1/1 19/3/1
f 22/4/3 25/2/3 24/1/3
f 22/4/3 24/1/3 23/3/3
f 26/4/2 29/2/2 28/1/2
f 26/4/2 28/1/2 27/3/2
f 30/4/4 33/2/4 32/1/4
f 30/4/4 32/1/4 31/3/4
