################################
# OBJ generated by split_obj.py
################################
# Faces:    42
# Vertices: 40
# Normals:  10
# UVs:      26
################################

# vertices

v 1650.466100 250.000000 798.187500
v 1650.466100 0.000000 798.187500
v 1199.500000 0.000000 798.182740
v 1649.500000 0.000000 798.182740
v 1199.500000 250.000000 798.182740
v 1649.500000 250.000000 798.182740
v 1199.500000 0.000000 801.932740
v 1649.500000 0.000000 801.932740
v 1199.500000 250.000000 801.932740
v 1649.500000 250.000000 801.932740
v 1646.716100 0.000000 798.174740
v 1646.716100 250.000000 798.174740
v 1649.500000 0.000000 1081.545200
v 1649.500000 250.000000 1081.545200
v 1645.762800 0.000000 1077.781200
v 1645.762800 250.000000 1077.781200
v 1203.250000 0.000000 798.182740
v 1203.250000 250.000000 798.182740
v 1199.500000 0.000000 914.907400
v 1203.250000 0.000000 914.907400
v 1199.500000 0.000000 1046.907500
v 1203.250000 0.000000 1081.559200
v 1203.250000 0.000000 1046.907500
v 1203.250000 250.000000 914.907400
v 1199.500000 250.000000 914.907400
v 1203.250000 250.000000 1081.559200
v 1203.250000 250.000000 1046.907500
v 1199.500000 250.000000 1046.907500
v 1199.500000 200.000000 1046.907500
v 1203.250000 200.000000 1046.907500
v 1203.250000 200.000000 914.907400
v 1199.500000 200.000000 914.907400
v 1199.500000 0.000000 1081.559200
v 1649.500000 0.000000 1081.559200
v 1199.500000 250.000000 1081.559200
v 1649.500000 250.000000 1081.559200
v 1199.500000 0.000000 1077.809200
v 1645.762800 0.000000 1077.809200
v 1199.500000 250.000000 1077.809200
v 1645.762800 250.000000 1077.809200

# normals

vn 0 1 0
vn 0 -1 0
vn -0.99999 0 -0.0034092
vn 1 0 0
vn 0 0 -1
vn 0 0 1
vn -1 0 0
vn 0.70832 0 -0.7059
vn 0.0034017 0 -0.99999
vn -0.70962 0 0.70458

# uvs

vt 0 0
vt -3.1091 2.5
vt 3.4951 0
vt 3.4951 3.125
vt 0.066301 0
vt 0.066301 3.125
vt 0.046875 0
vt 0.046875 3.125
vt -1.4591 0
vt -1.4591 3.125
vt -3.5422 0
vt -3.1091 0
vt -3.1091 3.125
vt -3.5422 3.125
vt 0.046875 2.5
vt 0 2.5
vt -1.4591 2.5
vt 0.046875 0
vt 0.046875 3.125
vt 0 3.125
vt 0.066178 0
vt 0.066178 3.125
vt 5.5783 0
vt 5.5783 3.125
vt 5.625 0
vt 5.625 3.125

# faces

f 38//2 34//2 33//2
f 38//2 33//2 37//2
f 37/1/7 33/18/7 35/19/7 39/20/7
f 34/1/8 38/21/8 40/22/8 36/20/8
f 38/1/5 37/23/5 39/24/5 40/20/5
f 39//1 35//1 36//1
f 39//1 36//1 40//1
f 4//2 8//2 7//2
f 4//2 7//2 3//2
f 3/1/7 7/18/7 9/19/7 5/20/7
f 7/1/6 8/25/6 10/26/6 9/20/6
f 8/1/4 4/18/4 6/19/4 10/20/4
f 5//1 9//1 10//1
f 5//1 10//1 6//1
f 2//2 13//2 15//2
f 2//2 15//2 11//2
f 11/1/3 15/3/3 16/4/3 12/20/3
f 15/1/10 13/5/10 14/6/10 16/20/10
f 2/1/9 11/7/9 12/8/9 1/20/9
f 12//1 16//1 14//1
f 12//1 14//1 1//1
f 17//2 20//2 19//2
f 17//2 19//2 3//2
f 23//2 22//2 33//2
f 23//2 33//2 21//2
f 19/1/6 20/18/6 24/19/6 25/20/6
f 20/9/4 17/1/4 18/20/4 24/10/4
f 17/1/5 3/18/5 5/19/5 18/20/5
f 33/1/6 22/18/6 26/19/6 35/20/6
f 22/11/4 23/12/4 27/13/4 26/14/4
f 23/1/5 21/18/5 28/19/5 27/20/5
f 29/16/6 30/15/6 27/19/6 28/20/6
f 30/2/4 31/17/4 24/10/4 27/13/4
f 31/16/5 32/15/5 25/19/5 24/20/5
f 31//2 30//2 29//2
f 31//2 29//2 32//2
f 5//1 25//1 24//1
f 5//1 24//1 18//1
f 28//1 35//1 26//1
f 28//1 26//1 27//1
f 25//1 28//1 27//1
f 25//1 27//1 24//1
