################################
# OBJ generated by split_obj.py
################################
# Faces:    12
# Vertices: 8
# Normals:  9
# UVs:      4
################################

# vertices

v 82.729860 143.000000 794.432740
v 82.729860 86.500030 794.432740
v 140.729840 86.500030 794.432740
v 140.729840 143.000020 794.432740
v 82.729840 142.999980 792.468200
v 140.729840 143.000000 792.468200
v 140.729840 86.500040 792.468200
v 82.729890 86.500010 792.468200

# normals

vn 1e-07 0 -1
vn -1e-07 0 1
vn 1 0 1e-07
vn -1 -7e-07 8.26e-05
vn -1 0 -8.28e-05
vn 5e-07 -1 8.49e-05
vn 0 -1 -1.06e-05
vn -1e-07 1 -6.37e-05
vn -2e-07 1 -4.24e-05

# uvs

vt 1 0
vt 0 0
vt 0 1
vt 1 1

# faces

f 1/4/2 2/3/2 3/2/2
f 1/4/2 3/2/2 4/1/2
f 5/4/1 6/3/1 7/2/1
f 5/4/1 7/2/1 8/1/1
f 1/4/4 5/3/4 8/2/4
f 1/4/5 8/2/5 2/1/5
f 2/4/6 8/3/6 7/2/6
f 2/4/7 7/2/7 3/1/7
f 3/4/3 7/3/3 6/2/3
f 3/4/3 6/2/3 4/1/3
f 5/4/8 1/3/8 4/2/8
f 5/4/9 4/2/9 6/1/9
