################################
# OBJ generated by split_obj.py
################################
# Faces:    72
# Vertices: 25
# Normals:  23
# UVs:      0
################################

# vertices

v 1592.964600 167.388750 832.956500
v 1594.726400 167.388750 832.484900
v 1594.254400 167.388750 831.668150
v 1594.726400 167.388750 833.428040
v 1594.254400 167.388750 834.244800
v 1593.436600 167.388750 834.716400
v 1592.492600 167.388750 834.716400
v 1591.674900 167.388750 834.244800
v 1591.202800 167.388750 833.428040
v 1591.202800 167.388750 832.484900
v 1591.674900 167.388750 831.668150
v 1592.492600 167.388750 831.196600
v 1593.436600 167.388750 831.196600
v 1595.752200 174.130890 832.210400
v 1595.005200 174.130890 830.918100
v 1595.752200 174.130890 833.702640
v 1595.005200 174.130890 834.994900
v 1593.711500 174.130890 835.740970
v 1592.217700 174.130890 835.740970
v 1590.924000 174.130890 834.994930
v 1590.177000 174.130890 833.702640
v 1590.177000 174.130890 832.210400
v 1590.924000 174.130890 830.918150
v 1592.217700 174.130890 830.172000
v 1593.711500 174.130890 830.172000

# normals

vn 0 1 0
vn -0.85642 0.15028 0.49392
vn -0.85643 0.15028 0.49391
vn -0.98865 0.15024 0
vn -0.85642 0.15028 -0.49392
vn -0.85643 0.15028 -0.49391
vn -0.49473 0.15036 -0.85594
vn -0.49472 0.15036 -0.85595
vn 0 0.1504 -0.98862
vn 0 0.1504 -0.98862
vn 0.49472 0.15037 -0.85595
vn 0.49473 0.15036 -0.85594
vn 0.85643 0.15028 -0.49391
vn 0.85643 0.15028 -0.49391
vn 0.98865 0.15024 0
vn 0.85643 0.15028 0.49391
vn 0.85643 0.15028 0.49391
vn 0.49474 0.15037 0.85593
vn 0.49473 0.15036 0.85594
vn 0 0.15041 0.98862
vn 0 0.15041 0.98862
vn -0.49473 0.15036 0.85594
vn -0.49472 0.15037 0.85595

# uvs



# faces

f 1//1 2//1 3//1
f 1//1 4//1 2//1
f 1//1 5//1 4//1
f 1//1 6//1 5//1
f 1//1 7//1 6//1
f 1//1 8//1 7//1
f 1//1 9//1 8//1
f 1//1 10//1 9//1
f 1//1 11//1 10//1
f 1//1 12//1 11//1
f 1//1 13//1 12//1
f 13//1 1//1 3//1
f 2//2 14//2 15//2
f 2//3 15//3 3//3
f 4//4 16//4 14//4
f 4//4 14//4 2//4
f 5//5 17//5 16//5
f 5//6 16//6 4//6
f 6//7 18//7 17//7
f 6//8 17//8 5//8
f 7//9 19//9 18//9
f 7//10 18//10 6//10
f 8//11 20//11 19//11
f 8//12 19//12 7//12
f 9//13 21//13 20//13
f 9//14 20//14 8//14
f 10//15 22//15 21//15
f 10//15 21//15 9//15
f 11//16 23//16 22//16
f 11//17 22//17 10//17
f 12//18 24//18 23//18
f 12//19 23//19 11//19
f 13//20 25//20 24//20
f 13//21 24//21 12//21
f 3//22 15//22 25//22
f 3//23 25//23 13//23
f 1//1 2//1 3//1
f 1//1 4//1 2//1
f 1//1 5//1 4//1
f 1//1 6//1 5//1
f 1//1 7//1 6//1
f 1//1 8//1 7//1
f 1//1 9//1 8//1
f 1//1 10//1 9//1
f 1//1 11//1 10//1
f 1//1 12//1 11//1
f 1//1 13//1 12//1
f 13//1 1//1 3//1
f 2//2 14//2 15//2
f 2//3 15//3 3//3
f 4//4 16//4 14//4
f 4//4 14//4 2//4
f 5//5 17//5 16//5
f 5//6 16//6 4//6
f 6//7 18//7 17//7
f 6//8 17//8 5//8
f 7//9 19//9 18//9
f 7//10 18//10 6//10
f 8//11 20//11 19//11
f 8//12 19//12 7//12
f 9//13 21//13 20//13
f 9//14 20//14 8//14
f 10//15 22//15 21//15
f 10//15 21//15 9//15
f 11//16 23//16 22//16
f 11//17 22//17 10//17
f 12//18 24//18 23//18
f 12//19 23//19 11//19
f 13//20 25//20 24//20
f 13//21 24//21 12//21
f 3//22 15//22 25//22
f 3//23 25//23 13//23
