################################
# OBJ generated by split_obj.py
################################
# Faces:    80
# Vertices: 48
# Normals:  6
# UVs:      0
################################

# vertices

v 1210.795200 100.932945 863.761900
v 1210.795200 110.576920 857.202940
v 1210.795200 100.932945 857.202940
v 1227.686400 110.576920 857.202940
v 1227.686400 100.932945 857.202940
v 1204.607900 164.619860 857.154300
v 1235.566800 164.619860 857.154300
v 1235.566800 110.327930 857.154300
v 1204.607900 110.327930 857.154300
v 1235.566800 78.672920 857.154300
v 1235.566800 78.672920 863.483460
v 1235.566800 1.745219 863.483460
v 1235.566800 1.745219 857.154300
v 1204.607900 164.619860 863.483460
v 1235.566800 164.619860 863.483460
v 1204.607900 110.327930 863.483460
v 1204.607900 1.745219 863.483460
v 1204.607900 1.745219 857.154300
v 1227.755500 78.672920 863.483460
v 1210.769200 78.672920 863.483460
v 1204.607900 78.672920 863.483460
v 1204.607900 78.672920 857.154300
v 1210.769200 110.327930 863.483460
v 1227.755500 110.327930 863.483460
v 1235.566800 110.327930 863.483460
v 1210.769200 110.327930 858.124400
v 1210.769200 78.672920 858.124400
v 1227.755500 78.672920 858.124400
v 1227.755500 110.327930 858.124400
v 1279.649900 167.000000 801.932740
v 1279.649900 167.000000 857.912700
v 1279.649900 -0.000000 857.912700
v 1279.649900 -0.000000 801.932740
v 1203.250000 167.000000 857.912700
v 1203.250000 -0.000000 857.912700
v 1203.250000 167.000000 801.932740
v 1203.250000 -0.000000 801.932740
v 1227.686400 100.932945 863.761900
v 1235.646100 164.628900 857.412350
v 1277.451700 164.628900 857.412350
v 1277.451700 1.824444 857.412350
v 1235.646100 1.824444 857.412350
v 1277.451700 164.628900 863.543460
v 1277.451700 1.824444 863.543460
v 1235.646100 164.628900 863.543460
v 1235.646100 1.824444 863.543460
v 1210.795200 110.576920 863.761900
v 1227.686400 110.576920 863.761900

# normals

vn 0 1 0
vn 0 -1 0
vn 1 0 0
vn 0 0 -1
vn 0 0 1
vn -1 0 0

# uvs



# faces

f 6//4 7//4 8//4
f 8//4 9//4 6//4
f 10//3 11//3 12//3
f 12//3 13//3 10//3
f 6//1 14//1 15//1
f 15//1 7//1 6//1
f 9//6 16//6 14//6
f 14//6 6//6 9//6
f 13//2 12//2 17//2
f 17//2 18//2 13//2
f 11//3 19//3 20//3
f 20//5 21//5 17//5
f 17//5 12//5 11//5
f 11//5 20//5 17//5
f 9//6 22//6 21//6
f 21//6 16//6 9//6
f 23//3 24//3 25//3
f 25//5 15//5 14//5
f 14//5 16//5 23//5
f 23//5 25//5 14//5
f 8//3 7//3 15//3
f 15//3 25//3 8//3
f 8//4 10//4 22//4
f 22//4 9//4 8//4
f 22//6 18//6 17//6
f 17//6 21//6 22//6
f 10//3 8//3 25//3
f 25//3 11//3 10//3
f 10//4 13//4 18//4
f 18//4 22//4 10//4
f 20//5 23//5 16//5
f 16//5 21//5 20//5
f 26//5 27//5 28//5
f 28//5 29//5 26//5
f 19//5 11//5 25//5
f 25//5 24//5 19//5
f 27//3 26//3 23//3
f 23//3 20//3 27//3
f 28//1 27//1 20//1
f 20//1 19//1 28//1
f 29//6 28//6 19//6
f 19//6 24//6 29//6
f 26//2 29//2 24//2
f 24//2 23//2 26//2
f 30//3 31//3 32//3
f 32//3 33//3 30//3
f 31//5 34//5 35//5
f 35//5 32//5 31//5
f 30//1 36//1 34//1
f 34//1 31//1 30//1
f 33//4 37//4 36//4
f 36//4 30//4 33//4
f 32//2 35//2 37//2
f 37//2 33//2 32//2
f 34//6 36//6 37//6
f 37//6 35//6 34//6
f 2//4 4//4 5//4
f 5//4 3//4 2//4
f 4//3 48//3 38//3
f 38//3 5//3 4//3
f 2//1 47//1 48//1
f 48//1 4//1 2//1
f 3//6 1//6 47//6
f 47//6 2//6 3//6
f 5//2 38//2 1//2
f 1//2 3//2 5//2
f 48//5 47//5 1//5
f 1//5 38//5 48//5
f 39//4 40//4 41//4
f 41//4 42//4 39//4
f 40//3 43//3 44//3
f 44//3 41//3 40//3
f 39//1 45//1 43//1
f 43//1 40//1 39//1
f 42//6 46//6 45//6
f 45//6 39//6 42//6
f 41//2 44//2 46//2
f 46//2 42//2 41//2
f 43//5 45//5 46//5
f 46//5 44//5 43//5
