################################
# OBJ generated by split_obj.py
################################
# Faces:    63
# Vertices: 54
# Normals:  16
# UVs:      38
################################

# vertices

v 439.499970 208.500000 941.932740
v 435.749970 0.000000 941.932740
v 0.466056 250.000000 798.182740
v 435.749970 0.000000 1081.559200
v 435.749970 250.000000 941.932740
v 435.749970 250.000000 1081.559200
v 435.749970 250.000000 1073.932700
v 435.749970 208.500000 941.932740
v 435.749970 208.500000 1073.932700
v -0.500000 0.000000 798.182740
v 439.500000 0.000000 798.182740
v -0.500000 250.000000 798.182740
v -0.155257 250.000000 980.434750
v 439.500000 250.000000 798.182740
v -0.500000 0.000000 801.932740
v 439.500000 0.000000 801.932740
v -0.500000 250.000000 801.932740
v 439.500000 250.000000 801.932740
v -0.155257 20.000000 980.434750
v 0.417467 0.000000 812.435700
v 0.466056 0.000000 798.182740
v -0.500000 0.000000 1081.559300
v -0.155257 0.000000 980.434750
v 439.500000 0.000000 1081.559300
v 0.417467 250.000000 812.435700
v -0.500000 250.000000 1081.559300
v 439.500000 250.000000 1081.559300
v 3.262806 0.000000 1077.809300
v 439.500000 0.000000 1077.809300
v 3.262806 250.000000 1077.809300
v 439.500000 250.000000 1077.809300
v -0.155257 230.000000 980.434750
v 0.417467 230.000000 812.435700
v 4.167445 0.000000 812.448500
v 4.216035 0.000000 798.195500
v 3.594721 0.000000 980.447500
v 4.167445 250.000000 812.448500
v 4.216035 250.000000 798.195500
v 3.594721 250.000000 980.447500
v 3.594721 20.000000 980.447500
v 4.167445 20.000000 812.448500
v 3.594721 230.000000 980.447500
v 4.167445 230.000000 812.448500
v 0.417467 20.000000 812.435700
v 435.749970 0.000000 1073.932700
v 435.750000 0.000000 798.182740
v 435.750000 250.000000 798.182740
v 439.499970 0.000000 941.932740
v 439.499970 0.000000 1073.932700
v 439.499970 0.000000 1081.559200
v 439.499970 250.000000 941.932740
v 439.499970 250.000000 1081.559200
v 439.499970 250.000000 1073.932700
v 439.499970 208.500000 1073.932700

# normals

vn 0 1 0
vn 0 -1 0
vn 1 0 0
vn 0 0 -1
vn 0 0 1
vn -0.7059 0 -0.70831
vn -1 0 0
vn -1 0 -2e-07
vn 0.0034017 0 -0.99999
vn 0.7059 0 0.70831
vn -0.0034017 0 0.99999
vn 0.99999 0 0.0034091
vn 0.99999 0 0.0034091
vn -0.0034017 0 0.99999
vn 0.99999 0 0.0034091
vn 0.0034017 0 -0.99999

# uvs

vt 0 0
vt 0 3.5211
vt 0.00375 0
vt 0.26536 0
vt 0.27962 0
vt 0.27962 3.5211
vt 0.26536 3.5211
vt 0.00375 0
vt 0.00375 3.5211
vt 0.097362 0
vt 0.097362 3.5211
vt 0.00375 0.28169
vt 0 0.28169
vt 0.26536 0.28169
vt 0.097362 0.28169
vt 0.00375 3.5211
vt 0.43624 0
vt 0.43624 3.5211
vt 0.097362 3.2394
vt 0.26536 3.2394
vt 0.00375 3.2394
vt 0.00375 3.2394
vt 0.14375 2.9366
vt 0.14375 0
vt 0.14375 3.5211
vt 0.00375 0.28169
vt 0.28338 0
vt 0.28338 3.5211
vt 0.27575 3.5211
vt 0.27575 0
vt 0.27575 2.9366
vt 0 2.9366
vt 0.00375 2.9366
vt 0.44 0
vt 0.44 3.5211
vt 0 3.2394
vt 0.0053124 0
vt 0.0053124 3.5211

# faces

f 29//2 24//2 22//2
f 29//2 22//2 28//2
f 28/1/6 22/37/6 26/38/6 30/2/6
f 24/1/3 29/3/3 31/16/3 27/2/3
f 29/1/4 28/17/4 30/18/4 31/2/4
f 30//1 26//1 27//1
f 30//1 27//1 31//1
f 11//2 16//2 15//2
f 11//2 15//2 10//2
f 10/1/7 15/3/7 17/16/7 12/2/7
f 15/1/5 16/34/5 18/35/5 17/2/5
f 16/1/3 11/3/3 14/16/3 18/2/3
f 12//1 17//1 18//1
f 12//1 18//1 14//1
f 35//2 34//2 20//2
f 35//2 20//2 21//2
f 36//2 28//2 22//2
f 36//2 22//2 23//2
f 34//2 36//2 23//2
f 34//2 23//2 20//2
f 20/1/11 34/3/11 37/16/11 25/2/11
f 34/4/12 35/5/12 38/6/12 37/7/12
f 35/1/9 21/8/9 3/9/9 38/2/9
f 22/1/10 28/37/10 30/38/10 26/2/10
f 28/1/13 36/10/13 39/11/13 30/2/13
f 36/1/9 23/8/9 13/9/9 39/2/9
f 23/1/14 36/8/14 40/12/14 19/13/14
f 36/10/15 34/4/15 41/14/15 40/15/15
f 34/1/16 20/3/16 44/26/16 41/13/16
f 44//1 19//1 40//1
f 44//1 40//1 41//1
f 32/36/14 42/21/14 39/9/14 13/2/14
f 42/19/15 43/20/15 37/7/15 39/11/15
f 43/36/16 33/22/16 25/16/16 37/2/16
f 43//2 42//2 32//2
f 43//2 32//2 33//2
f 3//1 25//1 37//1
f 3//1 37//1 38//1
f 13//1 26//1 30//1
f 13//1 30//1 39//1
f 25//1 13//1 39//1
f 25//1 39//1 37//1
f 11//2 48//2 2//2
f 11//2 2//2 46//2
f 49//2 50//2 4//2
f 49//2 4//2 45//2
f 46/1/8 2/24/8 5/25/8 47/2/8
f 2/1/5 48/3/5 51/16/5 5/2/5
f 11/1/4 46/3/4 47/16/4 14/2/4
f 45/30/7 4/27/7 6/28/7 7/29/7
f 4/1/5 50/3/5 52/16/5 6/2/5
f 49/1/4 45/3/4 7/16/4 53/2/4
f 8/23/7 9/31/7 7/29/7 5/25/7
f 9/32/5 54/33/5 53/16/5 7/2/5
f 1/32/4 8/33/4 5/16/4 51/2/4
f 1//2 54//2 9//2
f 1//2 9//2 8//2
f 47//1 5//1 51//1
f 47//1 51//1 14//1
f 7//1 6//1 52//1
f 7//1 52//1 53//1
f 5//1 7//1 53//1
f 5//1 53//1 51//1
