################################
# OBJ generated by split_obj.py
################################
# Faces:    24
# Vertices: 48
# Normals:  5
# UVs:      4
################################

# vertices

v 1119.500000 250.000000 195.109120
v 78.495000 0.000000 199.278580
v -1.504997 0.000000 199.278580
v 78.495000 250.000000 199.278580
v -1.504997 250.000000 199.278580
v 1651.500000 0.000000 197.809220
v 1571.500000 0.000000 197.809220
v 1651.500000 250.000000 197.809220
v 1571.500000 250.000000 197.809220
v 0.499992 0.000000 1085.309300
v 80.499990 0.000000 1085.309300
v 0.499992 250.000000 1085.309300
v 80.499990 250.000000 1085.309300
v 1573.606600 0.000000 1085.309200
v 1653.606600 0.000000 1085.309200
v 1573.606600 250.000000 1085.309200
v 1653.606600 250.000000 1085.309200
v 1656.250900 0.000000 201.301560
v 1736.250900 0.000000 201.301560
v 1656.250900 250.000000 201.301560
v 439.500000 0.000000 1085.309300
v 1736.250900 250.000000 201.301560
v -1.242250 0.000000 199.279460
v -1.514975 0.000000 279.279000
v 439.500000 250.000000 1085.309300
v -1.242250 250.000000 199.279460
v -1.514975 250.000000 279.279000
v -4.257787 0.000000 1083.836400
v -84.257790 0.000000 1083.836400
v -4.257787 250.000000 1083.836400
v -84.257790 250.000000 1083.836400
v 1653.530300 0.000000 1005.309200
v 1733.530300 0.000000 1005.309200
v 1653.530300 250.000000 1005.309200
v 1733.530300 250.000000 1005.309200
v 1118.500000 0.000000 1085.309200
v 1198.500000 0.000000 1085.309200
v 1118.500000 250.000000 1085.309200
v 1198.500000 250.000000 1085.309200
v 519.500000 0.000000 1085.309300
v 519.500000 250.000000 1085.309300
v 522.500000 0.000000 197.809220
v 442.500000 0.000000 197.809220
v 522.500000 250.000000 197.809220
v 442.500000 250.000000 197.809220
v 1199.500000 0.000000 195.109120
v 1119.500000 0.000000 195.109120
v 1199.500000 250.000000 195.109120

# normals

vn -3e-07 0 -1
vn 2e-07 0 1
vn 0.99999 0 0.0034091
vn 0 0 -1
vn -1e-07 0 1

# uvs

vt 0 33
vt 2.6667 33
vt 0 8
vt 2.6667 8

# faces

f 36/3/1 38/1/1 39/2/1
f 36/3/1 39/2/1 37/4/1
f 21/3/1 25/1/1 41/2/1
f 21/3/1 41/2/1 40/4/1
f 42/3/5 44/1/5 45/2/5
f 42/3/5 45/2/5 43/4/5
f 46/3/5 48/1/5 1/2/5
f 46/3/5 1/2/5 47/4/5
f 2/3/5 4/1/5 5/2/5
f 2/3/5 5/2/5 3/4/5
f 6/3/5 8/1/5 9/2/5
f 6/3/5 9/2/5 7/4/5
f 10/3/1 12/1/1 13/2/1
f 10/3/1 13/2/1 11/4/1
f 14/3/1 16/1/1 17/2/1
f 14/3/1 17/2/1 15/4/1
f 18/3/4 20/1/4 22/2/4
f 18/3/4 22/2/4 19/4/4
f 23/3/3 26/1/3 27/2/3
f 23/3/3 27/2/3 24/4/3
f 28/3/2 30/1/2 31/2/2
f 28/3/2 31/2/2 29/4/2
f 32/3/1 34/1/1 35/2/1
f 32/3/1 35/2/1 33/4/1
