################################
# OBJ generated by split_obj.py
################################
# Faces:    180
# Vertices: 88
# Normals:  6
# UVs:      86
################################

# vertices

v 1360.223000 219.000000 216.408340
v 1471.299000 119.000000 212.163060
v 1471.299000 119.000000 216.408340
v 1471.299000 219.000000 216.408340
v 1471.299000 219.000000 212.163060
v 1479.989600 119.000000 216.408340
v 1479.989600 119.000000 212.163060
v 1479.989600 219.000000 212.163060
v 1479.989600 219.000000 216.408340
v 1360.223000 129.000000 216.408340
v 1360.223000 129.000000 212.163060
v 1471.299000 129.000000 212.163060
v 1471.299000 129.000000 216.408340
v 1360.223000 209.000000 212.163060
v 1360.223000 209.000000 216.408340
v 1471.299000 209.000000 216.408340
v 1471.299000 209.000000 212.163060
v 1350.401000 119.000000 220.653600
v 1350.401000 219.000000 220.653600
v 1360.223000 119.000000 220.653600
v 1360.223000 219.000000 220.653600
v 1471.299000 119.000000 220.653600
v 1471.299000 219.000000 220.653600
v 1479.989600 119.000000 220.653600
v 1479.989600 219.000000 220.653600
v 1360.223000 129.000000 220.653600
v 1471.299000 129.000000 220.653600
v 1360.223000 209.000000 220.653600
v 1471.299000 209.000000 220.653600
v 1349.989600 119.000000 210.653670
v 1349.989600 119.000000 211.502700
v 1349.989600 219.000000 211.502700
v 1349.989600 219.000000 210.653670
v 1479.578200 119.000000 211.502700
v 1479.578200 119.000000 210.653670
v 1479.578200 219.000000 210.653670
v 1479.578200 219.000000 211.502700
v 1349.989600 119.000000 212.351780
v 1349.989600 219.000000 212.351780
v 1360.223000 119.000000 212.351780
v 1360.223000 219.000000 212.351780
v 1360.223000 119.000000 212.162980
v 1360.223000 219.000000 212.162980
v 1471.299000 119.000000 212.162980
v 1471.299000 219.000000 212.162980
v 1471.299000 119.000000 212.351780
v 1471.299000 219.000000 212.351780
v 1479.578200 119.000000 212.351780
v 1479.578200 219.000000 212.351780
v 1360.223000 129.000000 212.351780
v 1360.223000 129.000000 212.162980
v 1471.299000 129.000000 212.351780
v 1471.299000 129.000000 212.162980
v 1360.223000 209.000000 212.162980
v 1360.223000 209.000000 212.351780
v 1471.299000 209.000000 212.351780
v 1471.299000 209.000000 212.162980
v 1389.234100 112.000000 205.309220
v 1389.234100 112.000000 218.309220
v 1389.234100 114.000000 218.309220
v 1389.234100 114.000000 205.309220
v 1439.234100 112.000000 218.309220
v 1439.234100 112.000000 205.309220
v 1439.234100 114.000000 205.309220
v 1439.234100 114.000000 218.309220
v 1389.234100 112.000000 231.309220
v 1389.234100 114.000000 231.309220
v 1439.234100 112.000000 231.309220
v 1439.234100 114.000000 231.309220
v 1408.123000 114.000000 218.642530
v 1408.123000 114.000000 219.642530
v 1408.123000 126.000000 219.642530
v 1408.123000 126.000000 218.642530
v 1423.123000 114.000000 219.642530
v 1423.123000 114.000000 218.642530
v 1423.123000 126.000000 218.642530
v 1423.123000 126.000000 219.642530
v 1408.123000 114.000000 220.642530
v 1408.123000 126.000000 220.642530
v 1423.123000 114.000000 220.642530
v 1423.123000 126.000000 220.642530
v 1350.401000 119.000000 212.163060
v 1350.401000 119.000000 216.408340
v 1350.401000 219.000000 216.408340
v 1350.401000 219.000000 212.163060
v 1360.223000 119.000000 216.408340
v 1360.223000 119.000000 212.163060
v 1360.223000 219.000000 212.163060

# normals

vn 0 1 0
vn 0 -1 0
vn 1 0 0
vn 0 0 -1
vn 0 0 1
vn -1 0 0

# uvs

vt 0 0
vt 3.2397 3.6101
vt 0 0.5
vt 0 0.86667
vt 0 0.43333
vt 0 0.93333
vt 1.25 0.43333
vt 1.25 0.86667
vt 1.25 0.93333
vt 1.25 0.5
vt 0 0.066667
vt 1.25 0
vt 1.25 0.066667
vt 0 0.033333
vt 0 0.43333
vt 0 0.46667
vt 0.375 0.033333
vt 0.375 0.066667
vt 0.375 0.46667
vt 0.375 0.43333
vt 0 0.4
vt 0.375 0.4
vt 0.010284 0.28302
vt 0.010284 0.14151
vt 0.010284 3.4748
vt 0.010284 3.6164
vt 0.25583 0.14151
vt 0.25583 0.28302
vt 0.25583 3.6164
vt 0.25583 3.4748
vt 3.0327 0.28302
vt 3.0327 0.14151
vt 3.0327 3.4748
vt 3.0327 3.6164
vt 3.25 0.14151
vt 3.25 0.28302
vt 3.25 3.6164
vt 3.25 3.4748
vt 0.25583 0.47484
vt 0.25583 0.61635
vt 3.0327 0.61635
vt 3.0327 0.47484
vt 0.25583 3.283
vt 0.25583 3.1415
vt 3.0327 3.1415
vt 3.0327 3.283
vt 0.010284 2.9e-06
vt 0.010284 3.3333
vt 0.25583 2.9e-06
vt 0.25583 3.3333
vt 3.0327 2.9e-06
vt 3.0327 3.3333
vt 3.25 2.9e-06
vt 3.25 3.3333
vt 0.25583 0.33334
vt 3.0327 0.33334
vt 0.25583 3
vt 3.0327 3
vt 0 0.33333
vt 0 0.30503
vt 0 3.6384
vt 0 3.6667
vt 3.2397 0.30503
vt 3.2397 0.33333
vt 3.2397 3.6667
vt 3.2397 3.6384
vt 0 0.27673
vt 0 3.6101
vt 0.25583 0.27673
vt 0.25583 3.6101
vt 0.25583 0.28302
vt 0.25583 3.6164
vt 3.0327 0.28302
vt 3.0327 3.6164
vt 3.0327 0.27673
vt 3.0327 3.6101
vt 3.2397 0.27673
vt 0.375 0
vt 0.25583 0.61006
vt 0.25583 0.61636
vt 3.0327 0.61006
vt 3.0327 0.61636
vt 0.25583 3.283
vt 0.25583 3.2767
vt 3.0327 3.2767
vt 3.0327 3.283

# faces

f 58/4/6 59/5/6 60/3/6
f 58/4/6 60/3/6 61/6/6
f 62/7/3 63/8/3 64/9/3
f 62/7/3 64/9/3 65/10/3
f 63/8/4 58/4/4 61/6/4
f 63/8/4 61/6/4 64/9/4
f 63/8/2 62/7/2 59/5/2
f 63/8/2 59/5/2 58/4/2
f 61/6/1 60/3/1 65/10/1
f 61/6/1 65/10/1 64/9/1
f 59/5/6 66/1/6 67/11/6
f 59/5/6 67/11/6 60/3/6
f 66/1/5 68/12/5 69/13/5
f 66/1/5 69/13/5 67/11/5
f 68/12/3 62/7/3 65/10/3
f 68/12/3 65/10/3 69/13/3
f 62/7/2 68/12/2 66/1/2
f 62/7/2 66/1/2 59/5/2
f 60/3/1 67/11/1 69/13/1
f 60/3/1 69/13/1 65/10/1
f 70/11/6 71/14/6 72/15/6
f 70/11/6 72/15/6 73/16/6
f 74/17/3 75/18/3 76/19/3
f 74/17/3 76/19/3 77/20/3
f 75/18/4 70/11/4 73/16/4
f 75/18/4 73/16/4 76/19/4
f 75/18/2 74/17/2 71/14/2
f 75/18/2 71/14/2 70/11/2
f 73/16/1 72/15/1 77/20/1
f 73/16/1 77/20/1 76/19/1
f 71/14/6 78/1/6 79/21/6
f 71/14/6 79/21/6 72/15/6
f 78/1/5 80/78/5 81/22/5
f 78/1/5 81/22/5 79/21/5
f 80/78/3 74/17/3 77/20/3
f 80/78/3 77/20/3 81/22/3
f 74/17/2 80/78/2 78/1/2
f 74/17/2 78/1/2 71/14/2
f 72/15/1 79/21/1 81/22/1
f 72/15/1 81/22/1 77/20/1
f 82/23/6 83/24/6 84/25/6
f 82/23/6 84/25/6 85/26/6
f 86/27/3 87/28/3 88/29/3
f 86/27/3 88/29/3 1/30/3
f 87/28/4 82/23/4 85/26/4
f 87/28/4 85/26/4 88/29/4
f 87/28/2 86/27/2 83/24/2
f 87/28/2 83/24/2 82/23/2
f 85/26/1 84/25/1 1/30/1
f 85/26/1 1/30/1 88/29/1
f 2/31/6 3/32/6 4/33/6
f 2/31/6 4/33/6 5/34/6
f 6/35/3 7/36/3 8/37/3
f 6/35/3 8/37/3 9/38/3
f 7/36/4 2/31/4 5/34/4
f 7/36/4 5/34/4 8/37/4
f 7/36/2 6/35/2 3/32/2
f 7/36/2 3/32/2 2/31/2
f 5/34/1 4/33/1 9/38/1
f 5/34/1 9/38/1 8/37/1
f 87/28/6 86/27/6 10/39/6
f 87/28/6 10/39/6 11/40/6
f 3/32/3 2/31/3 12/41/3
f 3/32/3 12/41/3 13/42/3
f 2/31/4 87/28/4 11/40/4
f 2/31/4 11/40/4 12/41/4
f 2/31/2 3/32/2 86/27/2
f 2/31/2 86/27/2 87/28/2
f 11/40/1 10/39/1 13/42/1
f 11/40/1 13/42/1 12/41/1
f 14/43/6 15/44/6 1/30/6
f 14/43/6 1/30/6 88/29/6
f 16/45/3 17/46/3 5/34/3
f 16/45/3 5/34/3 4/33/3
f 17/46/4 14/43/4 88/29/4
f 17/46/4 88/29/4 5/34/4
f 17/46/2 16/45/2 15/44/2
f 17/46/2 15/44/2 14/43/2
f 88/29/1 1/30/1 4/33/1
f 88/29/1 4/33/1 5/34/1
f 83/24/6 18/47/6 19/48/6
f 83/24/6 19/48/6 84/25/6
f 18/47/5 20/49/5 21/50/5
f 18/47/5 21/50/5 19/48/5
f 20/49/3 86/27/3 1/30/3
f 20/49/3 1/30/3 21/50/3
f 86/27/2 20/49/2 18/47/2
f 86/27/2 18/47/2 83/24/2
f 84/25/1 19/48/1 21/50/1
f 84/25/1 21/50/1 1/30/1
f 3/32/6 22/51/6 23/52/6
f 3/32/6 23/52/6 4/33/6
f 22/51/5 24/53/5 25/54/5
f 22/51/5 25/54/5 23/52/5
f 24/53/3 6/35/3 9/38/3
f 24/53/3 9/38/3 25/54/3
f 6/35/2 24/53/2 22/51/2
f 6/35/2 22/51/2 3/32/2
f 4/33/1 23/52/1 25/54/1
f 4/33/1 25/54/1 9/38/1
f 86/27/6 20/49/6 26/55/6
f 86/27/6 26/55/6 10/39/6
f 20/49/5 22/51/5 27/56/5
f 20/49/5 27/56/5 26/55/5
f 22/51/3 3/32/3 13/42/3
f 22/51/3 13/42/3 27/56/3
f 3/32/2 22/51/2 20/49/2
f 3/32/2 20/49/2 86/27/2
f 10/39/1 26/55/1 27/56/1
f 10/39/1 27/56/1 13/42/1
f 15/44/6 28/57/6 21/50/6
f 15/44/6 21/50/6 1/30/6
f 28/57/5 29/58/5 23/52/5
f 28/57/5 23/52/5 21/50/5
f 29/58/3 16/45/3 4/33/3
f 29/58/3 4/33/3 23/52/3
f 16/45/2 29/58/2 28/57/2
f 16/45/2 28/57/2 15/44/2
f 1/30/1 21/50/1 23/52/1
f 1/30/1 23/52/1 4/33/1
f 30/59/6 31/60/6 32/61/6
f 30/59/6 32/61/6 33/62/6
f 34/63/3 35/64/3 36/65/3
f 34/63/3 36/65/3 37/66/3
f 35/64/4 30/59/4 33/62/4
f 35/64/4 33/62/4 36/65/4
f 35/64/2 34/63/2 31/60/2
f 35/64/2 31/60/2 30/59/2
f 33/62/1 32/61/1 37/66/1
f 33/62/1 37/66/1 36/65/1
f 31/60/6 38/67/6 39/68/6
f 31/60/6 39/68/6 32/61/6
f 38/67/5 40/69/5 41/70/5
f 38/67/5 41/70/5 39/68/5
f 40/69/3 42/71/3 43/72/3
f 40/69/3 43/72/3 41/70/3
f 42/71/5 44/73/5 45/74/5
f 42/71/5 45/74/5 43/72/5
f 44/73/6 46/75/6 47/76/6
f 44/73/6 47/76/6 45/74/6
f 46/75/5 48/77/5 49/2/5
f 46/75/5 49/2/5 47/76/5
f 48/77/3 34/63/3 37/66/3
f 48/77/3 37/66/3 49/2/3
f 40/69/2 38/67/2 31/60/2
f 42/71/2 40/69/2 31/60/2
f 42/71/2 31/60/2 34/63/2
f 44/73/2 42/71/2 34/63/2
f 44/73/2 34/63/2 48/77/2
f 44/73/2 48/77/2 46/75/2
f 47/76/1 49/2/1 37/66/1
f 45/74/1 47/76/1 37/66/1
f 45/74/1 37/66/1 32/61/1
f 43/72/1 45/74/1 32/61/1
f 43/72/1 32/61/1 39/68/1
f 43/72/1 39/68/1 41/70/1
f 42/71/6 40/69/6 50/79/6
f 42/71/6 50/79/6 51/80/6
f 40/69/5 46/75/5 52/81/5
f 40/69/5 52/81/5 50/79/5
f 46/75/3 44/73/3 53/82/3
f 46/75/3 53/82/3 52/81/3
f 44/73/4 42/71/4 51/80/4
f 44/73/4 51/80/4 53/82/4
f 44/73/2 46/75/2 40/69/2
f 44/73/2 40/69/2 42/71/2
f 51/80/1 50/79/1 52/81/1
f 51/80/1 52/81/1 53/82/1
f 54/83/6 55/84/6 41/70/6
f 54/83/6 41/70/6 43/72/6
f 55/84/5 56/85/5 47/76/5
f 55/84/5 47/76/5 41/70/5
f 56/85/3 57/86/3 45/74/3
f 56/85/3 45/74/3 47/76/3
f 57/86/4 54/83/4 43/72/4
f 57/86/4 43/72/4 45/74/4
f 57/86/2 56/85/2 55/84/2
f 57/86/2 55/84/2 54/83/2
f 43/72/1 41/70/1 47/76/1
f 43/72/1 47/76/1 45/74/1
