################################
# OBJ generated by split_obj.py
################################
# Faces:    96
# Vertices: 32
# Normals:  6
# UVs:      14
################################

# vertices

v 84.429490 69.600010 778.716600
v 138.429490 69.600010 778.716600
v 138.429490 86.400020 778.716600
v 84.429490 86.400020 778.716600
v 84.429490 86.400020 776.752100
v 84.429490 69.600010 776.752100
v 138.429490 69.600010 776.752100
v 138.429490 86.400020 776.752100
v 84.429490 69.600030 751.213400
v 138.429490 69.600030 751.213400
v 138.429490 86.400030 751.213400
v 84.429490 86.400030 751.213400
v 84.429490 86.400030 749.248840
v 84.429490 69.600030 749.248840
v 138.429490 69.600030 749.248840
v 138.429490 86.400030 749.248840
v 84.629470 68.000020 735.988340
v 138.429490 68.000020 735.988400
v 138.429490 86.400020 735.988400
v 84.629470 86.400020 735.988340
v 84.629470 86.400020 734.023860
v 84.629470 68.000020 734.023860
v 138.429490 68.000020 734.023860
v 138.429490 86.400020 734.023860
v 84.429490 69.600030 764.964970
v 138.429490 69.600030 764.964970
v 138.429490 86.400030 764.964970
v 84.429490 86.400030 764.964970
v 84.429490 86.400030 763.000500
v 84.429490 69.600030 763.000500
v 138.429490 69.600030 763.000500
v 138.429490 86.400030 763.000500

# normals

vn 0 1 0
vn 1e-07 0 -1
vn 0 -1 0
vn -1 0 -1e-07
vn 1 0 1e-07
vn -1e-07 0 1

# uvs

vt 0 0
vt 2.0532 0
vt 0 0.65116
vt 2.0532 0.65116
vt 2.0532 0.72868
vt 2.0532 0.077519
vt 0 0.077519
vt 0 0.72868
vt 2.0456 0
vt 0 0.71318
vt 2.0456 0.71318
vt 2.0456 0.7907
vt 2.0456 0.077519
vt 0 0.7907

# faces

f 1/2/6 2/1/6 3/3/6
f 4/4/6 1/2/6 3/3/6
f 3/3/6 4/4/6 3/3/6
f 2/1/6 3/3/6 3/3/6
f 1/2/4 4/4/4 4/4/4
f 4/4/4 5/5/4 4/4/4
f 5/5/4 6/6/4 4/4/4
f 6/6/4 1/2/4 4/4/4
f 2/1/3 1/2/3 2/1/3
f 1/2/3 6/6/3 2/1/3
f 6/6/3 7/7/3 2/1/3
f 7/7/3 2/1/3 2/1/3
f 3/3/5 2/1/5 3/3/5
f 2/1/5 7/7/5 3/3/5
f 7/7/5 8/8/5 3/3/5
f 8/8/5 3/3/5 3/3/5
f 7/7/2 6/6/2 8/8/2
f 6/6/2 5/5/2 8/8/2
f 5/5/2 8/8/2 8/8/2
f 8/8/2 7/7/2 8/8/2
f 4/4/1 3/3/1 3/3/1
f 3/3/1 8/8/1 3/3/1
f 8/8/1 5/5/1 3/3/1
f 5/5/1 4/4/1 3/3/1
f 9/2/6 10/1/6 11/3/6
f 12/4/6 9/2/6 11/3/6
f 11/3/6 12/4/6 11/3/6
f 10/1/6 11/3/6 11/3/6
f 9/2/4 12/4/4 12/4/4
f 12/4/4 13/5/4 12/4/4
f 13/5/4 14/6/4 12/4/4
f 14/6/4 9/2/4 12/4/4
f 10/1/3 9/2/3 10/1/3
f 9/2/3 14/6/3 10/1/3
f 14/6/3 15/7/3 10/1/3
f 15/7/3 10/1/3 10/1/3
f 11/3/5 10/1/5 11/3/5
f 10/1/5 15/7/5 11/3/5
f 15/7/5 16/8/5 11/3/5
f 16/8/5 11/3/5 11/3/5
f 15/7/2 14/6/2 16/8/2
f 14/6/2 13/5/2 16/8/2
f 13/5/2 16/8/2 16/8/2
f 16/8/2 15/7/2 16/8/2
f 12/4/1 11/3/1 11/3/1
f 11/3/1 16/8/1 11/3/1
f 16/8/1 13/5/1 11/3/1
f 13/5/1 12/4/1 11/3/1
f 17/9/6 18/1/6 19/10/6
f 20/11/6 17/9/6 19/10/6
f 19/10/6 20/11/6 19/10/6
f 18/1/6 19/10/6 19/10/6
f 17/9/4 20/11/4 20/11/4
f 20/11/4 21/12/4 20/11/4
f 21/12/4 22/13/4 20/11/4
f 22/13/4 17/9/4 20/11/4
f 18/1/3 17/9/3 18/1/3
f 17/9/3 22/13/3 18/1/3
f 22/13/3 23/7/3 18/1/3
f 23/7/3 18/1/3 18/1/3
f 19/10/5 18/1/5 19/10/5
f 18/1/5 23/7/5 19/10/5
f 23/7/5 24/14/5 19/10/5
f 24/14/5 19/10/5 19/10/5
f 23/7/2 22/13/2 24/14/2
f 22/13/2 21/12/2 24/14/2
f 21/12/2 24/14/2 24/14/2
f 24/14/2 23/7/2 24/14/2
f 20/11/1 19/10/1 19/10/1
f 19/10/1 24/14/1 19/10/1
f 24/14/1 21/12/1 19/10/1
f 21/12/1 20/11/1 19/10/1
f 25/2/6 26/1/6 27/3/6
f 28/4/6 25/2/6 27/3/6
f 27/3/6 28/4/6 27/3/6
f 26/1/6 27/3/6 27/3/6
f 25/2/4 28/4/4 28/4/4
f 28/4/4 29/5/4 28/4/4
f 29/5/4 30/6/4 28/4/4
f 30/6/4 25/2/4 28/4/4
f 26/1/3 25/2/3 26/1/3
f 25/2/3 30/6/3 26/1/3
f 30/6/3 31/7/3 26/1/3
f 31/7/3 26/1/3 26/1/3
f 27/3/5 26/1/5 27/3/5
f 26/1/5 31/7/5 27/3/5
f 31/7/5 32/8/5 27/3/5
f 32/8/5 27/3/5 27/3/5
f 31/7/2 30/6/2 32/8/2
f 30/6/2 29/5/2 32/8/2
f 29/5/2 32/8/2 32/8/2
f 32/8/2 31/7/2 32/8/2
f 28/4/1 27/3/1 27/3/1
f 27/3/1 32/8/1 27/3/1
f 32/8/1 29/5/1 27/3/1
f 29/5/1 28/4/1 27/3/1
