################################
# OBJ generated by split_obj.py
################################
# Faces:    192
# Vertices: 93
# Normals:  25
# UVs:      0
################################

# vertices

v 1059.484500 114.874510 1077.903300
v 1059.484500 117.663740 1077.903300
v 1062.687400 117.663740 1077.903300
v 1057.505000 114.874510 1077.903300
v 1059.484500 105.715720 1077.903300
v 1057.505000 105.715720 1077.903300
v 1056.282100 114.874510 1077.903300
v 1056.282100 105.715720 1077.903300
v 1056.282100 117.663740 1077.903300
v 1065.889900 105.715720 1077.903300
v 1065.889900 114.874510 1077.903300
v 1069.092800 114.874510 1077.903300
v 1069.092800 105.715720 1077.903300
v 1057.075700 117.346790 1078.279400
v 1062.045200 117.426476 1078.102300
v 1061.943500 105.838640 1078.098600
v 1057.075700 105.735050 1078.279400
v 1065.889900 117.663740 1077.903300
v 1069.092800 117.663740 1077.903300
v 1057.505000 96.267670 1077.903300
v 1065.889900 96.267670 1077.903300
v 1065.889900 93.767700 1077.903300
v 1062.687400 93.767700 1077.903300
v 1061.838900 93.884640 1078.094800
v 1057.075700 93.756350 1078.279400
v 1069.092800 96.267670 1077.903300
v 1069.092800 93.767700 1077.903300
v 1059.484500 96.267670 1077.903300
v 1056.282100 96.267670 1077.903300
v 1059.484500 93.767700 1077.903300
v 1056.282100 93.767700 1077.903300
v 1059.484500 114.874510 1078.306000
v 1062.687400 114.874510 1078.306000
v 1062.687400 117.663740 1078.306000
v 1059.484500 117.663740 1078.306000
v 1059.484500 105.715720 1078.306000
v 1062.687400 105.715720 1078.306000
v 1056.282100 114.874510 1078.306000
v 1056.282100 105.715720 1078.306000
v 1056.282100 117.663740 1078.306000
v 1065.889900 114.874510 1078.306000
v 1065.889900 105.715720 1078.306000
v 1069.092800 105.715720 1078.306000
v 1069.092800 114.874510 1078.306000
v 1065.889900 117.663740 1078.306000
v 1069.092800 117.663740 1078.306000
v 1065.889900 96.267670 1078.306000
v 1062.687400 96.267670 1078.306000
v 1062.687400 93.767700 1078.306000
v 1065.889900 93.767700 1078.306000
v 1069.092800 96.267670 1078.306000
v 1069.092800 93.767700 1078.306000
v 1059.484500 96.267670 1078.306000
v 1056.282100 96.267670 1078.306000
v 1059.484500 93.767700 1078.306000
v 1056.282100 93.767700 1078.306000
v 1067.811500 93.767700 1078.021400
v 1069.092800 93.767700 1078.100700
v 1065.889900 93.767700 1078.098900
v 1069.092800 96.267670 1078.100700
v 1069.092800 105.715720 1078.100700
v 1069.092800 114.874510 1078.100700
v 1069.092800 117.663740 1078.100700
v 1065.889900 117.663740 1078.100700
v 1062.687400 117.663740 1078.100700
v 1059.484500 117.663740 1078.100700
v 1056.282100 117.663740 1078.100700
v 1056.282100 114.874510 1078.100700
v 1056.282100 105.715720 1078.100700
v 1056.282100 96.267670 1078.100700
v 1056.282100 93.767700 1078.100700
v 1057.562900 93.767700 1078.023600
v 1059.484500 93.767700 1078.102500
v 1056.282100 93.767700 1078.108000
v 1062.687400 93.767700 1078.100700
v 1067.811500 117.663740 1078.182900
v 1057.562900 117.663740 1078.184300
v 1056.282100 117.663740 1078.108000
v 1056.282100 114.874510 1078.108000
v 1056.282100 105.715720 1078.108000
v 1056.282100 96.267670 1078.108000
v 1057.505000 114.874510 1078.050500
v 1057.505000 105.715720 1078.050500
v 1065.889900 114.874510 1078.050500
v 1065.889900 105.715720 1078.050500
v 1065.889900 96.267670 1078.050500
v 1057.505000 96.267670 1078.050500
v 1066.823700 115.031494 1077.914700
v 1057.497800 114.915350 1078.115800
v 1066.743800 105.851190 1077.911700
v 1066.660900 96.380424 1077.908800
v 1057.497800 96.225840 1078.115800
v 1057.497800 105.716120 1078.115800

# normals

vn 0.99677 -0.001819 0.080326
vn 0 1 0
vn 0.99747 -0.0017823 0.071061
vn 0 -1 0
vn -0.007593 -0.99807 -0.061593
vn 0 0.99881 0.048839
vn 1 0 0.0014271
vn 0.99596 0 0.089836
vn 0.78647 0.39012 0.47882
vn 0.94721 -0.0013561 0.32062
vn 0.99943 0 0.033819
vn 0.93837 -0.03126 0.34422
vn 0.79592 -0.38545 0.46683
vn 0.99676 0 0.080461
vn -0.94763 0.002727 -0.31936
vn -1 0 3e-07
vn 1 0 -3e-07
vn -3e-07 0 -1
vn 3e-07 0 1
vn -0.93851 0.002819 -0.34525
vn -0.94291 0 -0.33304
vn -0.94719 0 -0.32069
vn -0.94295 0.0027792 -0.33292
vn 0.085248 0.99175 0.095739
vn 0 -0.99884 0.048088

# uvs



# faces

f 1//18 2//18 3//18
f 4//19 1//19 3//19
f 5//19 1//19 4//19
f 4//19 6//19 5//19
f 7//18 1//18 5//18
f 5//18 8//18 7//18
f 2//18 1//18 7//18
f 7//18 9//18 2//18
f 10//18 11//18 12//18
f 12//18 13//18 10//18
f 14//20 15//20 16//20
f 16//21 17//21 14//21
f 18//18 11//18 4//18
f 4//18 3//18 18//18
f 12//18 11//18 18//18
f 18//18 19//18 12//18
f 20//18 21//18 22//18
f 22//18 23//18 20//18
f 24//22 25//22 17//22
f 17//23 16//23 24//23
f 26//18 21//18 10//18
f 10//18 13//18 26//18
f 22//18 21//18 26//18
f 26//18 27//18 22//18
f 5//18 28//18 29//18
f 29//18 8//18 5//18
f 20//19 28//19 5//19
f 5//19 6//19 20//19
f 20//18 23//18 30//18
f 30//19 28//19 20//19
f 29//18 28//18 30//18
f 30//18 31//18 29//18
f 32//19 33//19 34//19
f 34//19 35//19 32//19
f 32//19 36//19 37//19
f 37//19 33//19 32//19
f 32//19 38//19 39//19
f 39//19 36//19 32//19
f 32//19 35//19 40//19
f 40//19 38//19 32//19
f 41//19 42//19 43//19
f 43//19 44//19 41//19
f 41//19 33//19 37//19
f 37//19 42//19 41//19
f 41//19 45//19 34//19
f 34//19 33//19 41//19
f 41//19 44//19 46//19
f 46//19 45//19 41//19
f 47//19 48//19 49//19
f 49//19 50//19 47//19
f 47//19 42//19 37//19
f 37//19 48//19 47//19
f 47//19 51//19 43//19
f 43//19 42//19 47//19
f 47//19 50//19 52//19
f 52//19 51//19 47//19
f 53//19 36//19 39//19
f 39//19 54//19 53//19
f 53//19 48//19 37//19
f 37//19 36//19 53//19
f 53//19 55//19 49//19
f 49//19 48//19 53//19
f 53//19 54//19 56//19
f 56//19 55//19 53//19
f 22//4 27//4 57//4
f 27//4 58//4 57//4
f 58//4 58//4 57//4
f 58//4 59//4 57//4
f 59//4 22//4 57//4
f 27//17 26//17 60//17
f 60//17 58//17 27//17
f 26//17 13//17 61//17
f 61//17 60//17 26//17
f 13//17 12//17 62//17
f 62//17 61//17 13//17
f 12//17 19//17 63//17
f 63//17 62//17 12//17
f 19//2 18//2 64//2
f 64//2 63//2 19//2
f 18//2 3//2 65//2
f 65//2 64//2 18//2
f 3//2 2//2 66//2
f 66//2 65//2 3//2
f 2//2 9//2 67//2
f 67//2 66//2 2//2
f 9//16 7//16 68//16
f 68//16 67//16 9//16
f 7//16 8//16 69//16
f 69//16 68//16 7//16
f 8//16 29//16 70//16
f 70//16 69//16 8//16
f 29//16 31//16 71//16
f 71//16 70//16 29//16
f 31//4 30//4 72//4
f 30//4 73//4 72//4
f 73//4 74//4 72//4
f 74//4 71//4 72//4
f 71//4 31//4 72//4
f 30//4 23//4 75//4
f 75//4 73//4 30//4
f 23//4 22//4 59//4
f 59//4 75//4 23//4
f 58//17 60//17 60//17
f 60//17 58//17 58//17
f 60//17 61//17 61//17
f 61//17 60//17 60//17
f 61//17 62//17 62//17
f 62//17 61//17 61//17
f 62//17 63//17 63//17
f 63//17 62//17 62//17
f 63//2 64//2 76//2
f 64//2 45//2 76//2
f 45//2 46//2 76//2
f 46//2 63//2 76//2
f 63//2 63//2 76//2
f 64//2 65//2 34//2
f 34//2 45//2 64//2
f 65//2 66//2 35//2
f 35//2 34//2 65//2
f 66//2 67//2 77//2
f 67//2 78//2 77//2
f 78//2 40//2 77//2
f 40//2 35//2 77//2
f 35//2 66//2 77//2
f 67//16 68//16 79//16
f 79//16 78//16 67//16
f 68//16 69//16 80//16
f 80//16 79//16 68//16
f 69//16 70//16 81//16
f 81//16 80//16 69//16
f 70//16 71//16 74//16
f 74//16 81//16 70//16
f 58//17 60//17 51//17
f 51//17 52//17 58//17
f 60//17 61//17 43//17
f 43//17 51//17 60//17
f 61//17 62//17 44//17
f 44//17 43//17 61//17
f 62//17 63//17 46//17
f 46//17 44//17 62//17
f 78//16 79//16 38//16
f 38//16 40//16 78//16
f 79//16 80//16 39//16
f 39//16 38//16 79//16
f 80//16 81//16 54//16
f 54//16 39//16 80//16
f 81//16 74//16 56//16
f 56//16 54//16 81//16
f 73//4 75//4 49//4
f 49//4 55//4 73//4
f 75//4 59//4 50//4
f 50//4 49//4 75//4
f 59//4 58//4 52//4
f 52//4 50//4 59//4
f 74//4 73//4 55//4
f 55//4 56//4 74//4
f 4//17 82//17 83//17
f 83//17 6//17 4//17
f 11//4 84//4 82//4
f 82//4 4//4 11//4
f 10//16 85//16 84//16
f 84//16 11//16 10//16
f 21//16 86//16 85//16
f 85//16 10//16 21//16
f 20//2 87//2 86//2
f 86//2 21//2 20//2
f 6//17 83//17 87//17
f 87//17 20//17 6//17
f 84//24 88//24 89//24
f 84//25 89//25 82//25
f 85//1 90//1 88//1
f 88//8 84//8 85//8
f 86//3 91//3 90//3
f 90//14 85//14 86//14
f 92//5 91//5 86//5
f 87//6 92//6 86//6
f 83//7 93//7 92//7
f 92//7 87//7 83//7
f 82//7 89//7 93//7
f 93//7 83//7 82//7
f 88//15 90//15 16//15
f 16//15 15//15 88//15
f 90//15 91//15 24//15
f 24//15 16//15 90//15
f 91//9 92//9 25//9
f 25//10 24//10 91//10
f 93//11 17//11 25//11
f 25//11 92//11 93//11
f 89//11 14//11 17//11
f 17//11 93//11 89//11
f 88//12 15//12 14//12
f 14//13 89//13 88//13
