################################
# OBJ generated by split_obj.py
################################
# Faces:    12
# Vertices: 8
# Normals:  12
# UVs:      4
################################

# vertices

v 443.747560 48.019825 671.372860
v 443.997800 48.019810 671.372860
v 443.997800 48.019810 867.201600
v 443.747560 48.019825 867.201500
v 443.747560 231.890600 671.372800
v 443.747560 231.890600 867.201540
v 443.997830 231.890580 867.201600
v 443.997830 231.890580 671.372900

# normals

vn 1 -2e-07 0
vn 1 -2e-07 0
vn -0.0001092 -2e-07 1
vn -0.000131 -2e-07 1
vn -1 3e-07 -0
vn -1 3e-07 -0
vn -2.28e-05 -1 -0
vn -2.28e-05 -1 -0
vn 2.28e-05 1 0
vn 2.28e-05 1 0
vn 0.0002184 -4e-07 -1
vn 0 5e-07 -1

# uvs

vt 1 0
vt 0 0
vt 0 1
vt 1 1

# faces

f 1/3/7 2/2/7 3/1/7
f 1/3/8 3/1/8 4/4/8
f 5/3/9 6/2/9 7/1/9
f 5/3/10 7/1/10 8/4/10
f 1/3/11 5/2/11 8/1/11
f 1/3/12 8/1/12 2/4/12
f 2/3/1 8/2/1 7/1/1
f 2/3/2 7/1/2 3/4/2
f 3/3/3 7/2/3 6/1/3
f 3/3/4 6/1/4 4/4/4
f 5/3/5 1/2/5 4/1/5
f 5/3/6 4/1/6 6/4/6
