################################
# OBJ generated by split_obj.py
################################
# Faces:    72
# Vertices: 25
# Normals:  43
# UVs:      0
################################

# vertices

v 1585.141600 167.388750 832.956500
v 1586.431400 167.388750 831.668150
v 1586.903600 167.388750 832.484900
v 1586.903600 167.388750 833.428040
v 1586.431400 167.388750 834.244800
v 1585.613800 167.388750 834.716400
v 1584.669600 167.388750 834.716400
v 1583.851900 167.388750 834.244800
v 1583.379900 167.388750 833.428040
v 1583.379900 167.388750 832.484900
v 1583.851900 167.388750 831.668150
v 1584.669600 167.388750 831.196600
v 1585.613800 167.388750 831.196600
v 1587.182400 174.130890 830.918100
v 1587.929300 174.130890 832.210400
v 1587.929300 174.130890 833.702640
v 1587.182400 174.130890 834.994900
v 1585.888500 174.130890 835.740970
v 1584.394800 174.130890 835.740970
v 1583.101000 174.130890 834.994930
v 1582.354100 174.130890 833.702640
v 1582.354100 174.130890 832.210400
v 1583.101000 174.130890 830.918150
v 1584.394800 174.130890 830.172000
v 1585.888500 174.130890 830.172000

# normals

vn -0.98865 0.15024 0
vn 0 1 0
vn -0.85643 0.15028 -0.49391
vn 0 -1 0
vn -0.49473 0.15036 -0.85594
vn 0.49472 0.15037 -0.85595
vn 0.85643 0.15028 -0.49391
vn -0.85643 0.15028 -0.49391
vn 0.85643 0.15028 0.49391
vn 0.49474 0.15037 0.85593
vn 0.49473 0.15036 0.85594
vn -0.49472 0.15037 0.85594
vn -0.49473 0.15036 0.85594
vn -0.49472 0.15036 -0.85594
vn 0.85643 0.15028 -0.49391
vn 0.98865 0.15024 0
vn 0.85643 0.15028 0.49391
vn 0 0.1504 -0.98862
vn 0.49473 0.15036 -0.85594
vn 0 0.15041 0.98862
vn 0.85643 -0.15028 -0.49391
vn 0.85643 -0.15028 -0.49391
vn 0.98865 -0.15024 0
vn 0.85643 -0.15028 0.49391
vn 0.85643 -0.15028 0.49391
vn 0.49473 -0.15036 0.85594
vn 0.49472 -0.15036 0.85594
vn 0 -0.1504 0.98862
vn -0.49473 -0.15036 0.85594
vn -0.49472 -0.15037 0.85595
vn -0.85643 -0.15028 0.49391
vn -0.85643 -0.15028 0.49391
vn -0.98865 -0.15024 -0
vn -0.85643 -0.15028 -0.49391
vn -0.85643 -0.15028 -0.49391
vn -0.49473 -0.15036 -0.85594
vn -0.49474 -0.15037 -0.85593
vn 0 -0.15041 -0.98862
vn 0 -0.15041 -0.98862
vn 0.49473 -0.15036 -0.85594
vn 0.49472 -0.15037 -0.85594
vn -0.85643 0.15028 0.49391
vn -0.85643 0.15028 0.49391

# uvs



# faces

f 1//4 2//4 3//4
f 1//4 3//4 4//4
f 1//4 4//4 5//4
f 1//4 5//4 6//4
f 1//4 6//4 7//4
f 1//4 7//4 8//4
f 1//4 8//4 9//4
f 1//4 9//4 10//4
f 1//4 10//4 11//4
f 1//4 11//4 12//4
f 1//4 12//4 13//4
f 2//4 1//4 13//4
f 3//21 2//21 14//21
f 3//22 14//22 15//22
f 4//23 3//23 15//23
f 4//23 15//23 16//23
f 5//24 4//24 16//24
f 5//25 16//25 17//25
f 6//26 5//26 17//26
f 6//27 17//27 18//27
f 7//28 6//28 18//28
f 7//28 18//28 19//28
f 8//29 7//29 19//29
f 8//30 19//30 20//30
f 9//31 8//31 20//31
f 9//32 20//32 21//32
f 10//33 9//33 21//33
f 10//33 21//33 22//33
f 11//34 10//34 22//34
f 11//35 22//35 23//35
f 12//36 11//36 23//36
f 12//37 23//37 24//37
f 13//38 12//38 24//38
f 13//39 24//39 25//39
f 2//40 13//40 25//40
f 2//41 25//41 14//41
f 1//2 3//2 2//2
f 1//2 4//2 3//2
f 1//2 5//2 4//2
f 1//2 6//2 5//2
f 1//2 7//2 6//2
f 1//2 8//2 7//2
f 1//2 9//2 8//2
f 1//2 10//2 9//2
f 1//2 11//2 10//2
f 1//2 12//2 11//2
f 1//2 13//2 12//2
f 13//2 1//2 2//2
f 3//42 15//42 14//42
f 3//43 14//43 2//43
f 4//1 16//1 15//1
f 4//1 15//1 3//1
f 5//8 17//8 16//8
f 5//3 16//3 4//3
f 6//14 18//14 17//14
f 6//5 17//5 5//5
f 7//18 19//18 18//18
f 7//18 18//18 6//18
f 8//6 20//6 19//6
f 8//19 19//19 7//19
f 9//15 21//15 20//15
f 9//7 20//7 8//7
f 10//16 22//16 21//16
f 10//16 21//16 9//16
f 11//17 23//17 22//17
f 11//9 22//9 10//9
f 12//10 24//10 23//10
f 12//11 23//11 11//11
f 13//20 25//20 24//20
f 13//20 24//20 12//20
f 2//12 14//12 25//12
f 2//13 25//13 13//13
