################################
# OBJ generated by split_obj.py
################################
# Faces:    312
# Vertices: 182
# Normals:  34
# UVs:      0
################################

# vertices

v -2.440100 222.032500 934.053600
v -2.314842 125.219660 934.054000
v 1198.034400 1.916923 319.049680
v 1198.034400 1.916923 228.717240
v 1199.443500 1.916923 273.883330
v 1200.852500 1.916923 319.049680
v 1200.852500 1.916923 228.717240
v 1199.443500 96.753040 319.049680
v 1200.852500 191.589160 319.049680
v 1198.034400 191.589160 319.049680
v 1198.034400 96.753040 273.883330
v 1198.034400 191.589160 228.717240
v 1199.443500 96.753040 228.717240
v 1200.852500 191.589160 228.717240
v 1199.443500 191.589160 273.883330
v 1200.852500 96.753040 273.883330
v 753.291200 33.710407 197.656970
v 1090.708700 33.710407 197.657000
v 922.000000 33.710407 197.802730
v 753.291200 33.710407 197.948490
v 1090.708700 33.710407 197.948520
v 753.291200 121.131226 197.802720
v 753.291200 208.552050 197.948490
v 753.291200 208.552050 197.656970
v 922.000000 121.131226 197.656980
v 1090.708700 208.552050 197.657000
v 1090.708700 121.131226 197.802750
v 1090.708700 208.552050 197.948520
v 922.000000 208.552050 197.802730
v 922.000000 121.131226 197.948500
v -2.384241 24.457104 576.692260
v 1655.465700 24.457104 474.964320
v 1655.101600 24.457104 581.781900
v 1655.137500 24.457104 528.372600
v 1655.173500 24.457104 474.963350
v 1654.809300 24.457104 581.780900
v 1655.319600 115.900604 474.963840
v 1655.173500 207.344120 474.963350
v 1655.465700 207.344120 474.964320
v 1655.283600 115.900604 528.373100
v 1655.101600 207.344120 581.781900
v 1654.955400 115.900604 581.781400
v 1654.809300 207.344120 581.780900
v 1655.137500 207.344120 528.372600
v 1654.991300 115.900604 528.372130
v 1655.898900 24.457104 347.851440
v 1655.549400 24.457104 450.396300
v 1655.578100 24.457104 399.123380
v 1655.606700 24.457104 347.850430
v 1655.257200 24.457104 450.395300
v 1655.752800 115.900604 347.850950
v 1655.606700 207.344120 347.850430
v 1655.898900 207.344120 347.851440
v 1655.724100 115.900604 399.123870
v 1655.549400 207.344120 450.396300
v 1655.403300 115.900604 450.395800
v -1.960690 24.457104 452.450530
v 1655.578100 207.344120 399.123380
v 1655.432000 115.900604 399.122860
v 1065.514500 9.479120 1079.610200
v 823.223500 9.479120 1079.610200
v 944.369260 9.479120 1078.968600
v 1065.514500 9.479120 1078.326900
v 823.223500 9.479120 1078.327000
v 1065.514500 100.847270 1078.968500
v 1065.514500 192.215600 1078.326900
v 1065.514500 192.215600 1079.610200
v 944.369260 100.847270 1079.610200
v 823.223500 192.215600 1079.610200
v 823.223500 100.847270 1078.968600
v 823.223500 192.215600 1078.327000
v 944.369260 192.215600 1078.968600
v 944.369260 100.847270 1078.326900
v 1655.257200 207.344120 450.395300
v 1198.034400 1.916923 1025.114000
v 1198.034400 1.916923 931.958700
v 1199.443500 1.916923 978.536200
v 1200.852500 1.916923 1025.114000
v 1200.852500 1.916923 931.958700
v 1199.443500 96.753040 1025.114000
v 1200.852500 191.589160 1025.114000
v 1198.034400 191.589160 1025.114000
v 1198.034400 96.753040 978.536200
v 1198.034400 191.589160 931.958700
v 1199.443500 96.753040 931.958700
v 1200.852500 191.589160 931.958700
v 1199.443500 191.589160 978.536200
v 1200.852500 96.753040 978.536200
v -1.960690 207.344120 452.450530
v -2.318575 207.344120 514.570860
v -2.172466 115.900604 514.571400
v -3.180485 24.457104 724.538900
v -2.773876 24.457104 605.266850
v -2.831071 24.457104 664.903300
v -2.888266 24.457104 724.539860
v -2.481658 24.457104 605.267800
v -3.034376 115.900604 724.539370
v -2.888266 207.344120 724.539860
v -3.180485 207.344120 724.538900
v -2.977181 115.900604 664.902830
v -2.773876 207.344120 605.266850
v -2.627767 115.900604 605.267330
v -2.481658 207.344120 605.267800
v -2.831071 207.344120 664.903300
v -2.684962 115.900604 664.903900
v 802.897770 7.920849 1081.853600
v 575.000370 7.920849 1081.853800
v 688.949040 7.920849 1081.429400
v 802.897770 7.920849 1081.005100
v 575.000370 7.920849 1081.005200
v 802.897770 99.288994 1081.429300
v 802.897770 190.657140 1081.005100
v 802.897770 190.657140 1081.853600
v 688.949040 99.288994 1081.853600
v 575.000370 190.657140 1081.853800
v 575.000370 99.288994 1081.429400
v 575.000370 190.657140 1081.005200
v 688.949040 190.657140 1081.429400
v 688.949040 99.288994 1081.005100
v 1074.043500 4.858093 1084.228600
v 831.752440 4.858093 1084.228600
v 952.898200 4.858093 1083.882000
v 1074.043500 4.858093 1083.535300
v 831.752440 4.858093 1083.535400
v 1074.043500 99.297560 1083.882000
v 1074.043500 193.736820 1083.535300
v 1074.043500 193.736820 1084.228600
v 952.898200 99.297560 1084.228600
v 831.752440 193.736820 1084.228600
v 831.752440 99.297560 1083.882100
v 831.752440 193.736820 1083.535400
v 952.898200 193.736820 1083.882000
v 952.898200 99.297560 1083.535300
v 438.034400 1.916923 322.389370
v 438.034400 1.916923 229.234040
v 439.443480 1.916923 275.811580
v 440.852570 1.916923 322.389370
v 440.852570 1.916923 229.234040
v 439.443480 96.753040 322.389370
v 440.852570 191.589160 322.389370
v 438.034400 191.589160 322.389370
v 438.034400 96.753040 275.811580
v 438.034400 191.589160 229.234040
v 439.443480 96.753040 229.234040
v 440.852570 191.589160 229.234040
v 439.443480 191.589160 275.811580
v 440.852570 96.753040 275.811580
v -2.676460 24.457104 576.691200
v -2.252909 24.457104 452.449550
v -2.318575 24.457104 514.570860
v -1.280449 28.525120 895.180600
v -1.032043 28.525120 822.314800
v -1.030988 28.525120 858.748100
v -1.029932 28.525120 895.181460
v -0.781527 28.525120 822.315700
v -1.155191 125.649050 895.181000
v -1.029932 222.773970 895.181460
v -1.280449 222.773970 895.180600
v -1.156246 125.649050 858.747700
v -1.032043 222.773970 822.314800
v -0.906785 125.649050 822.315250
v -0.781527 222.773970 822.315700
v -1.030988 222.773970 858.748100
v -0.905729 125.649050 858.748540
v -2.530350 115.900604 576.691800
v -2.384241 207.344120 576.692260
v -2.676460 207.344120 576.691200
v -2.464685 115.900604 514.570400
v -2.252909 207.344120 452.449550
v -2.106800 115.900604 452.450040
v -2.691596 28.407833 971.082950
v -2.439121 28.407833 897.023400
v -2.440100 28.407833 934.053600
v -2.441079 28.407833 971.083800
v -2.188604 28.407833 897.024230
v -2.566338 125.219660 971.083400
v -2.441079 222.032500 971.083800
v -2.691596 222.032500 971.082950
v -2.565358 125.219660 934.053160
v -2.439121 222.032500 897.023400
v -2.313863 125.219660 897.023800
v -2.188604 222.032500 897.024230

# normals

vn 0 1 0
vn 0 -1 0
vn -0.0034091 0 0.99999
vn 0.0034091 0 -0.99999
vn -0.99999 0 -0.0034091
vn -0 0 1
vn -1 0 -0
vn 0 0 -1
vn 1 0 0
vn -0.0034091 0 0.99999
vn 0.0034091 0 -0.99999
vn -0 0 1
vn 1e-07 0 -1
vn -1e-07 0 1
vn -0.99999 0 -0.0034089
vn -0.99999 0 -0.0034089
vn 0.0034089 0 -0.99999
vn 0.99999 0 0.0034089
vn 0.99999 0 0.0034089
vn -0.0034089 0 0.99999
vn -1 0 3e-07
vn 1 0 -3e-07
vn -3e-07 0 -1
vn 3e-07 0 1
vn 1 0 1e-07
vn -1 0 -1e-07
vn 0.99999 0 0.0034091
vn 0.99999 0 0.0034091
vn -0.99999 0 -0.0034091
vn -0.99999 0 -0.0034091
vn 0.99999 0 0.0034091
vn -0.0034091 0 0.99999
vn 0.0034091 0 -0.99999
vn 0 0 -1

# uvs



# faces

f 60//2 61//2 62//2
f 63//2 60//2 62//2
f 64//2 63//2 62//2
f 61//2 64//2 62//2
f 60//22 63//22 65//22
f 63//22 66//22 65//22
f 66//22 67//22 65//22
f 67//22 60//22 65//22
f 61//24 60//24 68//24
f 60//24 67//24 68//24
f 67//24 69//24 68//24
f 69//24 61//24 68//24
f 64//21 61//21 70//21
f 61//21 69//21 70//21
f 69//21 71//21 70//21
f 71//21 64//21 70//21
f 69//1 67//1 72//1
f 67//1 66//1 72//1
f 66//1 71//1 72//1
f 71//1 69//1 72//1
f 63//23 64//23 73//23
f 64//23 71//23 73//23
f 71//23 66//23 73//23
f 66//23 63//23 73//23
f 106//2 107//2 108//2
f 109//2 106//2 108//2
f 110//2 109//2 108//2
f 107//2 110//2 108//2
f 106//22 109//22 111//22
f 109//22 112//22 111//22
f 112//22 113//22 111//22
f 113//22 106//22 111//22
f 107//24 106//24 114//24
f 106//24 113//24 114//24
f 113//24 115//24 114//24
f 115//24 107//24 114//24
f 110//21 107//21 116//21
f 107//21 115//21 116//21
f 115//21 117//21 116//21
f 117//21 110//21 116//21
f 115//1 113//1 118//1
f 113//1 112//1 118//1
f 112//1 117//1 118//1
f 117//1 115//1 118//1
f 109//23 110//23 119//23
f 110//23 117//23 119//23
f 117//23 112//23 119//23
f 112//23 109//23 119//23
f 120//2 121//2 122//2
f 123//2 120//2 122//2
f 124//2 123//2 122//2
f 121//2 124//2 122//2
f 120//22 123//22 125//22
f 123//22 126//22 125//22
f 126//22 127//22 125//22
f 127//22 120//22 125//22
f 121//24 120//24 128//24
f 120//24 127//24 128//24
f 127//24 129//24 128//24
f 129//24 121//24 128//24
f 124//21 121//21 130//21
f 121//21 129//21 130//21
f 129//21 131//21 130//21
f 131//21 124//21 130//21
f 129//1 127//1 132//1
f 127//1 126//1 132//1
f 126//1 131//1 132//1
f 131//1 129//1 132//1
f 123//23 124//23 133//23
f 124//23 131//23 133//23
f 131//23 126//23 133//23
f 126//23 123//23 133//23
f 75//2 76//2 77//2
f 78//2 75//2 77//2
f 79//2 78//2 77//2
f 76//2 79//2 77//2
f 75//6 78//6 80//6
f 78//6 81//6 80//6
f 81//6 82//6 80//6
f 82//6 75//6 80//6
f 76//7 75//7 83//7
f 75//7 82//7 83//7
f 82//7 84//7 83//7
f 84//7 76//7 83//7
f 79//8 76//8 85//8
f 76//8 84//8 85//8
f 84//8 86//8 85//8
f 86//8 79//8 85//8
f 84//1 82//1 87//1
f 82//1 81//1 87//1
f 81//1 86//1 87//1
f 86//1 84//1 87//1
f 78//9 79//9 88//9
f 79//9 86//9 88//9
f 86//9 81//9 88//9
f 81//9 78//9 88//9
f 17//2 18//2 19//2
f 20//2 17//2 19//2
f 21//2 20//2 19//2
f 18//2 21//2 19//2
f 17//26 20//26 22//26
f 20//26 23//26 22//26
f 23//26 24//26 22//26
f 24//26 17//26 22//26
f 18//13 17//13 25//13
f 17//13 24//13 25//13
f 24//13 26//13 25//13
f 26//13 18//13 25//13
f 21//25 18//25 27//25
f 18//25 26//25 27//25
f 26//25 28//25 27//25
f 28//25 21//25 27//25
f 26//1 24//1 29//1
f 24//1 23//1 29//1
f 23//1 28//1 29//1
f 28//1 26//1 29//1
f 20//14 21//14 30//14
f 21//14 28//14 30//14
f 28//14 23//14 30//14
f 23//14 20//14 30//14
f 134//2 135//2 136//2
f 137//2 134//2 136//2
f 138//2 137//2 136//2
f 135//2 138//2 136//2
f 134//6 137//6 139//6
f 137//6 140//6 139//6
f 140//6 141//6 139//6
f 141//6 134//6 139//6
f 135//7 134//7 142//7
f 134//7 141//7 142//7
f 141//7 143//7 142//7
f 143//7 135//7 142//7
f 138//8 135//8 144//8
f 135//8 143//8 144//8
f 143//8 145//8 144//8
f 145//8 138//8 144//8
f 143//1 141//1 146//1
f 141//1 140//1 146//1
f 140//1 145//1 146//1
f 145//1 143//1 146//1
f 137//9 138//9 147//9
f 138//9 145//9 147//9
f 145//9 140//9 147//9
f 140//9 137//9 147//9
f 3//2 4//2 5//2
f 6//2 3//2 5//2
f 7//2 6//2 5//2
f 4//2 7//2 5//2
f 3//12 6//12 8//12
f 6//12 9//12 8//12
f 9//12 10//12 8//12
f 10//12 3//12 8//12
f 4//7 3//7 11//7
f 3//7 10//7 11//7
f 10//7 12//7 11//7
f 12//7 4//7 11//7
f 7//34 4//34 13//34
f 4//34 12//34 13//34
f 12//34 14//34 13//34
f 14//34 7//34 13//34
f 12//1 10//1 15//1
f 10//1 9//1 15//1
f 9//1 14//1 15//1
f 14//1 12//1 15//1
f 6//9 7//9 16//9
f 7//9 14//9 16//9
f 14//9 9//9 16//9
f 9//9 6//9 16//9
f 151//2 152//2 153//2
f 154//2 151//2 153//2
f 155//2 154//2 153//2
f 152//2 155//2 153//2
f 151//3 154//3 156//3
f 154//3 157//3 156//3
f 157//3 158//3 156//3
f 158//3 151//3 156//3
f 152//5 151//5 159//5
f 151//30 158//30 159//30
f 158//5 160//5 159//5
f 160//5 152//5 159//5
f 155//4 152//4 161//4
f 152//4 160//4 161//4
f 160//4 162//4 161//4
f 162//4 155//4 161//4
f 160//1 158//1 163//1
f 158//1 157//1 163//1
f 157//1 162//1 163//1
f 162//1 160//1 163//1
f 154//27 155//27 164//27
f 155//27 162//27 164//27
f 162//27 157//27 164//27
f 157//31 154//31 164//31
f 171//2 172//2 173//2
f 174//2 171//2 173//2
f 175//2 174//2 173//2
f 172//2 175//2 173//2
f 171//10 174//10 176//10
f 174//10 177//10 176//10
f 177//3 178//3 176//3
f 178//10 171//10 176//10
f 172//5 171//5 179//5
f 171//5 178//5 179//5
f 178//5 180//5 179//5
f 180//5 172//5 179//5
f 175//11 172//11 181//11
f 172//11 180//11 181//11
f 180//4 182//4 181//4
f 182//11 175//11 181//11
f 180//1 178//1 1//1
f 178//1 177//1 1//1
f 177//1 182//1 1//1
f 182//1 180//1 1//1
f 174//27 175//27 2//27
f 175//27 182//27 2//27
f 182//27 177//27 2//27
f 177//27 174//27 2//27
f 148//2 149//2 150//2
f 31//2 148//2 150//2
f 57//2 31//2 150//2
f 149//2 57//2 150//2
f 148//32 31//32 165//32
f 31//32 166//32 165//32
f 166//32 167//32 165//32
f 167//32 148//32 165//32
f 149//29 148//29 168//29
f 148//30 167//30 168//30
f 167//30 169//30 168//30
f 169//30 149//30 168//30
f 57//33 149//33 170//33
f 149//33 169//33 170//33
f 169//33 89//33 170//33
f 89//33 57//33 170//33
f 169//1 167//1 90//1
f 167//1 166//1 90//1
f 166//1 89//1 90//1
f 89//1 169//1 90//1
f 31//28 57//28 91//28
f 57//31 89//31 91//31
f 89//31 166//31 91//31
f 166//31 31//31 91//31
f 92//2 93//2 94//2
f 95//2 92//2 94//2
f 96//2 95//2 94//2
f 93//2 96//2 94//2
f 92//32 95//32 97//32
f 95//32 98//32 97//32
f 98//32 99//32 97//32
f 99//32 92//32 97//32
f 93//30 92//30 100//30
f 92//29 99//29 100//29
f 99//29 101//29 100//29
f 101//29 93//29 100//29
f 96//33 93//33 102//33
f 93//33 101//33 102//33
f 101//33 103//33 102//33
f 103//33 96//33 102//33
f 101//1 99//1 104//1
f 99//1 98//1 104//1
f 98//1 103//1 104//1
f 103//1 101//1 104//1
f 95//31 96//31 105//31
f 96//28 103//28 105//28
f 103//28 98//28 105//28
f 98//28 95//28 105//28
f 32//2 33//2 34//2
f 35//2 32//2 34//2
f 36//2 35//2 34//2
f 33//2 36//2 34//2
f 32//17 35//17 37//17
f 35//17 38//17 37//17
f 38//17 39//17 37//17
f 39//17 32//17 37//17
f 33//18 32//18 40//18
f 32//19 39//19 40//19
f 39//19 41//19 40//19
f 41//19 33//19 40//19
f 36//20 33//20 42//20
f 33//20 41//20 42//20
f 41//20 43//20 42//20
f 43//20 36//20 42//20
f 41//1 39//1 44//1
f 39//1 38//1 44//1
f 38//1 43//1 44//1
f 43//1 41//1 44//1
f 35//15 36//15 45//15
f 36//16 43//16 45//16
f 43//16 38//16 45//16
f 38//16 35//16 45//16
f 46//2 47//2 48//2
f 49//2 46//2 48//2
f 50//2 49//2 48//2
f 47//2 50//2 48//2
f 46//17 49//17 51//17
f 49//17 52//17 51//17
f 52//17 53//17 51//17
f 53//17 46//17 51//17
f 47//19 46//19 54//19
f 46//18 53//18 54//18
f 53//18 55//18 54//18
f 55//18 47//18 54//18
f 50//20 47//20 56//20
f 47//20 55//20 56//20
f 55//20 74//20 56//20
f 74//20 50//20 56//20
f 55//1 53//1 58//1
f 53//1 52//1 58//1
f 52//1 74//1 58//1
f 74//1 55//1 58//1
f 49//16 50//16 59//16
f 50//15 74//15 59//15
f 74//15 52//15 59//15
f 52//15 49//15 59//15
