################################
# OBJ generated by split_obj.py
################################
# Faces:    256
# Vertices: 192
# Normals:  94
# UVs:      0
################################

# vertices

v 90.288500 1.814602 700.719000
v 90.366260 1.814602 700.835400
v 90.230316 1.449661 700.835400
v 90.152550 1.449661 700.719000
v 90.393570 1.814602 700.972700
v 90.257630 1.449661 700.972700
v 90.366260 1.814602 701.110050
v 90.230316 1.449661 701.110050
v 90.288500 1.814602 701.226440
v 90.152550 1.449661 701.226440
v 90.172104 1.814602 701.304260
v 90.036160 1.449661 701.304260
v 90.034810 1.814602 701.331540
v 89.898870 1.449661 701.331540
v 89.897530 1.814602 701.304260
v 89.761580 1.449661 701.304260
v 89.781136 1.814602 701.226440
v 89.645195 1.449661 701.226440
v 89.703370 1.814602 701.110050
v 89.567430 1.449661 701.110050
v 89.676060 1.814602 700.972700
v 89.540115 1.449661 700.972700
v 89.703370 1.814602 700.835400
v 89.567430 1.449661 700.835400
v 89.781136 1.814602 700.719000
v 89.645195 1.449661 700.719000
v 89.897530 1.814602 700.641240
v 89.761580 1.449661 700.641240
v 90.034810 1.814602 700.613900
v 89.898870 1.449661 700.613900
v 90.172104 1.814602 700.641240
v 90.036160 1.449661 700.641240
v 90.531876 1.141609 700.710500
v 90.383354 1.141609 700.488160
v 90.584030 1.141609 700.972700
v 90.531876 1.141609 701.235000
v 90.383354 1.141609 701.457300
v 90.161064 1.141609 701.605830
v 89.898870 1.141609 701.658000
v 89.636670 1.141609 701.605830
v 89.414400 1.141609 701.457300
v 89.265880 1.141609 701.235000
v 89.213720 1.141609 700.972700
v 89.265880 1.141609 700.710500
v 89.414400 1.141609 700.488160
v 89.636670 1.141609 700.339600
v 89.898870 1.141609 700.287500
v 90.161070 1.141609 700.339600
v 138.743210 1.449661 700.641240
v 138.618300 1.141609 700.339600
v 138.396030 1.141609 700.488160
v 138.626830 1.449661 700.719000
v 138.880500 1.449661 700.613900
v 138.880500 1.141609 700.287500
v 139.017790 1.449661 700.641240
v 139.142700 1.141609 700.339600
v 139.134170 1.449661 700.719000
v 139.364970 1.141609 700.488160
v 139.211940 1.449661 700.835400
v 139.513500 1.141609 700.710500
v 139.239260 1.449661 700.972700
v 139.565660 1.141609 700.972700
v 139.211940 1.449661 701.110050
v 139.513500 1.141609 701.235000
v 139.134170 1.449661 701.226440
v 139.364970 1.141609 701.457300
v 139.017790 1.449661 701.304260
v 139.142700 1.141609 701.605830
v 138.880500 1.449661 701.331540
v 138.880500 1.141609 701.658000
v 138.743210 1.449661 701.304260
v 138.618300 1.141609 701.605830
v 138.626830 1.449661 701.226440
v 138.396030 1.141609 701.457300
v 138.549060 1.449661 701.110050
v 138.247500 1.141609 701.235000
v 138.521740 1.449661 700.972700
v 138.195340 1.141609 700.972700
v 138.549060 1.449661 700.835400
v 138.247500 1.141609 700.710500
v 138.607270 1.814602 700.641240
v 138.490880 1.814602 700.719000
v 138.744550 1.814602 700.613900
v 138.881850 1.814602 700.641240
v 138.998230 1.814602 700.719000
v 139.076000 1.814602 700.835400
v 139.103320 1.814602 700.972700
v 139.076000 1.814602 701.110050
v 138.998230 1.814602 701.226440
v 138.881850 1.814602 701.304260
v 138.744550 1.814602 701.331540
v 138.607270 1.814602 701.304260
v 138.490880 1.814602 701.226440
v 138.413120 1.814602 701.110050
v 138.385800 1.814602 700.972700
v 138.413120 1.814602 700.835400
v 138.490880 1.814600 656.846440
v 138.413120 1.814600 656.730040
v 138.549060 1.449660 656.730040
v 138.626830 1.449660 656.846440
v 138.385800 1.814600 656.592700
v 138.521740 1.449660 656.592700
v 138.413120 1.814600 656.455400
v 138.549060 1.449660 656.455400
v 138.490880 1.814600 656.339000
v 138.626830 1.449660 656.339000
v 138.607270 1.814600 656.261170
v 138.743210 1.449660 656.261170
v 138.744550 1.814600 656.233900
v 138.880500 1.449660 656.233900
v 138.881850 1.814600 656.261170
v 139.017790 1.449660 656.261170
v 138.998230 1.814600 656.339000
v 139.134170 1.449660 656.339000
v 139.076000 1.814600 656.455400
v 139.211940 1.449660 656.455400
v 139.103320 1.814600 656.592700
v 139.239260 1.449660 656.592700
v 139.076000 1.814600 656.730040
v 139.211940 1.449660 656.730040
v 138.998230 1.814600 656.846440
v 139.134170 1.449660 656.846440
v 138.881850 1.814600 656.924200
v 139.017790 1.449660 656.924200
v 138.744550 1.814600 656.951540
v 138.880500 1.449660 656.951540
v 138.607270 1.814600 656.924200
v 138.743210 1.449660 656.924200
v 138.247500 1.141607 656.854900
v 138.396030 1.141607 657.077300
v 138.195340 1.141607 656.592700
v 138.247500 1.141607 656.330440
v 138.396030 1.141607 656.108150
v 138.618300 1.141607 655.959600
v 138.880500 1.141607 655.907400
v 139.142700 1.141607 655.959600
v 139.364970 1.141607 656.108150
v 139.513500 1.141607 656.330440
v 139.565660 1.141607 656.592700
v 139.513500 1.141607 656.854900
v 139.364970 1.141607 657.077300
v 139.142700 1.141607 657.225800
v 138.880500 1.141607 657.277950
v 138.618300 1.141607 657.225800
v 90.036160 1.449660 656.924200
v 90.161070 1.141607 657.225800
v 90.383354 1.141607 657.077300
v 90.152550 1.449660 656.846440
v 89.898870 1.449660 656.951540
v 89.898870 1.141607 657.277950
v 89.761580 1.449660 656.924200
v 89.636670 1.141607 657.225800
v 89.645195 1.449660 656.846440
v 89.414400 1.141607 657.077300
v 89.567430 1.449660 656.730040
v 89.265880 1.141607 656.854900
v 89.540115 1.449660 656.592700
v 89.213720 1.141607 656.592700
v 89.567430 1.449660 656.455400
v 89.265880 1.141607 656.330440
v 89.645195 1.449660 656.339000
v 89.414400 1.141607 656.108150
v 89.761580 1.449660 656.261170
v 89.636670 1.141607 655.959600
v 89.898870 1.449660 656.233900
v 89.898870 1.141607 655.907400
v 90.036160 1.449660 656.261170
v 90.161064 1.141607 655.959600
v 90.152550 1.449660 656.339000
v 90.383354 1.141607 656.108150
v 90.230316 1.449660 656.455400
v 90.531876 1.141607 656.330440
v 90.257630 1.449660 656.592700
v 90.584030 1.141607 656.592700
v 90.230316 1.449660 656.730040
v 90.531876 1.141607 656.854900
v 90.172104 1.814600 656.924200
v 90.288500 1.814600 656.846440
v 90.034810 1.814600 656.951540
v 89.897530 1.814600 656.924200
v 89.781136 1.814600 656.846440
v 89.703370 1.814600 656.730040
v 89.676060 1.814600 656.592700
v 89.703370 1.814600 656.455400
v 89.781136 1.814600 656.339000
v 89.897530 1.814600 656.261170
v 90.034810 1.814600 656.233900
v 90.172104 1.814600 656.261170
v 90.288500 1.814600 656.339000
v 90.366260 1.814600 656.455400
v 90.393570 1.814600 656.592700
v 90.366260 1.814600 656.730040

# normals

vn 0.47689 -0.73322 -0.48473
vn 0.59736 -0.76175 -0.25078
vn 0.9023 0.21911 -0.37127
vn 0.68787 0.25213 -0.68064
vn 0.63656 -0.77122 0
vn 0.97813 0.20797 0
vn 0.59736 -0.76175 0.25078
vn 0.9023 0.21911 0.37127
vn 0.47689 -0.73322 0.48473
vn 0.68787 0.25213 0.68064
vn 0.27202 -0.68704 0.67378
vn 0.3723 0.30486 0.87662
vn -0.0056153 -0.62875 0.77759
vn 0.011504 0.37063 0.92871
vn -0.31793 -0.56907 0.75834
vn -0.3324 0.4377 0.83542
vn -0.6053 -0.51943 0.60315
vn -0.60746 0.49328 0.62262
vn -0.80677 -0.48757 0.33375
vn -0.7818 0.52878 0.33043
vn -0.87907 -0.47669 0
vn -0.84115 0.54081 0
vn -0.80677 -0.48757 -0.33375
vn -0.7818 0.52878 -0.33043
vn -0.60531 -0.51941 -0.60316
vn -0.60747 0.49326 -0.62263
vn -0.31793 -0.56907 -0.75834
vn -0.3324 0.4377 -0.83542
vn -0.0056153 -0.62875 -0.77759
vn 0.011504 0.37063 -0.92871
vn 0.27202 -0.68704 -0.67378
vn 0.3723 0.30486 -0.87662
vn 0.55199 0.80188 -0.22869
vn 0.42247 0.80187 -0.42252
vn 0.59748 0.80189 0
vn 0.55199 0.80188 0.22869
vn 0.42247 0.80187 0.42252
vn 0.22864 0.80184 0.55206
vn 0 0.80183 0.59755
vn -0.22864 0.80184 0.55206
vn -0.42248 0.80186 0.42253
vn -0.55199 0.80188 0.22869
vn -0.59748 0.80189 0
vn -0.55199 0.80188 -0.22869
vn -0.42248 0.80186 -0.42253
vn -0.22863 0.80185 -0.55205
vn 0 0.80183 -0.59755
vn 0.22863 0.80185 -0.55205
vn -0.3723 0.30486 -0.87662
vn -0.68785 0.25213 -0.68065
vn -0.011504 0.37063 -0.92871
vn 0.3324 0.4377 -0.83542
vn 0.22864 0.80184 -0.55206
vn 0.60746 0.49328 -0.62262
vn 0.42248 0.80185 -0.42255
vn 0.7818 0.52878 -0.33043
vn 0.84115 0.54081 0
vn 0.7818 0.52878 0.33043
vn 0.60746 0.49328 0.62262
vn 0.42248 0.80186 0.42253
vn 0.3324 0.4377 0.83542
vn -0.011504 0.37063 0.92871
vn -0.3723 0.30486 0.87662
vn -0.68787 0.25213 0.68064
vn -0.9023 0.21911 0.37127
vn -0.97813 0.20797 0
vn -0.9023 0.21911 -0.37127
vn -0.27202 -0.68704 -0.67378
vn -0.47689 -0.73322 -0.48473
vn 0.0056153 -0.62875 -0.77759
vn 0.31793 -0.56907 -0.75834
vn 0.60531 -0.51941 -0.60316
vn 0.80677 -0.48757 -0.33375
vn 0.87907 -0.47669 0
vn 0.80677 -0.48757 0.33375
vn 0.60531 -0.51941 0.60316
vn 0.31793 -0.56907 0.75834
vn 0.0056153 -0.62875 0.77759
vn -0.27202 -0.68704 0.67378
vn -0.47689 -0.73322 0.48473
vn -0.59738 -0.76174 0.25078
vn -0.63656 -0.77122 0
vn -0.59738 -0.76174 -0.25078
vn -0.68785 0.25213 0.68065
vn -0.68787 0.25213 -0.68064
vn -0.22864 0.80184 -0.55206
vn 0.42248 0.80186 -0.42253
vn 0.42248 0.80185 0.42255
vn -0.22863 0.80185 0.55205
vn 0.22863 0.80185 0.55205
vn -0.60747 0.49326 0.62263
vn -0.60746 0.49328 -0.62262
vn -0.60531 -0.51941 0.60316
vn -0.6053 -0.51943 -0.60315

# uvs



# faces

f 1//1 2//2 3//3
f 1//1 3//3 4//4
f 2//2 5//5 6//6
f 2//2 6//6 3//3
f 5//5 7//7 8//8
f 5//5 8//8 6//6
f 7//7 9//9 10//10
f 7//7 10//10 8//8
f 9//9 11//11 12//12
f 9//9 12//12 10//10
f 11//11 13//13 14//14
f 11//11 14//14 12//12
f 13//13 15//15 16//16
f 13//13 16//16 14//14
f 15//15 17//17 18//18
f 15//15 18//18 16//16
f 17//17 19//19 20//20
f 17//17 20//20 18//18
f 19//19 21//21 22//22
f 19//19 22//22 20//20
f 21//21 23//23 24//24
f 21//21 24//24 22//22
f 23//23 25//25 26//26
f 23//23 26//26 24//24
f 25//25 27//27 28//28
f 25//25 28//28 26//26
f 27//27 29//29 30//30
f 27//27 30//30 28//28
f 29//29 31//31 32//32
f 29//29 32//32 30//30
f 31//31 1//1 4//4
f 31//31 4//4 32//32
f 4//4 3//3 33//33
f 4//4 33//33 34//34
f 3//3 6//6 35//35
f 3//3 35//35 33//33
f 6//6 8//8 36//36
f 6//6 36//36 35//35
f 8//8 10//10 37//37
f 8//8 37//37 36//36
f 10//10 12//12 38//38
f 10//10 38//38 37//37
f 12//12 14//14 39//39
f 12//12 39//39 38//38
f 14//14 16//16 40//40
f 14//14 40//40 39//39
f 16//16 18//18 41//41
f 16//16 41//41 40//40
f 18//18 20//20 42//42
f 18//18 42//42 41//41
f 20//20 22//22 43//43
f 20//20 43//43 42//42
f 22//22 24//24 44//44
f 22//22 44//44 43//43
f 24//24 26//26 45//45
f 24//24 45//45 44//44
f 26//26 28//28 46//46
f 26//26 46//46 45//45
f 28//28 30//30 47//47
f 28//28 47//47 46//46
f 30//30 32//32 48//48
f 30//30 48//48 47//47
f 32//32 4//4 34//34
f 32//32 34//34 48//48
f 49//49 50//46 51//45
f 49//49 51//45 52//50
f 53//51 54//47 50//46
f 53//51 50//46 49//49
f 55//52 56//53 54//47
f 55//52 54//47 53//51
f 57//54 58//55 56//53
f 57//54 56//53 55//52
f 59//56 60//33 58//55
f 59//56 58//55 57//54
f 61//57 62//35 60//33
f 61//57 60//33 59//56
f 63//58 64//36 62//35
f 63//58 62//35 61//57
f 65//59 66//60 64//36
f 65//59 64//36 63//58
f 67//61 68//38 66//60
f 67//61 66//60 65//59
f 69//62 70//39 68//38
f 69//62 68//38 67//61
f 71//63 72//40 70//39
f 71//63 70//39 69//62
f 73//64 74//41 72//40
f 73//64 72//40 71//63
f 75//65 76//42 74//41
f 75//65 74//41 73//64
f 77//66 78//43 76//42
f 77//66 76//42 75//65
f 79//67 80//44 78//43
f 79//67 78//43 77//66
f 52//50 51//45 80//44
f 52//50 80//44 79//67
f 81//68 49//49 52//50
f 81//68 52//50 82//69
f 83//70 53//51 49//49
f 83//70 49//49 81//68
f 84//71 55//52 53//51
f 84//71 53//51 83//70
f 85//72 57//54 55//52
f 85//72 55//52 84//71
f 86//73 59//56 57//54
f 86//73 57//54 85//72
f 87//74 61//57 59//56
f 87//74 59//56 86//73
f 88//75 63//58 61//57
f 88//75 61//57 87//74
f 89//76 65//59 63//58
f 89//76 63//58 88//75
f 90//77 67//61 65//59
f 90//77 65//59 89//76
f 91//78 69//62 67//61
f 91//78 67//61 90//77
f 92//79 71//63 69//62
f 92//79 69//62 91//78
f 93//80 73//64 71//63
f 93//80 71//63 92//79
f 94//81 75//65 73//64
f 94//81 73//64 93//80
f 95//82 77//66 75//65
f 95//82 75//65 94//81
f 96//83 79//67 77//66
f 96//83 77//66 95//82
f 82//69 52//50 79//67
f 82//69 79//67 96//83
f 97//80 98//81 99//65
f 97//80 99//65 100//84
f 98//81 101//82 102//66
f 98//81 102//66 99//65
f 101//82 103//83 104//67
f 101//82 104//67 102//66
f 103//83 105//69 106//85
f 103//83 106//85 104//67
f 105//69 107//68 108//49
f 105//69 108//49 106//85
f 107//68 109//70 110//51
f 107//68 110//51 108//49
f 109//70 111//71 112//52
f 109//70 112//52 110//51
f 111//71 113//72 114//54
f 111//71 114//54 112//52
f 113//72 115//73 116//56
f 113//72 116//56 114//54
f 115//73 117//74 118//57
f 115//73 118//57 116//56
f 117//74 119//75 120//58
f 117//74 120//58 118//57
f 119//75 121//76 122//59
f 119//75 122//59 120//58
f 121//76 123//77 124//61
f 121//76 124//61 122//59
f 123//77 125//78 126//62
f 123//77 126//62 124//61
f 125//78 127//79 128//63
f 125//78 128//63 126//62
f 127//79 97//80 100//84
f 127//79 100//84 128//63
f 100//84 99//65 129//42
f 100//84 129//42 130//41
f 99//65 102//66 131//43
f 99//65 131//43 129//42
f 102//66 104//67 132//44
f 102//66 132//44 131//43
f 104//67 106//85 133//45
f 104//67 133//45 132//44
f 106//85 108//49 134//86
f 106//85 134//86 133//45
f 108//49 110//51 135//47
f 108//49 135//47 134//86
f 110//51 112//52 136//53
f 110//51 136//53 135//47
f 112//52 114//54 137//87
f 112//52 137//87 136//53
f 114//54 116//56 138//33
f 114//54 138//33 137//87
f 116//56 118//57 139//35
f 116//56 139//35 138//33
f 118//57 120//58 140//36
f 118//57 140//36 139//35
f 120//58 122//59 141//88
f 120//58 141//88 140//36
f 122//59 124//61 142//38
f 122//59 142//38 141//88
f 124//61 126//62 143//39
f 124//61 143//39 142//38
f 126//62 128//63 144//89
f 126//62 144//89 143//39
f 128//63 100//84 130//41
f 128//63 130//41 144//89
f 145//12 146//90 147//37
f 145//12 147//37 148//10
f 149//14 150//39 146//90
f 149//14 146//90 145//12
f 151//16 152//89 150//39
f 151//16 150//39 149//14
f 153//91 154//41 152//89
f 153//91 152//89 151//16
f 155//20 156//42 154//41
f 155//20 154//41 153//91
f 157//22 158//43 156//42
f 157//22 156//42 155//20
f 159//24 160//44 158//43
f 159//24 158//43 157//22
f 161//92 162//45 160//44
f 161//92 160//44 159//24
f 163//28 164//86 162//45
f 163//28 162//45 161//92
f 165//30 166//47 164//86
f 165//30 164//86 163//28
f 167//32 168//53 166//47
f 167//32 166//47 165//30
f 169//4 170//87 168//53
f 169//4 168//53 167//32
f 171//3 172//33 170//87
f 171//3 170//87 169//4
f 173//6 174//35 172//33
f 173//6 172//33 171//3
f 175//8 176//36 174//35
f 175//8 174//35 173//6
f 148//10 147//37 176//36
f 148//10 176//36 175//8
f 177//11 145//12 148//10
f 177//11 148//10 178//9
f 179//13 149//14 145//12
f 179//13 145//12 177//11
f 180//15 151//16 149//14
f 180//15 149//14 179//13
f 181//93 153//91 151//16
f 181//93 151//16 180//15
f 182//19 155//20 153//91
f 182//19 153//91 181//93
f 183//21 157//22 155//20
f 183//21 155//20 182//19
f 184//23 159//24 157//22
f 184//23 157//22 183//21
f 185//94 161//92 159//24
f 185//94 159//24 184//23
f 186//27 163//28 161//92
f 186//27 161//92 185//94
f 187//29 165//30 163//28
f 187//29 163//28 186//27
f 188//31 167//32 165//30
f 188//31 165//30 187//29
f 189//1 169//4 167//32
f 189//1 167//32 188//31
f 190//2 171//3 169//4
f 190//2 169//4 189//1
f 191//5 173//6 171//3
f 191//5 171//3 190//2
f 192//7 175//8 173//6
f 192//7 173//6 191//5
f 178//9 148//10 175//8
f 178//9 175//8 192//7
