################################
# OBJ generated by split_obj.py
################################
# Faces:    100
# Vertices: 64
# Normals:  6
# UVs:      42
################################

# vertices

v 84.129470 86.600000 792.468200
v 84.129470 86.600000 735.988340
v 83.129470 86.600000 735.988340
v 140.129560 69.600000 792.468200
v 140.129560 69.600000 735.988400
v 83.129470 69.600000 792.468200
v 83.129470 68.600000 792.468200
v 83.129470 69.600000 735.988340
v 83.129470 68.600000 735.988340
v 131.729500 86.799995 792.468200
v 131.729500 68.799995 792.468200
v 132.729500 68.799995 792.468200
v 132.729500 86.799995 792.468200
v 132.729500 68.799995 735.988400
v 132.729500 86.799995 735.988400
v 131.729500 68.799995 735.988400
v 131.729500 86.799995 735.988400
v 130.729500 86.799995 792.468200
v 130.729500 68.799995 792.468200
v 130.729500 68.799995 735.988400
v 130.729500 86.799995 735.988400
v 119.329510 86.600000 792.468200
v 119.329510 68.600000 792.468200
v 120.329510 68.600000 792.468200
v 120.329510 86.600000 792.468200
v 120.329510 68.600000 735.988340
v 120.329510 86.600000 735.988340
v 119.329510 68.600000 735.988340
v 119.329510 86.600000 735.988340
v 118.329510 86.600000 792.468200
v 118.329510 68.600000 792.468200
v 118.329510 68.600000 735.988340
v 118.329510 86.600000 735.988340
v 92.929520 86.999990 792.468200
v 92.929520 68.999990 792.468200
v 93.929520 68.999990 792.468200
v 93.929520 86.999990 792.468200
v 93.929520 68.999990 735.988340
v 93.929520 86.999990 735.988340
v 92.929520 68.999990 735.988340
v 92.929520 86.999990 735.988340
v 91.929520 86.999990 792.468200
v 91.929520 68.999990 792.468200
v 91.929520 68.999990 735.988340
v 91.929520 86.999990 735.988340
v 106.929520 86.799995 792.468200
v 106.929520 68.799995 792.468200
v 107.929520 68.799995 792.468200
v 107.929520 86.799995 792.468200
v 107.929520 68.799995 735.988340
v 107.929520 86.799995 735.988340
v 106.929520 68.799995 735.988340
v 106.929520 86.799995 735.988340
v 105.929520 86.799995 792.468200
v 105.929520 68.799995 792.468200
v 105.929520 68.799995 735.988340
v 105.929520 86.799995 735.988340
v 140.129560 68.600000 792.468200
v 140.129560 68.600000 735.988400
v 83.129470 68.799995 792.468200
v 84.129470 68.799995 792.468200
v 84.129470 68.799995 735.988340
v 83.129470 68.799995 735.988340
v 83.129470 86.600000 792.468200

# normals

vn 0 1 0
vn 1e-07 0 -1
vn 0 -1 0
vn -1 0 -1e-07
vn 1 0 1e-07
vn -1e-07 0 1

# uvs

vt 43.5 57.5
vt 0 0
vt 67.9 0
vt 67.9 57.5
vt 68.9 57.5
vt 69.9 0
vt 69.9 57.5
vt 68.9 0
vt 53.9 0
vt 53.9 57.5
vt 54.9 57.5
vt 55.9 0
vt 55.9 57.5
vt 21.7 0
vt 21.7 57.5
vt 78.7 0
vt 77.7 0
vt 77.7 57.5
vt 78.7 57.5
vt -0.67681 0
vt -0.67681 2.2287
vt 54.9 0
vt -2.1673 2.2287
vt -2.1673 0
vt 30.1 0
vt 29.1 0
vt -0.68441 0
vt -0 2.2287
vt -0.68441 2.2287
vt 0.038023 0
vt 0.038023 2.2287
vt 29.1 57.5
vt 30.1 57.5
vt 31.1 0
vt 0.68441 0
vt 0.68441 2.2287
vt 31.1 57.5
vt 42.5 0
vt 41.5 0
vt 41.5 57.5
vt 42.5 57.5
vt 43.5 0

# faces

f 10/25/6 11/25/6 12/26/6
f 10/25/6 12/26/6 13/26/6
f 13/27/5 12/2/5 14/28/5
f 13/27/5 14/28/5 15/29/5
f 12/2/3 11/30/3 16/31/3
f 12/2/3 16/31/3 14/28/3
f 10/2/1 13/30/1 15/31/1
f 10/2/1 15/31/1 17/28/1
f 15/32/2 14/32/2 16/33/2
f 15/32/2 16/33/2 17/33/2
f 18/34/6 19/34/6 11/25/6
f 18/34/6 11/25/6 10/25/6
f 11/2/3 19/30/3 20/31/3
f 11/2/3 20/31/3 16/28/3
f 19/2/4 18/35/4 21/36/4
f 19/2/4 21/36/4 20/28/4
f 18/2/1 10/30/1 17/31/1
f 18/2/1 17/31/1 21/28/1
f 17/33/2 16/33/2 20/37/2
f 17/33/2 20/37/2 21/37/2
f 22/38/6 23/38/6 24/39/6
f 22/38/6 24/39/6 25/39/6
f 25/27/5 24/2/5 26/28/5
f 25/27/5 26/28/5 27/29/5
f 24/2/3 23/30/3 28/31/3
f 24/2/3 28/31/3 26/28/3
f 22/2/1 25/30/1 27/31/1
f 22/2/1 27/31/1 29/28/1
f 27/40/2 26/40/2 28/41/2
f 27/40/2 28/41/2 29/41/2
f 30/42/6 31/42/6 23/38/6
f 30/42/6 23/38/6 22/38/6
f 23/2/3 31/30/3 32/31/3
f 23/2/3 32/31/3 28/28/3
f 31/2/4 30/35/4 33/36/4
f 31/2/4 33/36/4 32/28/4
f 30/2/1 22/30/1 29/31/1
f 30/2/1 29/31/1 33/28/1
f 29/41/2 28/41/2 32/1/2
f 29/41/2 32/1/2 33/1/2
f 34/8/6 35/8/6 36/3/6
f 34/8/6 36/3/6 37/3/6
f 37/27/5 36/2/5 38/28/5
f 37/27/5 38/28/5 39/29/5
f 36/2/3 35/30/3 40/31/3
f 36/2/3 40/31/3 38/28/3
f 34/2/1 37/30/1 39/31/1
f 34/2/1 39/31/1 41/28/1
f 39/4/2 38/4/2 40/5/2
f 39/4/2 40/5/2 41/5/2
f 42/6/6 43/6/6 35/8/6
f 42/6/6 35/8/6 34/8/6
f 35/2/3 43/30/3 44/31/3
f 35/2/3 44/31/3 40/28/3
f 43/2/4 42/35/4 45/36/4
f 43/2/4 45/36/4 44/28/4
f 42/2/1 34/30/1 41/31/1
f 42/2/1 41/31/1 45/28/1
f 41/5/2 40/5/2 44/7/2
f 41/5/2 44/7/2 45/7/2
f 46/22/6 47/22/6 48/9/6
f 46/22/6 48/9/6 49/9/6
f 49/27/5 48/2/5 50/28/5
f 49/27/5 50/28/5 51/29/5
f 48/2/3 47/30/3 52/31/3
f 48/2/3 52/31/3 50/28/3
f 46/2/1 49/30/1 51/31/1
f 46/2/1 51/31/1 53/28/1
f 51/10/2 50/10/2 52/11/2
f 51/10/2 52/11/2 53/11/2
f 54/12/6 55/12/6 47/22/6
f 54/12/6 47/22/6 46/22/6
f 47/2/3 55/30/3 56/31/3
f 47/2/3 56/31/3 52/28/3
f 55/2/4 54/35/4 57/36/4
f 55/2/4 57/36/4 56/28/4
f 54/2/1 46/30/1 53/31/1
f 54/2/1 53/31/1 57/28/1
f 53/11/2 52/11/2 56/13/2
f 53/11/2 56/13/2 57/13/2
f 64/16/6 60/16/6 61/17/6
f 64/16/6 61/17/6 1/17/6
f 1/20/5 61/2/5 62/28/5
f 1/20/5 62/28/5 2/21/5
f 61/2/3 60/30/3 63/31/3
f 61/2/3 63/31/3 62/28/3
f 64/2/1 1/30/1 2/31/1
f 64/2/1 2/31/1 3/28/1
f 2/18/2 62/18/2 63/19/2
f 2/18/2 63/19/2 3/19/2
f 6/16/6 7/16/6 58/14/6
f 6/16/6 58/14/6 4/14/6
f 4/2/5 58/30/5 59/31/5
f 4/2/5 59/31/5 5/28/5
f 7/2/4 6/30/4 8/31/4
f 7/2/4 8/31/4 9/28/4
f 6/24/1 4/2/1 5/28/1
f 6/24/1 5/28/1 8/23/1
f 5/15/2 59/15/2 9/19/2
f 5/15/2 9/19/2 8/19/2
