################################
# OBJ generated by split_obj.py
################################
# Faces:    270
# Vertices: 137
# Normals:  180
# UVs:      0
################################

# vertices

v 1635.989600 186.647740 861.654850
v 1630.218600 186.647740 861.654850
v 1635.989600 167.719070 868.128660
v 1635.989600 168.727280 870.232800
v 1635.989600 171.929500 866.113300
v 1635.989600 172.937790 868.217350
v 1635.496700 165.000030 848.591600
v 1635.496700 167.334200 848.591600
v 1635.496700 165.000000 801.932740
v 1635.496700 167.334200 801.932740
v 1546.577600 165.000030 848.591600
v 1546.577600 167.334200 848.591600
v 1546.577600 165.000000 801.932800
v 1546.577600 167.334200 801.932800
v 1546.577600 202.347490 848.591600
v 1546.577600 202.347440 801.932800
v 1635.496700 202.347440 801.932740
v 1635.496700 202.347490 848.591600
v 1635.496700 207.015910 848.591600
v 1630.825700 207.015910 848.591600
v 1635.496700 207.015900 801.932740
v 1630.825700 207.015900 801.932740
v 1551.248700 207.015910 848.591600
v 1546.577600 207.015910 848.591600
v 1546.577600 207.015900 801.932800
v 1551.248700 207.015900 801.932800
v 1613.779300 167.667970 816.211700
v 1616.989400 167.667970 813.005100
v 1618.164300 167.667970 815.037960
v 1618.164300 167.667970 817.385300
v 1616.989400 167.667970 819.418150
v 1614.954200 167.667970 820.591860
v 1612.604200 167.667970 820.591860
v 1610.569200 167.667970 819.418150
v 1609.394200 167.667970 817.385300
v 1609.394200 167.667970 815.037960
v 1610.569200 167.667970 813.005100
v 1612.604200 167.667970 811.831500
v 1614.954200 167.667970 811.831500
v 1618.858300 172.871400 811.138300
v 1620.717300 172.871400 814.354700
v 1620.717300 172.871400 818.068600
v 1618.858300 172.871400 821.285000
v 1615.638300 172.871400 823.141970
v 1611.920200 172.871400 823.141970
v 1608.700300 172.871400 821.285000
v 1606.841300 172.871400 818.068600
v 1606.841300 172.871400 814.354700
v 1608.700300 172.871400 811.138300
v 1611.920200 172.871400 809.281300
v 1615.638300 172.871400 809.281300
v 1630.825700 167.334200 848.591600
v 1630.825700 167.334200 801.932740
v 1551.248700 167.334200 801.932800
v 1551.248700 167.334200 848.591600
v 1630.825700 165.000030 848.591600
v 1551.248700 165.000030 848.591600
v 1630.825700 202.347490 848.591600
v 1630.825700 202.347440 801.932740
v 1551.248700 202.347440 801.932800
v 1551.248700 202.347490 848.591600
v 1551.248700 165.000000 801.932800
v 1630.825700 165.000000 801.932740
v 1545.989600 188.752840 860.646850
v 1545.989600 203.489460 853.592960
v 1545.989600 202.481190 851.488900
v 1545.989600 187.744580 858.542800
v 1551.604900 188.752840 860.646900
v 1551.604900 203.489460 853.592960
v 1551.604900 187.744610 858.542800
v 1551.604900 202.481190 851.488900
v 1545.989600 186.647610 861.654600
v 1545.989600 185.639360 859.550540
v 1545.989600 171.929430 866.113040
v 1545.989600 172.937650 868.217100
v 1551.604900 186.647610 861.654600
v 1551.604900 172.937650 868.217100
v 1551.604900 185.639370 859.550540
v 1551.604900 171.929430 866.113040
v 1545.989600 207.699900 851.577500
v 1545.989600 206.691650 849.473450
v 1545.989600 167.718900 868.128400
v 1545.989600 168.727220 870.232500
v 1551.604900 207.699900 851.577600
v 1551.604900 206.691650 849.473450
v 1551.604900 167.718920 868.128500
v 1551.604900 168.727230 870.232540
v 1579.681300 171.929470 866.113100
v 1579.681300 172.937670 868.217200
v 1579.681300 168.727260 870.232600
v 1579.681300 167.719000 868.128540
v 1579.681200 203.489500 853.593100
v 1579.681300 202.481230 851.488950
v 1579.681300 206.691700 849.473600
v 1579.681200 207.699940 851.577640
v 1582.488900 207.699940 851.577640
v 1582.488900 203.489500 853.593100
v 1582.488900 206.691700 849.473600
v 1582.488900 202.481230 851.488950
v 1582.488900 167.719020 868.128540
v 1582.488900 171.929470 866.113160
v 1582.488900 168.727260 870.232600
v 1582.488900 172.937670 868.217200
v 1607.757600 171.929500 866.113200
v 1607.757600 172.937680 868.217300
v 1607.757600 168.727260 870.232700
v 1607.757600 167.719040 868.128600
v 1607.757600 203.489520 853.593140
v 1607.757600 202.481280 851.489100
v 1607.757600 206.691710 849.473630
v 1607.757600 207.699980 851.577700
v 1610.565200 207.699980 851.577700
v 1610.565200 203.489550 853.593140
v 1610.565200 206.691740 849.473700
v 1610.565200 202.481280 851.489100
v 1610.565200 167.719040 868.128600
v 1610.565200 171.929500 866.113200
v 1610.565200 168.727260 870.232700
v 1610.565200 172.937680 868.217300
v 1630.218600 171.929500 866.113300
v 1630.218600 172.937710 868.217350
v 1630.218600 168.727260 870.232700
v 1630.218600 167.719070 868.128660
v 1630.218600 203.489550 853.593200
v 1630.218600 202.481280 851.489100
v 1630.218600 206.691740 849.473700
v 1630.218600 207.700010 851.577760
v 1635.989600 207.700010 851.577800
v 1635.989600 206.691760 849.473700
v 1635.989600 202.481310 851.489140
v 1635.989600 203.489550 853.593200
v 1630.218600 188.752940 860.647160
v 1630.218600 187.744690 858.543000
v 1635.989600 188.752960 860.647160
v 1635.989600 187.744690 858.543000
v 1630.218600 185.639470 859.550700
v 1635.989600 185.639470 859.550800

# normals

vn 0 1 0
vn 0 -1 0
vn 1 0 0
vn 0 0 1
vn -1 0 0
vn 0.77783 -0.44017 -0.44859
vn 0.77783 -0.44017 -0.44858
vn 0.89796 -0.44007 0
vn 0.89796 -0.44007 0
vn 0.77783 -0.44017 0.44859
vn 0.77783 -0.44017 0.44858
vn 0.44928 -0.44037 0.77732
vn 0.44928 -0.44037 0.77732
vn 0 -0.44046 0.89777
vn -0.44928 -0.44037 0.77732
vn -0.44928 -0.44036 0.77732
vn -0.77784 -0.44017 0.44858
vn -0.77783 -0.44017 0.44858
vn -0.89796 -0.44007 -0
vn -0.89796 -0.44007 -0
vn -0.77784 -0.44017 -0.44858
vn -0.77784 -0.44017 -0.44858
vn -0.44928 -0.44037 -0.77732
vn -0.44928 -0.44037 -0.77732
vn 0 -0.44046 -0.89777
vn 0 -0.44046 -0.89777
vn 0.44928 -0.44037 -0.77732
vn 0.44928 -0.44037 -0.77732
vn -0.77783 0.44017 0.44858
vn -0.77783 0.44017 0.44859
vn -0.89796 0.44007 0
vn -0.89796 0.44007 0
vn -0.77783 0.44017 -0.44858
vn -0.77783 0.44017 -0.44859
vn -0.44928 0.44037 -0.77732
vn -0.44928 0.44037 -0.77732
vn 0 0.44046 -0.89777
vn 0 0.44046 -0.89777
vn 0.44928 0.44036 -0.77732
vn 0.44928 0.44037 -0.77732
vn 0.77783 0.44017 -0.44858
vn 0.77784 0.44017 -0.44858
vn 0.89796 0.44007 0
vn 0.89796 0.44007 0
vn 0.77784 0.44017 0.44858
vn 0.77784 0.44017 0.44858
vn 0.44928 0.44037 0.77732
vn 0 0.44046 0.89777
vn 0 0.44046 0.89777
vn -0.44928 0.44037 0.77732
vn -0.44928 0.44037 0.77732
vn -3.6e-06 0.43214 0.90181
vn 0 0.43214 0.90181
vn 1 4.1e-06 8.6e-06
vn 1 4.1e-06 8.6e-06
vn 0 -0.43214 -0.90181
vn 5.7e-06 -0.43214 -0.90181
vn -3.6e-06 0.43214 0.90181
vn -3.6e-06 0.43214 0.90181
vn 1 5.4e-06 8e-06
vn 5.3e-06 -0.43214 -0.90181
vn 3.6e-06 -0.43214 -0.90181
vn -3.6e-06 0.43214 0.90181
vn 0 0.43214 0.90181
vn 1.7e-06 0.90199 -0.43176
vn 0 -0.43214 -0.90181
vn 3.6e-06 -0.43214 -0.90181
vn 5.3e-06 -0.43213 -0.90181
vn 3.6e-06 -0.43213 -0.90181
vn 1.9e-06 -0.90198 0.43177
vn 1.9e-06 -0.90198 0.43178
vn -3.6e-06 0.43214 0.90181
vn -5.3e-06 0.43214 0.90181
vn -3.6e-06 0.43214 0.9018
vn 5.3e-06 -0.43214 -0.9018
vn 5.7e-06 -0.43214 -0.90181
vn -2e-07 0.902 -0.43174
vn 5e-07 0.902 -0.43173
vn -2.8e-06 0.43214 0.90181
vn -5e-07 -0.90198 0.43178
vn 1.5e-06 -0.90199 0.43175
vn 3.3e-06 -0.43213 -0.90181
vn 3.2e-06 -0.43213 -0.90181
vn 1e-07 -0.90199 0.43176
vn 2e-07 -0.90199 0.43176
vn 3.6e-06 -0.43214 -0.90181
vn 3.9e-06 -0.43214 -0.90181
vn 1e-07 0.90199 -0.43176
vn 8e-07 0.90199 -0.43175
vn -3.6e-06 0.43214 0.90181
vn -4e-06 0.43214 0.90181
vn 0 0.43214 0.90181
vn 0 0.90199 -0.43175
vn 0 -0.43214 -0.90181
vn 1.42e-05 -0.43213 -0.90181
vn 7.2e-06 -0.43214 -0.90181
vn -3.4e-06 -0.90199 0.43175
vn 2e-06 -0.90199 0.43175
vn -7.2e-06 0.43214 0.90181
vn 3e-07 0.902 -0.43173
vn 3e-07 0.902 -0.43173
vn -2.8e-06 0.43214 0.90181
vn -2.4e-06 0.43214 0.90181
vn -1.1e-06 -0.90199 0.43175
vn -3e-07 -0.902 0.43174
vn 2.8e-06 -0.43214 -0.90181
vn 2.8e-06 -0.43214 -0.90181
vn -3e-07 -0.90199 0.43176
vn 3e-07 -0.90199 0.43175
vn 3.5e-06 -0.43214 -0.90181
vn 2.8e-06 -0.43214 -0.90181
vn 3e-07 0.90199 -0.43175
vn -4e-07 0.90199 -0.43176
vn -3.1e-06 0.43214 0.90181
vn -2.8e-06 0.43214 0.90181
vn 0 0.43214 0.90181
vn -1.06e-05 0.43214 0.90181
vn -5.5e-06 0.90199 -0.43176
vn 0 0.90199 -0.43175
vn 7.2e-06 -0.43214 -0.90181
vn 1.14e-05 -0.43214 -0.90181
vn 0 -0.43214 -0.90181
vn 0 -0.902 0.43174
vn 0 -0.902 0.43174
vn 1e-06 0.902 -0.43173
vn -0 0.902 -0.43174
vn -2.5e-06 0.43214 0.90181
vn -2e-06 0.43214 0.90181
vn -1e-06 -0.902 0.43174
vn 0 -0.902 0.43173
vn 2.5e-06 -0.43214 -0.90181
vn 2e-06 -0.43214 -0.90181
vn -5e-07 -0.90199 0.43176
vn -5e-07 -0.90199 0.43176
vn 1e-06 -0.43214 -0.90181
vn 5e-07 0.90199 -0.43175
vn -3e-07 0.90199 -0.43176
vn -2.7e-06 0.43214 0.90181
vn -1e-06 0.43214 0.90181
vn 1.7e-06 0.90199 -0.43176
vn -1.8e-06 0.90199 -0.43175
vn 5.2e-06 -0.43214 -0.90181
vn 5.2e-06 -0.43214 -0.90181
vn -3.5e-06 0.43214 0.90181
vn -3.5e-06 0.43214 0.90181
vn -1 -4.1e-06 -8.6e-06
vn -1 -4.1e-06 -8.6e-06
vn -3.5e-06 0.43214 0.90181
vn -1.7e-06 0.43214 0.90181
vn 5.2e-06 -0.43214 -0.90181
vn 0 -0.43214 -0.90181
vn 0 -0.43214 -0.90181
vn 3.5e-06 -0.43214 -0.9018
vn -1.7e-06 0.43214 0.9018
vn -3.5e-06 0.43214 0.90181
vn 1.8e-06 -0.902 0.43174
vn -1.7e-06 -0.902 0.43173
vn 3.5e-06 -0.43214 -0.90181
vn 0 -0.43214 -0.90181
vn -5.2e-06 0.43214 0.90181
vn -9.3e-06 0.43213 0.90181
vn 1 -2e-07 1.06e-05
vn -9.3e-06 0.43214 0.90181
vn -3.5e-06 0.43214 0.90181
vn -1 -1.3e-06 6e-07
vn -1 -4.1e-06 -8.6e-06
vn 1 1.3e-06 -6e-07
vn 1 1.3e-06 -6e-07
vn 0 -0.43214 -0.90181
vn 3.5e-06 -0.43214 -0.90181
vn -3e-07 0 -1
vn 0 -1 5e-07
vn 0 -1 5e-07
vn 0 1 -5e-07
vn 0 1 -5e-07
vn -0 1 -5e-07
vn 0 0 1
vn 1 0 0
vn -1 0 0
vn 0 0 -1

# uvs



# faces

f 27//2 28//2 29//2
f 27//2 29//2 30//2
f 27//2 30//2 31//2
f 27//2 31//2 32//2
f 27//2 32//2 33//2
f 27//2 33//2 34//2
f 27//2 34//2 35//2
f 27//2 35//2 36//2
f 27//2 36//2 37//2
f 27//2 37//2 38//2
f 27//2 38//2 39//2
f 28//2 27//2 39//2
f 29//6 28//6 40//6
f 29//7 40//7 41//7
f 30//8 29//8 41//8
f 30//9 41//9 42//9
f 31//10 30//10 42//10
f 31//11 42//11 43//11
f 32//12 31//12 43//12
f 32//13 43//13 44//13
f 33//14 32//14 44//14
f 33//14 44//14 45//14
f 34//15 33//15 45//15
f 34//16 45//16 46//16
f 35//17 34//17 46//17
f 35//18 46//18 47//18
f 36//19 35//19 47//19
f 36//20 47//20 48//20
f 37//21 36//21 48//21
f 37//22 48//22 49//22
f 38//23 37//23 49//23
f 38//24 49//24 50//24
f 39//25 38//25 50//25
f 39//26 50//26 51//26
f 28//27 39//27 51//27
f 28//28 51//28 40//28
f 27//1 29//1 28//1
f 27//1 30//1 29//1
f 27//1 31//1 30//1
f 27//1 32//1 31//1
f 27//1 33//1 32//1
f 27//1 34//1 33//1
f 27//1 35//1 34//1
f 27//1 36//1 35//1
f 27//1 37//1 36//1
f 27//1 38//1 37//1
f 27//1 39//1 38//1
f 39//1 27//1 28//1
f 29//29 41//29 40//29
f 29//30 40//30 28//30
f 30//31 42//31 41//31
f 30//32 41//32 29//32
f 31//33 43//33 42//33
f 31//34 42//34 30//34
f 32//35 44//35 43//35
f 32//36 43//36 31//36
f 33//37 45//37 44//37
f 33//38 44//38 32//38
f 34//39 46//39 45//39
f 34//40 45//40 33//40
f 35//41 47//41 46//41
f 35//42 46//42 34//42
f 36//43 48//43 47//43
f 36//44 47//44 35//44
f 37//45 49//45 48//45
f 37//46 48//46 36//46
f 38//47 50//47 49//47
f 38//47 49//47 37//47
f 39//48 51//48 50//48
f 39//49 50//49 38//49
f 28//50 40//50 51//50
f 28//51 51//51 39//51
f 64//5 65//5 66//5
f 64//5 66//5 67//5
f 65//52 64//52 68//52
f 65//53 68//53 69//53
f 70//54 71//54 69//54
f 70//55 69//55 68//55
f 67//56 66//56 71//56
f 67//57 71//57 70//57
f 72//5 73//5 74//5
f 72//5 74//5 75//5
f 76//58 72//58 75//58
f 76//59 75//59 77//59
f 78//60 76//60 77//60
f 78//3 77//3 79//3
f 73//61 78//61 79//61
f 73//62 79//62 74//62
f 72//5 64//5 67//5
f 72//5 67//5 73//5
f 65//5 80//5 81//5
f 65//5 81//5 66//5
f 74//5 82//5 83//5
f 74//179 83//179 75//179
f 84//63 80//63 65//63
f 84//64 65//64 69//64
f 80//65 84//65 85//65
f 80//65 85//65 81//65
f 71//66 66//66 81//66
f 71//67 81//67 85//67
f 86//68 82//68 74//68
f 86//69 74//69 79//69
f 87//70 83//70 82//70
f 87//71 82//71 86//71
f 77//72 75//72 83//72
f 77//73 83//73 87//73
f 68//74 64//74 72//74
f 68//74 72//74 76//74
f 78//75 73//75 67//75
f 78//76 67//76 70//76
f 88//77 79//77 77//77
f 88//78 77//78 89//78
f 89//79 77//79 87//79
f 89//79 87//79 90//79
f 90//80 87//80 86//80
f 90//81 86//81 91//81
f 91//82 86//82 79//82
f 91//83 79//83 88//83
f 92//84 69//84 71//84
f 92//85 71//85 93//85
f 93//86 71//86 85//86
f 93//87 85//87 94//87
f 94//88 85//88 84//88
f 94//89 84//89 95//89
f 95//90 84//90 69//90
f 95//91 69//91 92//91
f 96//92 95//92 92//92
f 96//92 92//92 97//92
f 98//93 94//93 95//93
f 98//93 95//93 96//93
f 99//94 93//94 94//94
f 99//94 94//94 98//94
f 100//95 91//95 88//95
f 100//96 88//96 101//96
f 102//97 90//97 91//97
f 102//98 91//98 100//98
f 103//99 89//99 90//99
f 103//99 90//99 102//99
f 104//100 101//100 103//100
f 104//101 103//101 105//101
f 105//102 103//102 102//102
f 105//103 102//103 106//103
f 106//104 102//104 100//104
f 106//105 100//105 107//105
f 107//106 100//106 101//106
f 107//107 101//107 104//107
f 108//108 97//108 99//108
f 108//109 99//109 109//109
f 109//110 99//110 98//110
f 109//111 98//111 110//111
f 110//112 98//112 96//112
f 110//113 96//113 111//113
f 111//114 96//114 97//114
f 111//115 97//115 108//115
f 112//116 111//116 108//116
f 112//117 108//117 113//117
f 114//118 110//118 111//118
f 114//119 111//119 112//119
f 115//120 109//120 110//120
f 115//121 110//121 114//121
f 116//122 107//122 104//122
f 116//122 104//122 117//122
f 118//123 106//123 107//123
f 118//124 107//124 116//124
f 119//92 105//92 106//92
f 119//92 106//92 118//92
f 120//125 117//125 119//125
f 120//126 119//126 121//126
f 121//127 119//127 118//127
f 121//128 118//128 122//128
f 122//129 118//129 116//129
f 122//130 116//130 123//130
f 123//131 116//131 117//131
f 123//132 117//132 120//132
f 124//133 113//133 115//133
f 124//134 115//134 125//134
f 125//135 115//135 114//135
f 125//135 114//135 126//135
f 126//136 114//136 112//136
f 126//137 112//137 127//137
f 127//138 112//138 113//138
f 127//139 113//139 124//139
f 126//140 127//140 128//140
f 126//141 128//141 129//141
f 125//142 126//142 129//142
f 125//143 129//143 130//143
f 130//3 129//3 128//3
f 130//3 128//3 131//3
f 131//144 128//144 127//144
f 131//145 127//145 124//145
f 132//146 124//146 125//146
f 132//147 125//147 133//147
f 134//148 131//148 124//148
f 134//149 124//149 132//149
f 135//3 130//3 131//3
f 135//3 131//3 134//3
f 133//150 125//150 130//150
f 133//151 130//151 135//151
f 136//152 133//152 135//152
f 136//153 135//153 137//153
f 137//3 135//3 134//3
f 137//3 134//3 1//3
f 1//154 134//154 132//154
f 1//155 132//155 2//155
f 3//156 4//156 122//156
f 3//157 122//157 123//157
f 5//158 3//158 123//158
f 5//159 123//159 120//159
f 121//160 122//160 4//160
f 121//161 4//161 6//161
f 6//162 4//162 3//162
f 6//3 3//3 5//3
f 2//163 121//163 6//163
f 2//164 6//164 1//164
f 120//165 121//165 2//165
f 120//166 2//166 136//166
f 137//167 1//167 6//167
f 137//168 6//168 5//168
f 5//169 120//169 136//169
f 5//170 136//170 137//170
f 56//177 7//177 8//177
f 56//177 8//177 52//177
f 7//3 9//3 10//3
f 7//3 10//3 8//3
f 9//180 63//180 53//180
f 9//180 53//180 10//180
f 11//177 57//177 55//177
f 11//177 55//177 12//177
f 62//180 13//180 14//180
f 62//180 14//180 54//180
f 13//179 11//179 12//179
f 13//179 12//179 14//179
f 53//171 63//171 62//171
f 53//171 62//171 54//171
f 63//172 56//172 57//172
f 63//173 57//173 62//173
f 14//5 12//5 15//5
f 14//179 15//179 16//179
f 54//180 14//180 16//180
f 54//180 16//180 60//180
f 12//177 55//177 61//177
f 12//177 61//177 15//177
f 10//180 53//180 59//180
f 10//180 59//180 17//180
f 8//3 10//3 17//3
f 8//178 17//178 18//178
f 52//177 8//177 18//177
f 52//177 18//177 58//177
f 58//177 18//177 19//177
f 58//177 19//177 20//177
f 18//3 17//3 21//3
f 18//3 21//3 19//3
f 17//180 59//180 22//180
f 17//180 22//180 21//180
f 15//177 61//177 23//177
f 15//177 23//177 24//177
f 60//180 16//180 25//180
f 60//180 25//180 26//180
f 16//5 15//5 24//5
f 16//5 24//5 25//5
f 22//174 20//174 19//174
f 22//174 19//174 21//174
f 23//175 26//175 25//175
f 23//175 25//175 24//175
f 20//176 22//176 26//176
f 20//175 26//175 23//175
f 22//171 59//171 60//171
f 22//171 60//171 26//171
f 58//4 20//4 23//4
f 58//4 23//4 61//4
