################################
# OBJ generated by split_obj.py
################################
# Faces:    112
# Vertices: 62
# Normals:  16
# UVs:      0
################################

# vertices

v 1176.311400 121.000000 526.907600
v 1195.750000 121.000000 398.907560
v 1176.311400 121.000000 398.907560
v 1195.750000 121.000000 526.907600
v 1195.750000 82.846850 526.907600
v 1195.750000 82.846850 398.907560
v 1166.592200 0.000000 526.907530
v 1195.750000 0.000000 398.907560
v 1195.750000 0.000000 526.907600
v 1166.592200 0.000000 398.907560
v 1156.872800 71.400900 401.574220
v 1156.872800 71.400900 524.240900
v 1165.814600 79.031530 401.574220
v 1166.592200 79.031530 524.240900
v 1166.592200 79.031530 401.574220
v 1165.814600 79.031530 524.240900
v 1156.872800 74.671170 524.240900
v 1156.872800 74.671170 401.574220
v 1166.592200 71.400900 526.907530
v 1140.350100 76.306305 526.907530
v 1140.350100 71.400900 526.907530
v 1166.592200 82.846850 526.907530
v 1166.592200 82.846850 524.240900
v 1166.592200 71.400900 524.240900
v 1140.350100 76.306305 524.240900
v 1140.350100 71.400900 524.240900
v 1140.350100 71.400900 398.907560
v 1166.592200 82.846850 398.907560
v 1166.592200 71.400900 398.907560
v 1140.350100 76.306305 398.907560
v 1166.592200 82.846850 401.574220
v 1166.592200 71.400900 401.574220
v 1140.350100 76.306305 401.574220
v 1140.350100 71.400900 401.574220
v 1166.592200 63.225224 526.907530
v 1140.350100 63.225224 398.907560
v 1166.592200 63.225224 398.907560
v 1140.350100 63.225224 526.907530
v 1171.085400 109.794420 400.685330
v 1170.456500 107.161850 523.352000
v 1170.456500 107.161850 400.685330
v 1171.085300 109.794420 523.352000
v 1169.517700 107.444180 400.685330
v 1170.146500 110.076750 523.352000
v 1170.146500 110.076750 400.685330
v 1169.517700 107.444180 523.352000
v 1173.214400 110.283325 401.129800
v 1166.673800 82.906260 523.796450
v 1166.673800 82.906260 401.129800
v 1173.214400 110.283325 523.796450
v 1164.796500 83.470924 401.129800
v 1171.336700 110.847440 523.796450
v 1171.336700 110.847440 401.129800
v 1164.796500 83.470924 523.796450
v 1167.311900 94.000110 432.685330
v 1166.683000 91.368080 493.129800
v 1166.683000 91.368080 432.685330
v 1167.311900 94.000110 493.129800
v 1165.744100 91.649870 432.685330
v 1166.372900 94.282440 493.129800
v 1166.372900 94.282440 432.685330
v 1165.744100 91.649870 493.129800

# normals

vn -0.36145 0.93239 -0
vn 0 1 0
vn 0 -1 0
vn -0.19436 0.98093 -0
vn 0.95769 -0.2878 0
vn -0.95768 0.28782 -0
vn 0.23237 0.97263 0
vn 1 0 0
vn 0.95769 -0.28781 0
vn -0.95769 0.28781 -0
vn -0.23237 -0.97263 -0
vn -0.9523 0.30516 -0
vn -1 0 -0
vn 0.23237 0.97263 0
vn -0 0 1
vn 0 0 -1

# uvs



# faces

f 19//15 20//15 21//15
f 19//15 22//15 20//15
f 19//8 23//8 22//8
f 19//8 24//8 23//8
f 21//13 25//13 26//13
f 21//13 20//13 25//13
f 22//4 25//4 20//4
f 22//4 23//4 25//4
f 21//3 24//3 19//3
f 21//3 26//3 24//3
f 26//16 23//16 24//16
f 26//16 25//16 23//16
f 27//16 28//16 29//16
f 27//16 30//16 28//16
f 29//8 31//8 32//8
f 29//8 28//8 31//8
f 27//13 33//13 30//13
f 27//13 34//13 33//13
f 30//4 31//4 28//4
f 30//4 33//4 31//4
f 29//3 34//3 27//3
f 29//3 32//3 34//3
f 32//15 33//15 34//15
f 32//15 31//15 33//15
f 35//3 36//3 37//3
f 35//3 38//3 36//3
f 36//16 29//16 37//16
f 36//16 27//16 29//16
f 35//15 21//15 38//15
f 35//15 19//15 21//15
f 37//8 19//8 35//8
f 37//8 29//8 19//8
f 38//13 27//13 36//13
f 38//13 21//13 27//13
f 21//2 29//2 27//2
f 21//2 19//2 29//2
f 39//5 40//5 41//5
f 39//5 42//5 40//5
f 43//6 44//6 45//6
f 43//6 46//6 44//6
f 40//15 44//15 46//15
f 40//15 42//15 44//15
f 43//16 39//16 41//16
f 43//16 45//16 39//16
f 42//7 45//7 44//7
f 42//7 39//7 45//7
f 46//11 41//11 40//11
f 46//11 43//11 41//11
f 47//9 48//9 49//9
f 47//9 50//9 48//9
f 51//10 52//10 53//10
f 51//10 54//10 52//10
f 48//15 52//15 54//15
f 48//15 50//15 52//15
f 51//16 47//16 49//16
f 51//16 53//16 47//16
f 50//14 53//14 52//14
f 50//14 47//14 53//14
f 54//11 49//11 48//11
f 54//11 51//11 49//11
f 55//5 56//5 57//5
f 55//5 58//5 56//5
f 59//6 60//6 61//6
f 59//6 62//6 60//6
f 56//15 60//15 62//15
f 56//15 58//15 60//15
f 59//16 55//16 57//16
f 59//16 61//16 55//16
f 58//7 61//7 60//7
f 58//7 55//7 61//7
f 62//11 57//11 56//11
f 62//11 59//11 57//11
f 1//2 2//2 3//2
f 1//2 4//2 2//2
f 5//3 28//3 6//3
f 5//3 22//3 28//3
f 28//16 2//16 6//16
f 28//16 3//16 2//16
f 1//15 5//15 4//15
f 1//15 22//15 5//15
f 6//8 4//8 5//8
f 6//8 2//8 4//8
f 3//12 22//12 1//12
f 3//12 28//12 22//12
f 5//2 28//2 22//2
f 5//2 6//2 28//2
f 7//3 8//3 9//3
f 7//3 10//3 8//3
f 28//16 8//16 10//16
f 28//16 6//16 8//16
f 7//15 5//15 22//15
f 7//15 9//15 5//15
f 6//8 9//8 8//8
f 6//8 5//8 9//8
f 10//13 22//13 28//13
f 10//13 7//13 22//13
f 13//2 14//2 15//2
f 13//2 16//2 14//2
f 32//3 12//3 11//3
f 32//3 24//3 12//3
f 17//15 14//15 16//15
f 17//15 24//15 14//15
f 17//15 12//15 24//15
f 15//16 18//16 13//16
f 15//16 11//16 18//16
f 15//16 32//16 11//16
f 18//13 12//13 17//13
f 18//13 11//13 12//13
f 14//8 32//8 15//8
f 14//8 24//8 32//8
f 17//1 13//1 18//1
f 17//1 16//1 13//1
