################################
# OBJ generated by split_obj.py
################################
# Faces:    9
# Vertices: 9
# Normals:  5
# UVs:      0
################################

# vertices

v 733.339360 74.000000 739.532700
v 703.639950 74.000000 739.532700
v 718.489700 74.000000 729.111200
v 703.639950 74.000000 718.640600
v 733.339360 74.000000 718.640600
v 733.339230 74.045000 718.562870
v 703.639650 74.045000 718.562870
v 733.339600 74.150000 718.532700
v 703.639650 74.150000 718.532700

# normals

vn 0 -0.96577 -0.25939
vn -0 0 1
vn 0 -1 0
vn 0 -0.61541 -0.78821
vn 0 -0.27616 -0.96111

# uvs



# faces

f 1//3 2//3 3//3
f 2//3 4//1 3//3
f 4//1 5//1 3//3
f 5//1 1//3 3//3
f 5//1 4//1 6//4
f 6//4 4//1 7//4
f 8//2 6//2 8//2
f 6//4 7//4 8//5
f 8//5 7//4 9//5
