################################
# OBJ generated by split_obj.py
################################
# Faces:    24
# Vertices: 48
# Normals:  1
# UVs:      4
################################

# vertices

v 1119.500000 250.000000 115.109116
v 1119.500000 250.000000 195.109120
v 78.495000 250.000000 199.278580
v 78.495010 250.000000 119.278580
v -1.504990 250.000000 119.278580
v -1.504997 250.000000 199.278580
v 1651.500000 250.000000 197.809220
v 1651.500000 250.000000 117.809220
v 1571.500000 250.000000 117.809220
v 1571.500000 250.000000 197.809220
v 0.499992 250.000000 1085.309300
v 0.500016 250.000000 1165.309300
v 80.500015 250.000000 1165.309300
v 80.499990 250.000000 1085.309300
v 1573.606600 250.000000 1085.309200
v 1573.606600 250.000000 1165.309200
v 1653.606600 250.000000 1165.309200
v 1653.606600 250.000000 1085.309200
v 1656.250900 250.000000 201.301560
v 1656.250900 250.000000 281.301570
v 1736.250900 250.000000 281.301570
v 1736.250900 250.000000 201.301560
v 439.500000 250.000000 1085.309300
v -1.242250 250.000000 199.279460
v -81.241780 250.000000 199.006740
v -81.514510 250.000000 279.006300
v -1.514975 250.000000 279.279000
v -4.257787 250.000000 1083.836400
v -4.257800 250.000000 1003.836400
v -84.257800 250.000000 1003.836400
v -84.257790 250.000000 1083.836400
v 1653.530300 250.000000 1005.309200
v 1653.530300 250.000000 1085.309200
v 1733.530300 250.000000 1085.309200
v 1733.530300 250.000000 1005.309200
v 1118.500000 250.000000 1085.309200
v 1118.500000 250.000000 1165.309200
v 1198.500000 250.000000 1165.309200
v 1198.500000 250.000000 1085.309200
v 439.500000 250.000000 1165.309300
v 519.500000 250.000000 1165.309300
v 519.500000 250.000000 1085.309300
v 522.500000 250.000000 197.809220
v 522.500000 250.000000 117.809220
v 442.500000 250.000000 117.809220
v 442.500000 250.000000 197.809220
v 1199.500000 250.000000 195.109120
v 1199.500000 250.000000 115.109116

# normals

vn 0 1 0

# uvs

vt 0 33
vt 0 25
vt 2.6667 25
vt 2.6667 33

# faces

f 36/1/1 37/2/1 38/3/1
f 36/1/1 38/3/1 39/4/1
f 23/1/1 40/2/1 41/3/1
f 23/1/1 41/3/1 42/4/1
f 43/1/1 44/2/1 45/3/1
f 43/1/1 45/3/1 46/4/1
f 47/1/1 48/2/1 1/3/1
f 47/1/1 1/3/1 2/4/1
f 3/1/1 4/2/1 5/3/1
f 3/1/1 5/3/1 6/4/1
f 7/1/1 8/2/1 9/3/1
f 7/1/1 9/3/1 10/4/1
f 11/1/1 12/2/1 13/3/1
f 11/1/1 13/3/1 14/4/1
f 15/1/1 16/2/1 17/3/1
f 15/1/1 17/3/1 18/4/1
f 19/1/1 20/2/1 21/3/1
f 19/1/1 21/3/1 22/4/1
f 24/1/1 25/2/1 26/3/1
f 24/1/1 26/3/1 27/4/1
f 28/1/1 29/2/1 30/3/1
f 28/1/1 30/3/1 31/4/1
f 32/1/1 33/2/1 34/3/1
f 32/1/1 34/3/1 35/4/1
