################################
# OBJ generated by split_obj.py
################################
# Faces:    4
# Vertices: 6
# Normals:  1
# UVs:      0
################################

# vertices

v 428.201600 110.923035 811.941470
v 428.201600 110.923035 931.458740
v 428.201600 148.770260 931.458740
v 428.201600 148.770260 811.941470
v 428.201600 206.604840 811.941470
v 428.201600 206.604840 931.458740

# normals

vn -1 0 -0

# uvs



# faces

f 1//1 2//1 3//1
f 1//1 3//1 4//1
f 5//1 4//1 3//1
f 5//1 3//1 6//1
