################################
# OBJ generated by split_obj.py
################################
# Faces:    194
# Vertices: 50
# Normals:  95
# UVs:      4
################################

# vertices

v 443.262800 231.591350 867.113700
v 443.260160 235.798920 871.514300
v 443.256200 239.984150 875.891240
v 446.769230 240.000000 875.907600
v 447.023130 238.769710 874.620670
v 447.111480 235.799300 871.513900
v 447.023130 232.828750 868.407300
v 446.769230 231.598220 867.120670
v 443.257660 48.377880 867.128500
v 443.255000 44.185944 871.513900
v 443.251040 40.016514 875.876100
v 446.772300 40.000942 875.892640
v 447.027600 41.226864 874.610300
v 447.116400 44.186280 871.514300
v 447.027600 47.145596 868.418150
v 446.772300 48.371265 867.135600
v 446.772700 231.605090 671.697000
v 443.256600 231.598530 671.704160
v 447.028230 232.832240 670.414730
v 447.117130 235.795230 667.319460
v 447.028230 238.758320 664.224400
v 446.772700 239.985800 662.942570
v 443.249970 239.970260 662.959100
v 443.253970 235.795700 667.320070
v 443.256600 231.606100 867.102050
v 443.253970 235.795170 871.494600
v 443.249970 239.962050 875.863600
v 446.772700 239.977890 875.879800
v 447.028230 238.753070 874.595200
v 447.117130 235.795720 871.494140
v 447.028230 232.838180 868.393200
v 446.772700 231.612960 867.108900
v 446.772700 231.613400 867.102000
v 443.256600 231.619950 867.094850
v 443.257660 48.378998 671.669560
v 443.255000 44.186280 667.285000
v 443.251040 40.015797 662.923900
v 446.772300 40.000000 662.907600
v 447.027600 41.225940 664.189900
v 447.116400 44.185894 667.285300
v 447.027600 47.145960 670.380700
v 446.772300 48.372173 671.662660
v 443.255040 235.807750 667.315700
v 443.257660 231.615890 671.701200
v 443.251040 239.977140 662.953400
v 446.772300 239.992720 662.936950
v 447.027600 238.766780 664.219240
v 447.116420 235.807420 667.315300
v 447.027600 232.848140 670.411440
v 446.772300 231.622500 671.694030

# normals

vn 0 0 -1
vn 0.16099 -4.38e-05 -0.98696
vn -0.4962 5.9e-06 -0.86821
vn 0.69643 2.31e-05 -0.71762
vn 0.85286 5.83e-05 -0.52214
vn -0.49942 -8.36e-05 0.86636
vn -0.86324 6.39e-05 -0.5048
vn -1 7.8e-05 -0.0017573
vn -1 7.59e-05 -0.0021223
vn -0.75463 9.9e-06 0.65615
vn 0.22497 -5.73e-05 0.97437
vn 0.5468 -2.5e-05 0.83727
vn 0.92001 2.92e-05 0.39189
vn 0.96956 5.34e-05 0.24487
vn 0.99958 6.71e-05 0.028933
vn 0.96919 5.45e-05 -0.24633
vn 0.54757 -2.79e-05 -0.83676
vn 0.0006585 -7.43e-05 -1
vn -0.75316 -0.001326 -0.65784
vn 0.86364 -0.024128 -0.50353
vn 0.84165 0.20469 -0.49973
vn -0.25789 0.85599 -0.44808
vn -0.86417 -0.0020412 -0.5032
vn -1 -0.0017624 1e-07
vn -1 -0.0020624 0
vn -0.76906 0.63917 2.7e-05
vn 0.23472 0.97206 4.02e-05
vn 0.56323 0.8263 3.14e-05
vn 0.92556 0.37861 1.27e-05
vn 0.99961 0.027875 8e-07
vn 0.97161 -0.23661 6.9e-06
vn 0.92558 -0.37856 1.44e-05
vn 0.56401 -0.82577 3.45e-05
vn 0.23662 -0.9716 4.21e-05
vn 0.0006846 -1 4.32e-05
vn 0.00067 -1 4.24e-05
vn -0.0001657 0.81993 0.57246
vn 0.0006195 0.99751 0.070579
vn -0.0008785 0.42919 0.90321
vn -1 0.0020593 -0
vn -1 0.0017577 -0
vn -1 0.0011717 0.0006131
vn -1 0.0011803 0.0010774
vn -0.76906 -0.63918 2.4e-06
vn -0.62432 -0.69254 -0.36141
vn 0.23481 -0.97204 4.2e-06
vn 0.49809 -0.48759 -0.71705
vn 0.92566 -0.37835 1.8e-06
vn 0.97131 -0.11918 -0.20577
vn 0.99961 -0.027875 1e-07
vn 0.9998 0.013946 -0.014585
vn 0.97167 0.23635 4e-07
vn 0.97244 0.19686 0.12492
vn 0.56414 0.82568 3.7e-06
vn 0.50517 0.69221 0.51541
vn 0.0006857 1 5.7e-06
vn 0.0006963 1 6.2e-06
vn -0.2366 -0.97161 -5.4e-06
vn -0.0006751 -1 -6.2e-06
vn -0.0006857 -1 -5.7e-06
vn -0.4996 -0.48708 -0.71635
vn -0.92566 -0.37834 -1.3e-06
vn -0.97132 -0.11916 -0.20578
vn -0.99961 -0.027878 -1e-07
vn -0.9998 0.013946 -0.014586
vn -0.97168 0.23632 -1.1e-06
vn -0.97244 0.19687 0.1249
vn -0.56337 0.82621 -4e-06
vn -0.50365 0.69294 0.51592
vn 0.28847 0.95749 -4.1e-06
vn 0.61396 0.33963 0.71253
vn 1 -0.0023609 0
vn 1 -0.0010295 -0.0012351
vn 1 -0.0017576 0
vn 1 -0.0005858 -0.001226
vn 1 1e-07 -0.0021544
vn 1 1e-07 -0.0018388
vn 0.75464 -8.88e-05 0.65614
vn -0.22498 -0.000131 0.97436
vn -0.91944 -5.29e-05 0.39322
vn -0.99957 -3.8e-06 0.02918
vn -0.96913 3.73e-05 -0.24655
vn -0.54677 0.0001303 -0.83728
vn -0.0006452 0.0001576 -1
vn -0.0006552 0.000157 -1
vn 0.0006552 -0.000157 1
vn 0.22673 -0.0001529 0.97396
vn 0.0006652 -0.0001576 1
vn 0.91945 -6.07e-05 0.39322
vn 0.99957 -4.7e-06 0.029178
vn 0.96912 3.35e-05 -0.24659
vn 0.54599 0.0001125 -0.83779
vn -0.27674 0.0001294 -0.96095
vn -1 -1e-07 0.0024702
vn -1 -1e-07 0.0018391

# uvs

vt 1 0
vt 0 0
vt 0 1
vt 1 1

# faces

f 1/4/1 2/1/1 2/2/1
f 1/4/1 2/2/1 1/3/1
f 2/4/1 3/1/1 3/2/1
f 2/4/1 3/2/1 2/3/1
f 3/4/1 4/1/1 4/2/1
f 3/4/1 4/2/1 3/3/1
f 4/4/1 5/1/1 5/2/1
f 4/4/1 5/2/1 4/3/1
f 5/4/1 6/1/1 6/2/1
f 5/4/1 6/2/1 5/3/1
f 6/4/1 7/1/1 7/2/1
f 6/4/1 7/2/1 6/3/1
f 7/4/1 8/1/1 8/2/1
f 7/4/1 8/2/1 7/3/1
f 1/2/1 8/3/1 8/4/1
f 1/2/1 8/4/1 1/1/1
f 8/4/1 1/1/1 1/2/1
f 8/4/1 1/2/1 8/3/1
f 7/4/1 8/1/1 8/2/1
f 7/4/1 8/2/1 7/3/1
f 6/4/1 7/1/1 7/2/1
f 6/4/1 7/2/1 6/3/1
f 5/4/1 6/1/1 6/2/1
f 5/4/1 6/2/1 5/3/1
f 4/4/1 5/1/1 5/2/1
f 4/4/1 5/2/1 4/3/1
f 3/4/1 4/1/1 4/2/1
f 3/4/1 4/2/1 3/3/1
f 2/4/1 3/1/1 3/2/1
f 2/4/1 3/2/1 2/3/1
f 1/4/1 2/1/1 2/2/1
f 1/4/1 2/2/1 1/3/1
f 1/4/1 2/1/1 2/2/1
f 1/4/1 2/2/1 1/3/1
f 2/4/1 3/1/1 3/2/1
f 2/4/1 3/2/1 2/3/1
f 3/4/1 4/1/1 4/2/1
f 3/4/1 4/2/1 3/3/1
f 4/4/1 5/1/1 5/2/1
f 4/4/1 5/2/1 4/3/1
f 5/4/1 6/1/1 6/2/1
f 5/4/1 6/2/1 5/3/1
f 6/4/1 7/1/1 7/2/1
f 6/4/1 7/2/1 6/3/1
f 7/4/1 8/1/1 8/2/1
f 7/4/1 8/2/1 7/3/1
f 8/4/1 1/1/1 1/2/1
f 8/4/1 1/2/1 8/3/1
f 8/4/2 1/1/3 1/2/1
f 8/4/2 1/2/1 8/3/1
f 7/4/4 8/1/2 8/2/1
f 7/4/4 8/2/1 7/3/1
f 6/4/5 7/1/4 7/2/1
f 6/4/5 7/2/1 6/3/1
f 5/4/1 6/1/5 6/2/1
f 5/4/1 6/2/1 5/3/1
f 4/4/1 5/1/1 5/2/1
f 4/4/1 5/2/1 4/3/1
f 3/4/6 4/1/1 4/2/1
f 3/4/6 4/2/1 3/3/1
f 2/4/7 3/1/6 3/2/1
f 2/4/7 3/2/1 2/3/1
f 1/4/3 2/1/7 2/2/1
f 1/4/3 2/2/1 1/3/1
f 1/3/3 9/4/8 10/1/9
f 1/3/3 10/1/9 2/2/7
f 2/3/7 10/4/9 11/1/10
f 2/3/7 11/1/10 3/2/6
f 3/3/6 11/4/10 12/1/11
f 3/3/6 12/1/11 4/2/12
f 4/3/12 12/4/11 13/1/13
f 4/3/12 13/1/13 5/2/14
f 5/3/14 13/4/13 14/1/15
f 5/3/14 14/1/15 6/2/5
f 6/3/5 14/4/15 15/1/16
f 6/3/5 15/1/16 7/2/4
f 7/3/4 15/4/16 16/1/17
f 7/3/4 16/1/17 8/2/2
f 8/3/2 16/4/17 9/1/18
f 8/3/2 9/1/18 1/2/3
f 17/4/1 18/1/19 18/2/1
f 17/4/1 18/2/1 17/3/1
f 19/4/1 17/1/1 17/2/1
f 19/4/1 17/2/1 19/3/1
f 20/4/20 19/1/1 19/2/1
f 20/4/20 19/2/1 20/3/1
f 21/4/21 20/1/20 20/2/1
f 21/4/21 20/2/1 21/3/1
f 22/4/1 21/1/21 21/2/1
f 22/4/1 21/2/1 22/3/1
f 23/4/22 22/1/1 22/2/1
f 23/4/22 22/2/1 23/3/1
f 24/4/23 23/1/22 23/2/1
f 24/4/23 23/2/1 24/3/1
f 18/4/19 24/1/23 24/2/1
f 18/4/19 24/2/1 18/3/1
f 18/3/19 25/4/24 26/1/25
f 18/3/19 26/1/25 24/2/23
f 24/3/23 26/4/25 27/1/26
f 24/3/23 27/1/26 23/2/22
f 23/3/22 27/4/26 28/1/27
f 23/3/22 28/1/27 22/2/28
f 22/3/28 28/4/27 29/1/29
f 22/3/28 29/1/29 21/2/21
f 21/3/21 29/4/29 30/1/30
f 21/3/21 30/1/30 20/2/20
f 20/3/20 30/4/30 31/1/31
f 20/3/20 31/1/31 19/2/32
f 19/3/32 31/4/31 32/1/33
f 19/3/32 32/1/33 17/2/34
f 17/3/34 32/4/33 25/1/35
f 17/3/34 25/1/35 18/2/36
f 32/3/37 33/4/38 34/1/37
f 32/3/37 34/1/37 25/2/39
f 10/3/40 9/2/41 35/1/42
f 10/3/40 35/1/42 36/4/43
f 11/3/44 10/2/40 36/1/43
f 11/3/44 36/1/43 37/4/45
f 12/3/46 11/2/44 37/1/45
f 12/3/46 37/1/45 38/4/47
f 13/3/48 12/2/46 38/1/47
f 13/3/48 38/1/47 39/4/49
f 14/3/50 13/2/48 39/1/49
f 14/3/50 39/1/49 40/4/51
f 15/3/52 14/2/50 40/1/51
f 15/3/52 40/1/51 41/4/53
f 16/3/54 15/2/52 41/1/53
f 16/3/54 41/1/53 42/4/55
f 9/3/56 16/2/54 42/1/55
f 9/3/56 42/1/55 35/4/57
f 16/3/58 9/2/59 35/1/60
f 16/3/58 35/1/60 42/4/61
f 15/3/62 16/2/58 42/1/61
f 15/3/62 42/1/61 41/4/63
f 14/3/64 15/2/62 41/1/63
f 14/3/64 41/1/63 40/4/65
f 13/3/66 14/2/64 40/1/65
f 13/3/66 40/1/65 39/4/67
f 12/3/68 13/2/66 39/1/67
f 12/3/68 39/1/67 38/4/69
f 11/3/70 12/2/68 38/1/69
f 11/3/70 38/1/69 37/4/71
f 10/3/72 11/2/70 37/1/71
f 10/3/72 37/1/71 36/4/73
f 9/3/74 10/2/72 36/1/73
f 9/3/74 36/1/73 35/4/75
f 35/3/75 36/2/73 43/1/76
f 35/3/75 43/1/76 44/4/77
f 36/3/73 37/2/71 45/1/78
f 36/3/73 45/1/78 43/4/76
f 37/3/71 38/2/69 46/1/79
f 37/3/71 46/1/79 45/4/78
f 38/3/69 39/2/67 47/1/80
f 38/3/69 47/1/80 46/4/79
f 39/3/67 40/2/65 48/1/81
f 39/3/67 48/1/81 47/4/80
f 40/3/65 41/2/63 49/1/82
f 40/3/65 49/1/82 48/4/81
f 41/3/63 42/2/61 50/1/83
f 41/3/63 50/1/83 49/4/82
f 42/3/61 35/2/84 44/1/85
f 42/3/61 44/1/85 50/4/83
f 35/3/86 42/2/55 50/1/87
f 35/3/86 50/1/87 44/4/88
f 42/3/55 41/2/53 49/1/89
f 42/3/55 49/1/89 50/4/87
f 41/3/53 40/2/51 48/1/90
f 41/3/53 48/1/90 49/4/89
f 40/3/51 39/2/49 47/1/91
f 40/3/51 47/1/91 48/4/90
f 39/3/49 38/2/47 46/1/92
f 39/3/49 46/1/92 47/4/91
f 38/3/47 37/2/45 45/1/93
f 38/3/47 45/1/93 46/4/92
f 37/3/45 36/2/43 43/1/94
f 37/3/45 43/1/94 45/4/93
f 36/3/43 35/2/42 44/1/95
f 36/3/43 44/1/95 43/4/94
f 50/4/1 44/1/1 44/2/1
f 50/4/1 44/2/1 50/3/1
f 49/4/1 50/1/1 50/2/1
f 49/4/1 50/2/1 49/3/1
f 48/4/1 49/1/1 49/2/1
f 48/4/1 49/2/1 48/3/1
f 47/4/1 48/1/1 48/2/1
f 47/4/1 48/2/1 47/3/1
f 46/4/1 47/1/1 47/2/1
f 46/4/1 47/2/1 46/3/1
f 45/4/1 46/1/1 46/2/1
f 45/4/1 46/2/1 45/3/1
f 43/4/1 45/1/1 45/2/1
f 43/4/1 45/2/1 43/3/1
f 44/4/1 43/1/1 43/2/1
f 44/4/1 43/2/1 44/3/1
