################################
# OBJ generated by split_obj.py
################################
# Faces:    24
# Vertices: 8
# Normals:  6
# UVs:      8
################################

# vertices

v 1359.493400 212.000000 218.642530
v 1359.493400 125.000000 218.642530
v 1359.493400 125.000000 211.642530
v 1471.493400 125.000000 211.642530
v 1471.493400 125.000000 218.642530
v 1471.493400 212.000000 218.642530
v 1471.493400 212.000000 211.642530
v 1359.493400 212.000000 211.642530

# normals

vn -1e-07 0 1
vn 0 1 0
vn 0 -1 0
vn 1 0 1e-07
vn 1e-07 0 -1
vn -1 0 -1e-07

# uvs

vt 0 0
vt 0 -0.077778
vt 0.93333 -0.077778
vt 0.93333 0
vt 0.93333 0.96667
vt 0.93333 0.88889
vt 0 0.88889
vt 0 0.96667

# faces

f 2/1/3 3/2/3 4/3/3
f 2/1/3 4/3/3 5/4/3
f 2/1/3 5/4/3 2/1/3
f 2/1/3 2/1/3 3/2/3
f 5/4/4 5/4/4 4/3/4
f 5/4/4 6/5/4 5/4/4
f 5/4/4 7/6/4 6/5/4
f 5/4/4 4/3/4 7/6/4
f 3/2/5 4/3/5 3/2/5
f 3/2/5 7/6/5 4/3/5
f 3/2/5 8/7/5 7/6/5
f 3/2/5 3/2/5 8/7/5
f 2/1/6 3/2/6 2/1/6
f 2/1/6 8/7/6 3/2/6
f 2/1/6 1/8/6 8/7/6
f 2/1/6 2/1/6 1/8/6
f 1/8/2 7/6/2 8/7/2
f 1/8/2 6/5/2 7/6/2
f 1/8/2 1/8/2 6/5/2
f 1/8/2 8/7/2 1/8/2
f 2/1/1 2/1/1 5/4/1
f 2/1/1 1/8/1 2/1/1
f 2/1/1 6/5/1 1/8/1
f 2/1/1 5/4/1 6/5/1
