################################
# OBJ generated by split_obj.py
################################
# Faces:    68
# Vertices: 40
# Normals:  30
# UVs:      0
################################

# vertices

v 1587.700300 60.229073 851.531250
v 1587.700300 60.229073 847.731750
v 1535.024400 60.229050 847.731750
v 1535.024400 60.229073 851.531250
v 1587.700300 0.000000 851.531250
v 1535.024400 0.000041 851.531250
v 1587.700300 0.000000 847.731750
v 1535.024400 0.000000 847.731750
v 1588.492700 60.229073 851.531250
v 1640.874900 60.229073 851.531250
v 1640.874900 60.229050 847.731750
v 1588.492700 60.229073 847.731750
v 1588.492700 0.000041 851.531250
v 1640.874900 0.000041 851.531250
v 1588.492700 0.000000 847.731750
v 1640.874900 0.000000 847.731750
v 1537.510900 0.024290 803.832500
v 1537.510900 0.024290 801.932800
v 1638.643400 0.024290 801.932800
v 1638.643400 0.024290 803.832500
v 1537.510900 60.329086 803.832500
v 1638.643400 60.329086 803.832500
v 1638.643400 60.329086 801.932800
v 1537.510900 60.329086 801.932800
v 1534.882000 0.024290 801.932740
v 1534.882000 60.329086 801.932740
v 1534.882000 60.329086 803.832500
v 1534.882000 0.024290 803.832500
v 1641.051300 60.329086 801.932800
v 1641.051300 0.024290 801.932800
v 1641.051300 60.329086 803.832500
v 1641.051300 0.024290 803.832500
v 1638.643200 60.329063 847.526400
v 1641.051000 60.329063 847.526400
v 1641.051000 0.024270 847.526400
v 1638.643200 0.024270 847.526400
v 1537.510600 0.024290 847.526400
v 1534.881600 0.024290 847.526370
v 1534.881600 60.329063 847.526400
v 1537.510600 60.329063 847.526400

# normals

vn 0 1 0
vn 0 -1 0
vn 1 0 0
vn 0 0 -1
vn 0 0 1
vn -1 0 0
vn -6e-07 1 0
vn 0 1 -4.5e-06
vn 6e-07 0 1
vn 0 -5e-07 1
vn -1e-06 -1 -0
vn 0 -1 8.4e-06
vn 6e-07 1 0
vn 0 5e-07 -1
vn 6e-07 0 -1
vn 4e-07 3e-07 -1
vn -3e-07 -3e-07 1
vn 1.1e-05 0 -1
vn 2.22e-05 -3e-07 -1
vn -1 -3e-07 -7.5e-06
vn 0 3e-07 -1
vn 0 1 4e-07
vn 1 0 3.5e-06
vn 0 -1 -4e-07
vn -1 0 -3.5e-06
vn -1 -3e-07 -4.7e-06
vn -1 0 -4.4e-06
vn 1 0 4.4e-06
vn 1 3e-07 4.1e-06
vn -1.24e-05 -5e-07 1

# uvs



# faces

f 1//7 2//7 3//7
f 1//8 3//8 4//8
f 5//9 1//9 4//9
f 5//10 4//10 6//10
f 7//11 5//11 6//11
f 7//12 6//12 8//12
f 2//4 7//4 8//4
f 2//4 8//4 3//4
f 3//6 8//6 6//6
f 3//6 6//6 4//6
f 2//3 1//3 5//3
f 2//3 5//3 7//3
f 9//8 10//8 11//8
f 9//13 11//13 12//13
f 13//5 14//5 10//5
f 13//5 10//5 9//5
f 15//12 16//12 14//12
f 15//12 14//12 13//12
f 12//14 11//14 16//14
f 12//14 16//14 15//14
f 11//3 10//3 14//3
f 11//3 14//3 16//3
f 13//6 9//6 12//6
f 13//6 12//6 15//6
f 17//2 18//2 19//2
f 17//2 19//2 20//2
f 21//1 22//1 23//1
f 21//1 23//1 24//1
f 18//15 24//15 23//15
f 18//16 23//16 19//16
f 21//17 17//17 20//17
f 21//17 20//17 22//17
f 24//18 18//18 25//18
f 24//19 25//19 26//19
f 21//1 24//1 26//1
f 21//1 26//1 27//1
f 18//2 17//2 28//2
f 18//2 28//2 25//2
f 28//20 27//20 26//20
f 28//6 26//6 25//6
f 19//21 23//21 29//21
f 19//21 29//21 30//21
f 23//1 22//1 31//1
f 23//1 31//1 29//1
f 20//2 19//2 30//2
f 20//2 30//2 32//2
f 30//3 29//3 31//3
f 30//3 31//3 32//3
f 31//22 22//22 33//22
f 31//22 33//22 34//22
f 32//23 31//23 34//23
f 32//23 34//23 35//23
f 20//24 32//24 35//24
f 20//24 35//24 36//24
f 22//25 20//25 36//25
f 22//25 36//25 33//25
f 33//5 36//5 35//5
f 33//5 35//5 34//5
f 28//2 17//2 37//2
f 28//2 37//2 38//2
f 27//26 28//26 38//26
f 27//27 38//27 39//27
f 21//22 27//22 39//22
f 21//22 39//22 40//22
f 17//28 21//28 40//28
f 17//29 40//29 37//29
f 37//5 40//5 39//5
f 37//30 39//30 38//30
