################################
# OBJ generated by split_obj.py
################################
# Faces:    12
# Vertices: 8
# Normals:  6
# UVs:      0
################################

# vertices

v 1142.294000 73.581080 401.574220
v 1156.872800 73.581080 524.240900
v 1156.872800 73.581080 401.574220
v 1142.294000 73.581080 524.240900
v 1156.872800 71.400900 401.574220
v 1142.294000 71.400900 524.240900
v 1142.294000 71.400900 401.574220
v 1156.872800 71.400900 524.240900

# normals

vn 0 1 0
vn 0 -1 0
vn 1 0 0
vn -1 0 -0
vn -0 0 1
vn 0 0 -1

# uvs



# faces

f 1//1 2//1 3//1
f 1//1 4//1 2//1
f 5//2 6//2 7//2
f 5//2 8//2 6//2
f 2//5 6//5 8//5
f 2//5 4//5 6//5
f 5//6 1//6 3//6
f 5//6 7//6 1//6
f 4//4 7//4 6//4
f 4//4 1//4 7//4
f 8//3 3//3 2//3
f 8//3 5//3 3//3
